<svg width="1560" height="561" viewBox="0 0 1560 561" fill="none" xmlns="http://www.w3.org/2000/svg">
<rect width="1560" height="561" fill="white"/>
<path d="M362.738 314.14H319.905C317.451 322.007 306.357 339.255 280.772 339.255C249.505 339.255 230.778 312.896 230.778 280.15C230.778 247.404 248.025 221.315 279.023 221.315C306.592 221.315 317.418 239.772 319.401 248.413H362.738C361.023 218.861 337.388 182.685 279.023 182.685C220.658 182.685 187.677 223.803 187.677 280.184C187.677 336.565 221.902 378.187 280.503 378.187C339.103 378.187 360.283 341.272 362.738 314.174V314.14Z" fill="black"/>
<path d="M476.576 182.685C420.43 182.685 381.8 221.583 381.8 280.419C381.8 339.254 420.195 378.153 476.576 378.153C532.957 378.153 571.116 339.019 571.116 280.419C571.116 221.819 532.722 182.685 476.576 182.685ZM476.576 339.288C444.805 339.288 424.633 313.669 424.633 280.453C424.633 247.236 444.838 221.348 476.576 221.348C508.313 221.348 528.284 246.967 528.284 280.453C528.284 313.938 508.078 339.288 476.576 339.288Z" fill="black"/>
<path d="M651.569 298.406C664.11 300.39 667.068 300.86 679.407 302.844C693.191 305.063 700.083 308.996 700.083 320.091C700.083 332.161 686.534 341.272 670.061 341.272C645.921 341.272 636.339 327.723 635.6 320.831H588.834C589.338 343.491 610.485 378.456 670.094 378.456C717.129 378.456 742.983 350.383 742.983 317.637C742.983 284.891 727.955 268.148 684.383 261.02C672.313 259.037 668.615 258.297 657.049 256.347C642.761 253.893 636.373 248.715 636.373 239.84C636.373 228.745 647.468 218.928 667.64 218.928C687.812 218.928 696.183 230.258 698.402 237.654H741.739C739.52 212.775 722.037 182.752 667.875 182.752C620.84 182.752 593.776 209.346 593.776 241.857C593.776 270.669 609.04 291.85 651.637 298.473L651.569 298.406Z" fill="black"/>
<path d="M857.561 373.749H894.241L941.006 240.31V373.749H981.889V187.123H921.809L877.968 311.215L833.892 187.123H772.098V373.749H810.761V240.781L857.527 373.749H857.561Z" fill="black"/>
<path d="M1105.58 182.685C1049.43 182.685 1010.8 221.583 1010.8 280.419C1010.8 339.254 1049.2 378.153 1105.58 378.153C1161.96 378.153 1200.12 339.019 1200.12 280.419C1200.12 221.819 1161.72 182.685 1105.58 182.685ZM1105.58 339.288C1073.81 339.288 1053.63 313.669 1053.63 280.453C1053.63 247.236 1073.84 221.348 1105.58 221.348C1137.32 221.348 1157.29 246.967 1157.29 280.453C1157.29 313.938 1137.08 339.288 1105.58 339.288Z" fill="black"/>
<path d="M1280.57 298.406C1293.11 300.39 1296.07 300.86 1308.41 302.844C1322.19 305.063 1329.08 308.996 1329.08 320.091C1329.08 332.161 1315.54 341.272 1299.06 341.272C1274.92 341.272 1265.34 327.723 1264.6 320.831H1217.83C1218.34 343.491 1239.49 378.456 1299.1 378.456C1346.13 378.456 1371.98 350.383 1371.98 317.637C1371.98 284.891 1356.96 268.148 1313.38 261.02C1301.31 259.037 1297.62 258.297 1286.05 256.347C1271.76 253.893 1265.37 248.715 1265.37 239.84C1265.37 228.745 1276.47 218.928 1296.64 218.928C1316.81 218.928 1325.18 230.258 1327.4 237.654H1370.74C1368.52 212.775 1351.04 182.752 1296.88 182.752C1249.84 182.752 1222.78 209.346 1222.78 241.857C1222.78 270.669 1238.04 291.85 1280.64 298.473L1280.57 298.406Z" fill="black"/>
<path fill-rule="evenodd" clip-rule="evenodd" d="M541.276 130.555C544.684 132.029 546.251 135.988 544.777 139.396L420.483 426.648C419.008 430.056 415.049 431.623 411.641 430.148C408.233 428.674 406.666 424.715 408.14 421.307L532.434 134.056C533.909 130.647 537.868 129.08 541.276 130.555Z" fill="black"/>
</svg>
