<svg width="1920" height="1080" viewBox="0 0 1920 1080" fill="none" xmlns="http://www.w3.org/2000/svg">
<rect width="1920" height="1080" fill="#F1F1F1"/>
<path d="M393.166 597H412.606L420.166 587.28C429.526 595.02 441.766 599.52 456.526 599.52C492.526 599.52 516.466 573.24 516.466 528.78C516.466 508.98 511.786 492.96 503.506 481.44L519.886 460.56H499.546L492.346 469.74C483.886 462.72 471.286 458.04 456.526 458.04C420.526 458.04 396.586 484.32 396.586 528.78C396.586 548.76 401.446 564.6 409.546 575.94L393.166 597ZM414.226 528.78C414.226 496.38 430.246 474.06 456.526 474.06C466.786 474.06 475.246 477.3 481.906 483.06L421.066 561.36C416.566 552.54 414.226 541.38 414.226 528.78ZM456.526 583.5C446.086 583.5 437.446 580.08 430.606 574.14L491.986 496.02C496.486 505.02 498.826 516 498.826 528.78C498.826 561.18 482.806 583.5 456.526 583.5Z" fill="black"/>
<path d="M543.179 493.14H559.739C560.459 484.68 567.119 473.16 582.419 473.16C597.179 473.16 605.819 482.52 605.819 496.02C605.819 511.32 593.399 519.96 579.539 519.96V535.62H582.599C600.779 535.62 611.759 543.72 611.759 559.2C611.759 573.96 600.959 584.4 584.579 584.4C564.779 584.4 557.039 571.08 556.139 561.72H539.219C539.399 579.36 553.079 599.52 584.579 599.52C612.299 599.52 629.219 582.96 629.219 559.2C629.219 538.5 617.339 527.88 602.939 524.82C613.559 520.86 622.919 511.14 622.919 494.76C622.919 474.24 609.599 458.04 582.419 458.04C555.599 458.04 543.179 476.76 543.179 493.14ZM647.672 501.6H668.372V597H685.112V460.56H671.972C671.432 471.18 669.812 479.1 666.032 482.88C662.612 486.3 657.392 487.38 647.672 487.38V501.6ZM793.171 460.38H776.431L712.351 548.58V562.44H776.971V597H793.171V562.44H811.891V547.5H793.171V460.38ZM729.991 547.5L776.971 483.06V547.5H729.991ZM826.751 620.04L836.291 624.9C844.931 615.36 851.411 602.58 851.411 587.64V574.14H834.671V587.64C834.671 600.42 832.331 609.24 826.751 620.04ZM868.102 501.6H888.802V597H905.542V460.56H892.402C891.862 471.18 890.242 479.1 886.462 482.88C883.042 486.3 877.822 487.38 868.102 487.38V501.6ZM986.429 504.84C970.229 504.84 961.409 512.76 957.449 519.06L961.589 475.86H1020.27V460.56H947.549L940.889 534.18H956.549C958.169 530.94 965.189 520.14 981.029 520.14C999.029 520.14 1008.21 533.46 1008.21 551.64C1008.21 570.36 997.409 584.04 979.769 584.04C960.509 584.04 953.489 570.36 952.949 564.24H935.669C935.849 577.2 947.549 599.52 979.769 599.52C1008.75 599.52 1025.67 579.36 1025.67 551.64C1025.67 524.64 1012.35 504.84 986.429 504.84ZM1046.39 504.66C1046.39 531.66 1062.41 550.56 1087.61 550.56C1107.95 550.56 1119.29 537.24 1123.61 523.38C1123.61 525 1123.61 526.98 1123.61 529.32C1123.61 560.1 1113.17 584.22 1090.49 584.22C1075.73 584.22 1069.07 575.22 1067.27 568.92H1049.99C1051.43 583.32 1064.75 599.52 1090.49 599.52C1124.33 599.52 1140.53 570.9 1140.53 528.6C1140.53 481.08 1121.45 458.04 1091.57 458.04C1064.03 458.04 1046.39 477.66 1046.39 504.66ZM1063.67 504.66C1063.67 487.2 1073.75 473.16 1091.57 473.16C1108.31 473.16 1119.11 487.92 1119.11 503.94C1119.11 521.22 1107.77 535.62 1090.85 535.62C1073.03 535.62 1063.67 521.94 1063.67 504.66ZM1158.27 620.04L1167.81 624.9C1176.45 615.36 1182.93 602.58 1182.93 587.64V574.14H1166.19V587.64C1166.19 600.42 1163.85 609.24 1158.27 620.04ZM1209.17 593.4V597H1295.57V581.34H1226.81C1228.43 575.76 1233.47 568.92 1243.55 561.36L1267.49 543.36C1283.15 531.48 1293.41 518.52 1293.41 498.9C1293.41 475.86 1279.37 458.04 1251.83 458.04C1223.93 458.04 1210.97 477.84 1210.97 497.1H1227.89C1228.25 485.58 1235.99 473.34 1251.83 473.34C1266.95 473.34 1276.31 483.96 1276.31 498.54C1276.31 512.04 1268.75 521.76 1257.59 530.4L1232.57 550.02C1214.75 563.88 1209.17 576.66 1209.17 593.4ZM1413.4 553.08C1413.4 525.9 1397.92 507 1372.9 507C1352.38 507 1340.68 520.5 1336.18 534.36C1336.18 532.56 1336.18 530.58 1336.18 528.24C1336.18 497.46 1346.62 473.34 1369.3 473.34C1383.88 473.34 1390.54 482.16 1392.52 488.64H1409.8C1408.18 473.88 1395.58 458.04 1369.3 458.04C1336.18 458.04 1319.26 486.66 1319.26 528.96C1319.26 576.48 1338.7 599.52 1368.58 599.52C1396.12 599.52 1413.4 579.9 1413.4 553.08ZM1396.12 553.26C1396.12 570.54 1386.4 584.4 1368.58 584.4C1351.84 584.4 1340.68 569.64 1340.68 553.62C1340.68 536.34 1352.02 521.94 1368.94 521.94C1386.76 521.94 1396.12 535.62 1396.12 553.26ZM1486.18 504.84C1469.98 504.84 1461.16 512.76 1457.2 519.06L1461.34 475.86H1520.02V460.56H1447.3L1440.64 534.18H1456.3C1457.92 530.94 1464.94 520.14 1480.78 520.14C1498.78 520.14 1507.96 533.46 1507.96 551.64C1507.96 570.36 1497.16 584.04 1479.52 584.04C1460.26 584.04 1453.24 570.36 1452.7 564.24H1435.42C1435.6 577.2 1447.3 599.52 1479.52 599.52C1508.5 599.52 1525.42 579.36 1525.42 551.64C1525.42 524.64 1512.1 504.84 1486.18 504.84Z" fill="black" fill-opacity="0.3"/>
</svg>
