<svg width="1920" height="658" viewBox="0 0 1920 658" fill="none" xmlns="http://www.w3.org/2000/svg">
<rect width="1920" height="658" fill="#F1F1F1"/>
<path d="M90.56 94.416C94.28 94.416 96.344 92.4 96.344 89.088C96.344 85.752 94.328 83.808 90.56 83.808H82.304V102H84.584V94.416H90.56ZM90.296 85.848C92.648 85.848 93.944 86.976 93.944 89.088C93.944 91.2 92.624 92.352 90.272 92.352H84.584V85.848H90.296ZM99.0997 102H101.236V96.096C101.236 93.408 102.364 91.944 105.028 91.944V89.472C102.724 89.472 101.596 91.32 101.236 92.232V89.568H99.0997V102ZM107.863 87.072H110.287V84.336H107.863V87.072ZM108.007 102H110.143V89.568H108.007V102ZM116.165 94.488C116.165 92.76 117.269 91.2 119.021 91.2C120.629 91.2 121.349 92.496 121.349 94.344V102H123.509V94.488C123.509 92.76 124.613 91.2 126.365 91.2C127.973 91.2 128.693 92.496 128.693 94.344V102H130.853V93.864C130.853 91.2 129.653 89.28 126.845 89.28C124.805 89.28 123.629 90.576 123.101 91.512C122.549 90.144 121.445 89.28 119.669 89.28C117.413 89.28 116.381 91.008 116.165 91.44V89.568H114.029V102H116.165V94.488ZM133.91 98.472C133.91 100.848 135.638 102.24 138.038 102.24C140.174 102.24 141.326 100.992 141.83 100.056C142.022 101.16 142.91 102 144.422 102H144.758V100.008C144.134 99.912 143.75 99.528 143.75 98.664V93.048C143.75 90.936 142.262 89.28 139.094 89.28C135.71 89.28 134.462 91.416 134.462 92.832H136.694C136.766 92.232 137.438 91.128 139.094 91.128C140.75 91.128 141.662 91.968 141.662 93.096C141.662 93.936 141.206 94.344 139.958 94.512L137.726 94.8C135.062 95.16 133.91 96.528 133.91 98.472ZM136.07 98.52C136.07 97.512 136.718 96.84 138.206 96.6L140.174 96.288C141.086 96.12 141.566 95.808 141.71 95.616V96.84C141.71 98.904 140.15 100.344 138.23 100.344C136.91 100.344 136.07 99.6 136.07 98.52ZM147.639 102H149.775V96.096C149.775 93.408 150.903 91.944 153.567 91.944V89.472C151.263 89.472 150.135 91.32 149.775 92.232V89.568H147.639V102ZM159.642 102.408C159.018 104.16 158.202 104.664 156.786 104.712V106.776H157.05C159.018 106.776 160.41 106.08 161.562 102.816L166.218 89.568H163.986L160.866 98.808L157.746 89.568H155.346L159.786 101.928L159.642 102.408ZM190.067 97.176H187.763C187.355 98.112 186.203 100.176 183.011 100.176C179.291 100.176 176.867 97.032 176.867 92.88C176.867 88.848 179.099 85.608 182.819 85.608C186.179 85.608 187.427 87.912 187.763 88.92H190.115C189.899 86.712 187.859 83.448 182.819 83.448C177.755 83.448 174.491 87.288 174.491 92.88C174.491 98.544 177.755 102.36 182.987 102.36C187.739 102.36 189.755 99.192 190.067 97.176ZM198.522 89.256C195.066 89.256 192.858 91.848 192.858 95.784C192.858 99.72 195.066 102.312 198.522 102.312C201.93 102.312 204.162 99.72 204.162 95.784C204.162 91.848 201.954 89.256 198.522 89.256ZM195.066 95.784C195.066 93.144 196.314 91.2 198.522 91.2C200.706 91.2 201.954 93.144 201.954 95.784C201.954 98.424 200.706 100.368 198.522 100.368C196.314 100.368 195.066 98.424 195.066 95.784ZM207.382 102H209.518V83.808H207.382V102ZM218.397 89.256C214.941 89.256 212.733 91.848 212.733 95.784C212.733 99.72 214.941 102.312 218.397 102.312C221.805 102.312 224.037 99.72 224.037 95.784C224.037 91.848 221.829 89.256 218.397 89.256ZM214.941 95.784C214.941 93.144 216.189 91.2 218.397 91.2C220.581 91.2 221.829 93.144 221.829 95.784C221.829 98.424 220.581 100.368 218.397 100.368C216.189 100.368 214.941 98.424 214.941 95.784ZM227.233 102H229.369V96.096C229.369 93.408 230.497 91.944 233.161 91.944V89.472C230.857 89.472 229.729 91.32 229.369 92.232V89.568H227.233V102ZM243.051 98.568C243.051 99.648 242.019 100.464 240.363 100.464C238.419 100.464 237.579 99.384 237.411 98.688H235.155C235.347 100.512 237.027 102.36 240.363 102.36C243.435 102.36 245.235 100.68 245.235 98.448C245.235 96.288 243.987 95.28 241.275 94.824L239.691 94.56C238.275 94.32 237.699 93.816 237.699 92.952C237.699 91.968 238.587 91.056 240.219 91.056C241.899 91.056 242.667 92.136 242.763 92.688H244.875C244.755 90.984 243.435 89.208 240.243 89.208C237.339 89.208 235.563 90.912 235.563 93.024C235.563 95.016 236.643 96.24 239.427 96.696L240.963 96.936C242.451 97.176 243.051 97.608 243.051 98.568Z" fill="black"/>
<path d="M82.304 131H90.92C94.568 131 96.8 129.128 96.8 125.816C96.8 123.272 95.504 121.736 93.584 121.232C94.952 120.68 96.104 119.48 96.104 117.512C96.104 114.56 94.256 112.808 90.632 112.808H82.304V131ZM90.272 120.584H84.584V114.824H90.272C92.408 114.824 93.68 115.712 93.68 117.704C93.68 119.552 92.336 120.584 90.272 120.584ZM90.56 122.624C92.984 122.624 94.352 123.68 94.352 125.768C94.352 127.832 92.936 128.96 90.56 128.96H84.584V122.624H90.56ZM100.085 131H102.221V112.808H100.085V131ZM105.34 127.472C105.34 129.848 107.068 131.24 109.468 131.24C111.604 131.24 112.756 129.992 113.26 129.056C113.452 130.16 114.34 131 115.852 131H116.188V129.008C115.564 128.912 115.18 128.528 115.18 127.664V122.048C115.18 119.936 113.692 118.28 110.524 118.28C107.14 118.28 105.892 120.416 105.892 121.832H108.124C108.196 121.232 108.868 120.128 110.524 120.128C112.18 120.128 113.092 120.968 113.092 122.096C113.092 122.936 112.636 123.344 111.388 123.512L109.156 123.8C106.492 124.16 105.34 125.528 105.34 127.472ZM107.5 127.52C107.5 126.512 108.148 125.84 109.636 125.6L111.604 125.288C112.516 125.12 112.996 124.808 113.14 124.616V125.84C113.14 127.904 111.58 129.344 109.66 129.344C108.34 129.344 107.5 128.6 107.5 127.52ZM118.42 124.76C118.42 128.768 120.58 131.312 123.988 131.312C127.084 131.312 128.572 129.248 128.716 127.544H126.58C126.436 128.144 125.716 129.344 123.988 129.344C121.9 129.344 120.628 127.424 120.628 124.76C120.628 122.072 121.828 120.2 123.916 120.2C125.716 120.2 126.436 121.64 126.58 122.312H128.764C128.644 120.32 127.228 118.256 123.916 118.256C120.556 118.256 118.42 120.776 118.42 124.76ZM131.912 131H134.048V127.856L136.16 125.288L139.976 131H142.328L137.624 123.584L141.872 118.568H139.304L134.048 125.048V112.808H131.912V131ZM162.156 130.976H164.604L162.204 128C162.972 126.728 163.38 125.216 163.452 123.704H161.436C161.388 124.544 161.196 125.456 160.836 126.272L156.804 121.28C158.244 120.344 159.996 119.048 159.996 116.504C159.996 114.272 158.652 112.496 155.916 112.496C153.18 112.496 151.764 114.368 151.764 116.504C151.764 118.136 152.556 119.36 153.708 120.824C151.956 121.904 150.324 123.44 150.324 126.056C150.324 129.152 152.556 131.336 156.276 131.336C158.244 131.336 159.804 130.64 160.956 129.56L162.156 130.976ZM153.924 116.432C153.924 115.304 154.644 114.272 155.892 114.272C157.14 114.272 157.836 115.232 157.836 116.504C157.836 118.04 156.828 119.072 155.7 119.888C154.62 118.568 153.924 117.584 153.924 116.432ZM156.3 129.368C154.068 129.368 152.532 127.856 152.532 125.96C152.532 124.328 153.54 123.2 154.884 122.24L159.684 128C158.868 128.816 157.764 129.368 156.3 129.368ZM171.922 112.808L177.322 131H179.578L183.658 116.552L187.738 131H189.994L195.37 112.808H193.09L188.938 127.376L184.978 112.808H182.482L178.546 127.424L174.37 112.808H171.922ZM198.24 131H200.376V123.608C200.376 121.88 201.528 120.224 203.4 120.224C205.104 120.224 206.04 121.52 206.04 123.464V131H208.176V123.032C208.176 120.224 206.736 118.28 204.096 118.28C201.528 118.28 200.544 120.176 200.376 120.536V112.808H198.24V131ZM211.831 116.072H214.255V113.336H211.831V116.072ZM211.975 131H214.111V118.568H211.975V131ZM217.015 118.568V120.392H218.983V127.256C218.983 129.896 220.471 131 223.135 131H223.615V128.936C221.791 128.912 221.119 128.312 221.119 126.656V120.392H223.543V118.568H221.119V114.44H218.983V118.568H217.015ZM231.374 118.28C228.254 118.28 226.022 120.656 226.022 124.688C226.022 128.864 228.302 131.288 231.734 131.288C234.998 131.288 236.39 129.104 236.534 127.712H234.422C234.206 128.312 233.414 129.32 231.782 129.32C229.67 129.32 228.278 127.688 228.158 125.144H236.582V124.28C236.582 120.632 234.71 118.28 231.374 118.28ZM231.374 120.08C233.27 120.08 234.278 121.496 234.47 123.296H228.254C228.542 121.352 229.646 120.08 231.374 120.08ZM238.788 134.072L240.06 134.72C241.212 133.448 242.076 131.744 242.076 129.752V127.952H239.844V129.752C239.844 131.456 239.532 132.632 238.788 134.072ZM260.383 129.176C256.495 129.176 254.071 125.96 254.071 121.904C254.071 117.872 256.327 114.608 260.191 114.608C263.479 114.608 264.847 116.648 265.207 117.656H267.583C267.271 115.472 265.159 112.448 260.191 112.448C254.983 112.448 251.695 116.312 251.695 121.904C251.695 127.544 255.031 131.336 260.191 131.336C263.527 131.336 265.351 129.536 266.071 127.88V131H268.207V122.288H259.975V124.4H266.095C265.735 126.752 263.695 129.176 260.383 129.176ZM271.951 131H274.087V125.096C274.087 122.408 275.215 120.944 277.879 120.944V118.472C275.575 118.472 274.447 120.32 274.087 121.232V118.568H271.951V131ZM279.879 127.472C279.879 129.848 281.607 131.24 284.007 131.24C286.143 131.24 287.295 129.992 287.799 129.056C287.991 130.16 288.879 131 290.391 131H290.727V129.008C290.103 128.912 289.719 128.528 289.719 127.664V122.048C289.719 119.936 288.231 118.28 285.063 118.28C281.679 118.28 280.431 120.416 280.431 121.832H282.663C282.735 121.232 283.407 120.128 285.063 120.128C286.719 120.128 287.631 120.968 287.631 122.096C287.631 122.936 287.175 123.344 285.927 123.512L283.695 123.8C281.031 124.16 279.879 125.528 279.879 127.472ZM282.039 127.52C282.039 126.512 282.687 125.84 284.175 125.6L286.143 125.288C287.055 125.12 287.535 124.808 287.679 124.616V125.84C287.679 127.904 286.119 129.344 284.199 129.344C282.879 129.344 282.039 128.6 282.039 127.52ZM301.936 128.744V131H304.072V112.808H301.936V120.608C301.624 119.912 300.616 118.28 298.168 118.28C295.24 118.28 293.008 120.632 293.008 124.784C293.008 128.96 295.24 131.288 298.168 131.288C300.568 131.288 301.672 129.44 301.936 128.744ZM298.456 120.224C300.52 120.224 301.984 122.096 301.984 124.784C301.984 127.424 300.472 129.344 298.504 129.344C296.608 129.344 295.215 127.544 295.215 124.784C295.215 121.976 296.56 120.224 298.456 120.224ZM307.808 116.072H310.232V113.336H307.808V116.072ZM307.952 131H310.088V118.568H307.952V131ZM318.655 118.28C315.535 118.28 313.303 120.656 313.303 124.688C313.303 128.864 315.583 131.288 319.015 131.288C322.279 131.288 323.671 129.104 323.815 127.712H321.703C321.487 128.312 320.695 129.32 319.063 129.32C316.951 129.32 315.559 127.688 315.439 125.144H323.863V124.28C323.863 120.632 321.991 118.28 318.655 118.28ZM318.655 120.08C320.551 120.08 321.559 121.496 321.751 123.296H315.535C315.823 121.352 316.927 120.08 318.655 120.08ZM327.029 131H329.165V123.608C329.165 121.88 330.317 120.224 332.189 120.224C333.893 120.224 334.829 121.52 334.829 123.464V131H336.965V123.032C336.965 120.224 335.525 118.28 332.885 118.28C330.317 118.28 329.333 120.176 329.165 120.536V118.568H327.029V131ZM339.64 118.568V120.392H341.608V127.256C341.608 129.896 343.096 131 345.76 131H346.24V128.936C344.416 128.912 343.744 128.312 343.744 126.656V120.392H346.168V118.568H343.744V114.44H341.608V118.568H339.64Z" fill="#F1F1F1"/>
<path d="M686.912 93.72L689.792 94.248C691.904 94.632 693.032 95.328 693.032 97.008C693.032 98.832 691.232 100.272 688.592 100.272C684.944 100.272 683.624 98.208 683.432 97.272H680.984C681.128 99.168 683.144 102.384 688.592 102.384C692.936 102.384 695.36 99.888 695.36 96.936C695.36 93.912 693.704 92.64 690.08 91.944L687.224 91.392C685.112 90.984 684.008 90.216 684.008 88.704C684.008 87.048 685.52 85.488 688.232 85.488C691.064 85.488 692.288 87.24 692.504 88.128H694.832C694.664 86.28 692.984 83.424 688.232 83.424C684.056 83.424 681.68 85.848 681.68 88.752C681.68 91.44 683.216 93.048 686.912 93.72ZM703.476 89.28C700.356 89.28 698.124 91.656 698.124 95.688C698.124 99.864 700.404 102.288 703.836 102.288C707.1 102.288 708.492 100.104 708.636 98.712H706.524C706.308 99.312 705.516 100.32 703.884 100.32C701.772 100.32 700.38 98.688 700.26 96.144H708.684V95.28C708.684 91.632 706.812 89.28 703.476 89.28ZM703.476 91.08C705.372 91.08 706.38 92.496 706.572 94.296H700.356C700.644 92.352 701.748 91.08 703.476 91.08ZM711.202 95.76C711.202 99.768 713.362 102.312 716.77 102.312C719.866 102.312 721.354 100.248 721.498 98.544H719.362C719.218 99.144 718.498 100.344 716.77 100.344C714.682 100.344 713.41 98.424 713.41 95.76C713.41 93.072 714.61 91.2 716.698 91.2C718.498 91.2 719.218 92.64 719.362 93.312H721.546C721.426 91.32 720.01 89.256 716.698 89.256C713.338 89.256 711.202 91.776 711.202 95.76ZM729.592 89.256C726.136 89.256 723.928 91.848 723.928 95.784C723.928 99.72 726.136 102.312 729.592 102.312C733 102.312 735.232 99.72 735.232 95.784C735.232 91.848 733.024 89.256 729.592 89.256ZM726.136 95.784C726.136 93.144 727.384 91.2 729.592 91.2C731.776 91.2 733.024 93.144 733.024 95.784C733.024 98.424 731.776 100.368 729.592 100.368C727.384 100.368 726.136 98.424 726.136 95.784ZM738.428 102H740.564V94.608C740.564 92.88 741.716 91.224 743.588 91.224C745.292 91.224 746.228 92.52 746.228 94.464V102H748.364V94.032C748.364 91.224 746.924 89.28 744.284 89.28C741.716 89.28 740.732 91.176 740.564 91.536V89.568H738.428V102ZM760.467 99.744V102H762.603V83.808H760.467V91.608C760.155 90.912 759.147 89.28 756.699 89.28C753.771 89.28 751.539 91.632 751.539 95.784C751.539 99.96 753.771 102.288 756.699 102.288C759.099 102.288 760.203 100.44 760.467 99.744ZM756.987 91.224C759.051 91.224 760.515 93.096 760.515 95.784C760.515 98.424 759.003 100.344 757.035 100.344C755.139 100.344 753.747 98.544 753.747 95.784C753.747 92.976 755.091 91.224 756.987 91.224ZM765.692 98.472C765.692 100.848 767.42 102.24 769.82 102.24C771.956 102.24 773.108 100.992 773.612 100.056C773.804 101.16 774.692 102 776.204 102H776.54V100.008C775.916 99.912 775.532 99.528 775.532 98.664V93.048C775.532 90.936 774.044 89.28 770.876 89.28C767.492 89.28 766.244 91.416 766.244 92.832H768.476C768.548 92.232 769.22 91.128 770.876 91.128C772.532 91.128 773.444 91.968 773.444 93.096C773.444 93.936 772.988 94.344 771.74 94.512L769.508 94.8C766.844 95.16 765.692 96.528 765.692 98.472ZM767.852 98.52C767.852 97.512 768.5 96.84 769.988 96.6L771.956 96.288C772.868 96.12 773.348 95.808 773.492 95.616V96.84C773.492 98.904 771.932 100.344 770.012 100.344C768.692 100.344 767.852 99.6 767.852 98.52ZM779.42 102H781.556V96.096C781.556 93.408 782.684 91.944 785.348 91.944V89.472C783.044 89.472 781.916 91.32 781.556 92.232V89.568H779.42V102ZM791.423 102.408C790.799 104.16 789.983 104.664 788.567 104.712V106.776H788.831C790.799 106.776 792.191 106.08 793.343 102.816L797.999 89.568H795.767L792.647 98.808L789.527 89.568H787.127L791.567 101.928L791.423 102.408ZM821.849 97.176H819.545C819.137 98.112 817.985 100.176 814.793 100.176C811.073 100.176 808.649 97.032 808.649 92.88C808.649 88.848 810.881 85.608 814.601 85.608C817.961 85.608 819.209 87.912 819.545 88.92H821.897C821.681 86.712 819.641 83.448 814.601 83.448C809.537 83.448 806.273 87.288 806.273 92.88C806.273 98.544 809.537 102.36 814.769 102.36C819.521 102.36 821.537 99.192 821.849 97.176ZM830.303 89.256C826.847 89.256 824.639 91.848 824.639 95.784C824.639 99.72 826.847 102.312 830.303 102.312C833.711 102.312 835.943 99.72 835.943 95.784C835.943 91.848 833.735 89.256 830.303 89.256ZM826.847 95.784C826.847 93.144 828.095 91.2 830.303 91.2C832.487 91.2 833.735 93.144 833.735 95.784C833.735 98.424 832.487 100.368 830.303 100.368C828.095 100.368 826.847 98.424 826.847 95.784ZM839.163 102H841.299V83.808H839.163V102ZM850.178 89.256C846.722 89.256 844.514 91.848 844.514 95.784C844.514 99.72 846.722 102.312 850.178 102.312C853.586 102.312 855.818 99.72 855.818 95.784C855.818 91.848 853.61 89.256 850.178 89.256ZM846.722 95.784C846.722 93.144 847.97 91.2 850.178 91.2C852.362 91.2 853.61 93.144 853.61 95.784C853.61 98.424 852.362 100.368 850.178 100.368C847.97 100.368 846.722 98.424 846.722 95.784ZM859.014 102H861.15V96.096C861.15 93.408 862.278 91.944 864.942 91.944V89.472C862.638 89.472 861.51 91.32 861.15 92.232V89.568H859.014V102ZM874.833 98.568C874.833 99.648 873.801 100.464 872.145 100.464C870.201 100.464 869.361 99.384 869.193 98.688H866.937C867.129 100.512 868.809 102.36 872.145 102.36C875.217 102.36 877.017 100.68 877.017 98.448C877.017 96.288 875.769 95.28 873.057 94.824L871.473 94.56C870.057 94.32 869.481 93.816 869.481 92.952C869.481 91.968 870.369 91.056 872.001 91.056C873.681 91.056 874.449 92.136 874.545 92.688H876.657C876.537 90.984 875.217 89.208 872.025 89.208C869.121 89.208 867.345 90.912 867.345 93.024C867.345 95.016 868.425 96.24 871.209 96.696L872.745 96.936C874.233 97.176 874.833 97.608 874.833 98.568Z" fill="black"/>
<path d="M697.208 126.176H694.904C694.496 127.112 693.344 129.176 690.152 129.176C686.432 129.176 684.008 126.032 684.008 121.88C684.008 117.848 686.24 114.608 689.96 114.608C693.32 114.608 694.568 116.912 694.904 117.92H697.256C697.04 115.712 695 112.448 689.96 112.448C684.896 112.448 681.632 116.288 681.632 121.88C681.632 127.544 684.896 131.36 690.128 131.36C694.88 131.36 696.896 128.192 697.208 126.176ZM705.663 118.256C702.207 118.256 699.999 120.848 699.999 124.784C699.999 128.72 702.207 131.312 705.663 131.312C709.071 131.312 711.303 128.72 711.303 124.784C711.303 120.848 709.095 118.256 705.663 118.256ZM702.207 124.784C702.207 122.144 703.455 120.2 705.663 120.2C707.847 120.2 709.095 122.144 709.095 124.784C709.095 127.424 707.847 129.368 705.663 129.368C703.455 129.368 702.207 127.424 702.207 124.784ZM721.434 127.568C721.434 128.648 720.402 129.464 718.746 129.464C716.802 129.464 715.962 128.384 715.794 127.688H713.538C713.73 129.512 715.41 131.36 718.746 131.36C721.818 131.36 723.618 129.68 723.618 127.448C723.618 125.288 722.37 124.28 719.658 123.824L718.074 123.56C716.658 123.32 716.082 122.816 716.082 121.952C716.082 120.968 716.97 120.056 718.602 120.056C720.282 120.056 721.05 121.136 721.146 121.688H723.258C723.138 119.984 721.818 118.208 718.626 118.208C715.722 118.208 713.946 119.912 713.946 122.024C713.946 124.016 715.026 125.24 717.81 125.696L719.346 125.936C720.834 126.176 721.434 126.608 721.434 127.568ZM728.798 123.488C728.798 121.76 729.902 120.2 731.654 120.2C733.262 120.2 733.982 121.496 733.982 123.344V131H736.142V123.488C736.142 121.76 737.246 120.2 738.998 120.2C740.606 120.2 741.326 121.496 741.326 123.344V131H743.486V122.864C743.486 120.2 742.286 118.28 739.478 118.28C737.438 118.28 736.262 119.576 735.734 120.512C735.182 119.144 734.078 118.28 732.302 118.28C730.046 118.28 729.014 120.008 728.798 120.44V118.568H726.662V131H728.798V123.488ZM752.303 118.256C748.847 118.256 746.639 120.848 746.639 124.784C746.639 128.72 748.847 131.312 752.303 131.312C755.711 131.312 757.943 128.72 757.943 124.784C757.943 120.848 755.735 118.256 752.303 118.256ZM748.847 124.784C748.847 122.144 750.095 120.2 752.303 120.2C754.487 120.2 755.735 122.144 755.735 124.784C755.735 127.424 754.487 129.368 752.303 129.368C750.095 129.368 748.847 127.424 748.847 124.784ZM768.075 127.568C768.075 128.648 767.043 129.464 765.387 129.464C763.443 129.464 762.603 128.384 762.435 127.688H760.179C760.371 129.512 762.051 131.36 765.387 131.36C768.459 131.36 770.259 129.68 770.259 127.448C770.259 125.288 769.011 124.28 766.299 123.824L764.715 123.56C763.299 123.32 762.723 122.816 762.723 121.952C762.723 120.968 763.611 120.056 765.243 120.056C766.923 120.056 767.691 121.136 767.787 121.688H769.899C769.779 119.984 768.459 118.208 765.267 118.208C762.363 118.208 760.587 119.912 760.587 122.024C760.587 124.016 761.667 125.24 764.451 125.696L765.987 125.936C767.475 126.176 768.075 126.608 768.075 127.568ZM778.295 112.808L785.447 131H787.847L794.879 112.808H792.479L786.695 128.096L780.887 112.808H778.295ZM797.581 116.072H800.005V113.336H797.581V116.072ZM797.725 131H799.861V118.568H797.725V131ZM808.741 118.256C805.285 118.256 803.077 120.848 803.077 124.784C803.077 128.72 805.285 131.312 808.741 131.312C812.149 131.312 814.381 128.72 814.381 124.784C814.381 120.848 812.173 118.256 808.741 118.256ZM805.285 124.784C805.285 122.144 806.533 120.2 808.741 120.2C810.925 120.2 812.173 122.144 812.173 124.784C812.173 127.424 810.925 129.368 808.741 129.368C806.533 129.368 805.285 127.424 805.285 124.784ZM817.6 131H819.736V112.808H817.6V131ZM828.304 118.28C825.184 118.28 822.952 120.656 822.952 124.688C822.952 128.864 825.232 131.288 828.664 131.288C831.928 131.288 833.32 129.104 833.464 127.712H831.352C831.136 128.312 830.344 129.32 828.712 129.32C826.6 129.32 825.208 127.688 825.088 125.144H833.512V124.28C833.512 120.632 831.64 118.28 828.304 118.28ZM828.304 120.08C830.2 120.08 831.208 121.496 831.4 123.296H825.184C825.472 121.352 826.576 120.08 828.304 120.08ZM835.694 118.568V120.392H837.662V127.256C837.662 129.896 839.15 131 841.814 131H842.294V128.936C840.47 128.912 839.798 128.312 839.798 126.656V120.392H842.222V118.568H839.798V114.44H837.662V118.568H835.694ZM851.874 131H854.154V122.792H863.514V120.656H854.154V114.872H864.33V112.808H851.874V131ZM866.403 127.472C866.403 129.848 868.131 131.24 870.531 131.24C872.667 131.24 873.819 129.992 874.323 129.056C874.515 130.16 875.403 131 876.915 131H877.251V129.008C876.627 128.912 876.243 128.528 876.243 127.664V122.048C876.243 119.936 874.755 118.28 871.587 118.28C868.203 118.28 866.955 120.416 866.955 121.832H869.187C869.259 121.232 869.931 120.128 871.587 120.128C873.243 120.128 874.155 120.968 874.155 122.096C874.155 122.936 873.699 123.344 872.451 123.512L870.219 123.8C867.555 124.16 866.403 125.528 866.403 127.472ZM868.563 127.52C868.563 126.512 869.211 125.84 870.699 125.6L872.667 125.288C873.579 125.12 874.059 124.808 874.203 124.616V125.84C874.203 127.904 872.643 129.344 870.723 129.344C869.403 129.344 868.563 128.6 868.563 127.52ZM882.267 123.488C882.267 121.76 883.371 120.2 885.123 120.2C886.731 120.2 887.451 121.496 887.451 123.344V131H889.611V123.488C889.611 121.76 890.715 120.2 892.467 120.2C894.075 120.2 894.795 121.496 894.795 123.344V131H896.955V122.864C896.955 120.2 895.755 118.28 892.947 118.28C890.907 118.28 889.731 119.576 889.203 120.512C888.651 119.144 887.547 118.28 885.771 118.28C883.515 118.28 882.483 120.008 882.267 120.44V118.568H880.131V131H882.267V123.488ZM900.636 116.072H903.06V113.336H900.636V116.072ZM900.78 131H902.916V118.568H900.78V131ZM906.827 131H908.963V112.808H906.827V131ZM915.946 131.408C915.322 133.16 914.506 133.664 913.09 133.712V135.776H913.354C915.322 135.776 916.714 135.08 917.866 131.816L922.522 118.568H920.29L917.17 127.808L914.05 118.568H911.65L916.09 130.928L915.946 131.408Z" fill="#F1F1F1"/>
<path d="M1281.01 85.872H1287.63V102H1289.94V85.872H1296.56V83.808H1281.01V85.872ZM1301.86 89.28C1298.74 89.28 1296.51 91.656 1296.51 95.688C1296.51 99.864 1298.79 102.288 1302.22 102.288C1305.48 102.288 1306.87 100.104 1307.02 98.712H1304.91C1304.69 99.312 1303.9 100.32 1302.27 100.32C1300.15 100.32 1298.76 98.688 1298.64 96.144H1307.07V95.28C1307.07 91.632 1305.19 89.28 1301.86 89.28ZM1301.86 91.08C1303.75 91.08 1304.76 92.496 1304.95 94.296H1298.74C1299.03 92.352 1300.13 91.08 1301.86 91.08ZM1310.23 102H1312.37V96.096C1312.37 93.408 1313.5 91.944 1316.16 91.944V89.472C1313.86 89.472 1312.73 91.32 1312.37 92.232V89.568H1310.23V102ZM1318.16 89.568V91.392H1320.12V98.256C1320.12 100.896 1321.61 102 1324.28 102H1324.76V99.936C1322.93 99.912 1322.26 99.312 1322.26 97.656V91.392H1324.68V89.568H1322.26V85.44H1320.12V89.568H1318.16ZM1327.83 87.072H1330.26V84.336H1327.83V87.072ZM1327.98 102H1330.11V89.568H1327.98V102ZM1333.23 98.472C1333.23 100.848 1334.96 102.24 1337.36 102.24C1339.49 102.24 1340.65 100.992 1341.15 100.056C1341.34 101.16 1342.23 102 1343.74 102H1344.08V100.008C1343.45 99.912 1343.07 99.528 1343.07 98.664V93.048C1343.07 90.936 1341.58 89.28 1338.41 89.28C1335.03 89.28 1333.78 91.416 1333.78 92.832H1336.01C1336.09 92.232 1336.76 91.128 1338.41 91.128C1340.07 91.128 1340.98 91.968 1340.98 93.096C1340.98 93.936 1340.53 94.344 1339.28 94.512L1337.05 94.8C1334.38 95.16 1333.23 96.528 1333.23 98.472ZM1335.39 98.52C1335.39 97.512 1336.04 96.84 1337.53 96.6L1339.49 96.288C1340.41 96.12 1340.89 95.808 1341.03 95.616V96.84C1341.03 98.904 1339.47 100.344 1337.55 100.344C1336.23 100.344 1335.39 99.6 1335.39 98.52ZM1346.96 102H1349.1V96.096C1349.1 93.408 1350.22 91.944 1352.89 91.944V89.472C1350.58 89.472 1349.46 91.32 1349.1 92.232V89.568H1346.96V102ZM1358.96 102.408C1358.34 104.16 1357.52 104.664 1356.11 104.712V106.776H1356.37C1358.34 106.776 1359.73 106.08 1360.88 102.816L1365.54 89.568H1363.31L1360.19 98.808L1357.07 89.568H1354.67L1359.11 101.928L1358.96 102.408ZM1389.39 97.176H1387.08C1386.68 98.112 1385.52 100.176 1382.33 100.176C1378.61 100.176 1376.19 97.032 1376.19 92.88C1376.19 88.848 1378.42 85.608 1382.14 85.608C1385.5 85.608 1386.75 87.912 1387.08 88.92H1389.44C1389.22 86.712 1387.18 83.448 1382.14 83.448C1377.08 83.448 1373.81 87.288 1373.81 92.88C1373.81 98.544 1377.08 102.36 1382.31 102.36C1387.06 102.36 1389.08 99.192 1389.39 97.176ZM1397.84 89.256C1394.39 89.256 1392.18 91.848 1392.18 95.784C1392.18 99.72 1394.39 102.312 1397.84 102.312C1401.25 102.312 1403.48 99.72 1403.48 95.784C1403.48 91.848 1401.27 89.256 1397.84 89.256ZM1394.39 95.784C1394.39 93.144 1395.63 91.2 1397.84 91.2C1400.03 91.2 1401.27 93.144 1401.27 95.784C1401.27 98.424 1400.03 100.368 1397.84 100.368C1395.63 100.368 1394.39 98.424 1394.39 95.784ZM1406.7 102H1408.84V83.808H1406.7V102ZM1417.72 89.256C1414.26 89.256 1412.05 91.848 1412.05 95.784C1412.05 99.72 1414.26 102.312 1417.72 102.312C1421.13 102.312 1423.36 99.72 1423.36 95.784C1423.36 91.848 1421.15 89.256 1417.72 89.256ZM1414.26 95.784C1414.26 93.144 1415.51 91.2 1417.72 91.2C1419.9 91.2 1421.15 93.144 1421.15 95.784C1421.15 98.424 1419.9 100.368 1417.72 100.368C1415.51 100.368 1414.26 98.424 1414.26 95.784ZM1426.55 102H1428.69V96.096C1428.69 93.408 1429.82 91.944 1432.48 91.944V89.472C1430.18 89.472 1429.05 91.32 1428.69 92.232V89.568H1426.55V102ZM1442.37 98.568C1442.37 99.648 1441.34 100.464 1439.68 100.464C1437.74 100.464 1436.9 99.384 1436.73 98.688H1434.48C1434.67 100.512 1436.35 102.36 1439.68 102.36C1442.76 102.36 1444.56 100.68 1444.56 98.448C1444.56 96.288 1443.31 95.28 1440.6 94.824L1439.01 94.56C1437.6 94.32 1437.02 93.816 1437.02 92.952C1437.02 91.968 1437.91 91.056 1439.54 91.056C1441.22 91.056 1441.99 92.136 1442.08 92.688H1444.2C1444.08 90.984 1442.76 89.208 1439.56 89.208C1436.66 89.208 1434.88 90.912 1434.88 93.024C1434.88 95.016 1435.96 96.24 1438.75 96.696L1440.28 96.936C1441.77 97.176 1442.37 97.608 1442.37 98.568Z" fill="black"/>
<path d="M1297.21 126.176H1294.9C1294.5 127.112 1293.34 129.176 1290.15 129.176C1286.43 129.176 1284.01 126.032 1284.01 121.88C1284.01 117.848 1286.24 114.608 1289.96 114.608C1293.32 114.608 1294.57 116.912 1294.9 117.92H1297.26C1297.04 115.712 1295 112.448 1289.96 112.448C1284.9 112.448 1281.63 116.288 1281.63 121.88C1281.63 127.544 1284.9 131.36 1290.13 131.36C1294.88 131.36 1296.9 128.192 1297.21 126.176ZM1305.66 118.256C1302.21 118.256 1300 120.848 1300 124.784C1300 128.72 1302.21 131.312 1305.66 131.312C1309.07 131.312 1311.3 128.72 1311.3 124.784C1311.3 120.848 1309.09 118.256 1305.66 118.256ZM1302.21 124.784C1302.21 122.144 1303.45 120.2 1305.66 120.2C1307.85 120.2 1309.09 122.144 1309.09 124.784C1309.09 127.424 1307.85 129.368 1305.66 129.368C1303.45 129.368 1302.21 127.424 1302.21 124.784ZM1321.43 127.568C1321.43 128.648 1320.4 129.464 1318.75 129.464C1316.8 129.464 1315.96 128.384 1315.79 127.688H1313.54C1313.73 129.512 1315.41 131.36 1318.75 131.36C1321.82 131.36 1323.62 129.68 1323.62 127.448C1323.62 125.288 1322.37 124.28 1319.66 123.824L1318.07 123.56C1316.66 123.32 1316.08 122.816 1316.08 121.952C1316.08 120.968 1316.97 120.056 1318.6 120.056C1320.28 120.056 1321.05 121.136 1321.15 121.688H1323.26C1323.14 119.984 1321.82 118.208 1318.63 118.208C1315.72 118.208 1313.95 119.912 1313.95 122.024C1313.95 124.016 1315.03 125.24 1317.81 125.696L1319.35 125.936C1320.83 126.176 1321.43 126.608 1321.43 127.568ZM1328.8 123.488C1328.8 121.76 1329.9 120.2 1331.65 120.2C1333.26 120.2 1333.98 121.496 1333.98 123.344V131H1336.14V123.488C1336.14 121.76 1337.25 120.2 1339 120.2C1340.61 120.2 1341.33 121.496 1341.33 123.344V131H1343.49V122.864C1343.49 120.2 1342.29 118.28 1339.48 118.28C1337.44 118.28 1336.26 119.576 1335.73 120.512C1335.18 119.144 1334.08 118.28 1332.3 118.28C1330.05 118.28 1329.01 120.008 1328.8 120.44V118.568H1326.66V131H1328.8V123.488ZM1347.17 116.072H1349.59V113.336H1347.17V116.072ZM1347.31 131H1349.45V118.568H1347.31V131ZM1352.66 124.76C1352.66 128.768 1354.82 131.312 1358.23 131.312C1361.33 131.312 1362.81 129.248 1362.96 127.544H1360.82C1360.68 128.144 1359.96 129.344 1358.23 129.344C1356.14 129.344 1354.87 127.424 1354.87 124.76C1354.87 122.072 1356.07 120.2 1358.16 120.2C1359.96 120.2 1360.68 121.64 1360.82 122.312H1363.01C1362.89 120.32 1361.47 118.256 1358.16 118.256C1354.8 118.256 1352.66 120.776 1352.66 124.76ZM1372.54 131H1384.99V128.912H1374.82V112.808H1372.54V131ZM1387.18 127.472C1387.18 129.848 1388.91 131.24 1391.31 131.24C1393.45 131.24 1394.6 129.992 1395.1 129.056C1395.3 130.16 1396.18 131 1397.7 131H1398.03V129.008C1397.41 128.912 1397.02 128.528 1397.02 127.664V122.048C1397.02 119.936 1395.54 118.28 1392.37 118.28C1388.98 118.28 1387.74 120.416 1387.74 121.832H1389.97C1390.04 121.232 1390.71 120.128 1392.37 120.128C1394.02 120.128 1394.94 120.968 1394.94 122.096C1394.94 122.936 1394.48 123.344 1393.23 123.512L1391 123.8C1388.34 124.16 1387.18 125.528 1387.18 127.472ZM1389.34 127.52C1389.34 126.512 1389.99 125.84 1391.48 125.6L1393.45 125.288C1394.36 125.12 1394.84 124.808 1394.98 124.616V125.84C1394.98 127.904 1393.42 129.344 1391.5 129.344C1390.18 129.344 1389.34 128.6 1389.34 127.52ZM1399.88 118.568V120.392H1401.85V127.256C1401.85 129.896 1403.34 131 1406 131H1406.48V128.936C1404.66 128.912 1403.99 128.312 1403.99 126.656V120.392H1406.41V118.568H1403.99V114.44H1401.85V118.568H1399.88ZM1408.67 118.568V120.392H1410.64V127.256C1410.64 129.896 1412.13 131 1414.79 131H1415.27V128.936C1413.45 128.912 1412.77 128.312 1412.77 126.656V120.392H1415.2V118.568H1412.77V114.44H1410.64V118.568H1408.67ZM1423.03 118.28C1419.91 118.28 1417.68 120.656 1417.68 124.688C1417.68 128.864 1419.96 131.288 1423.39 131.288C1426.65 131.288 1428.05 129.104 1428.19 127.712H1426.08C1425.86 128.312 1425.07 129.32 1423.44 129.32C1421.33 129.32 1419.93 127.688 1419.81 125.144H1428.24V124.28C1428.24 120.632 1426.37 118.28 1423.03 118.28ZM1423.03 120.08C1424.93 120.08 1425.93 121.496 1426.13 123.296H1419.91C1420.2 121.352 1421.3 120.08 1423.03 120.08ZM1437.76 131H1440.04V122.792H1449.4V120.656H1440.04V114.872H1450.22V112.808H1437.76V131ZM1452.29 127.472C1452.29 129.848 1454.02 131.24 1456.42 131.24C1458.56 131.24 1459.71 129.992 1460.21 129.056C1460.41 130.16 1461.29 131 1462.81 131H1463.14V129.008C1462.52 128.912 1462.13 128.528 1462.13 127.664V122.048C1462.13 119.936 1460.65 118.28 1457.48 118.28C1454.09 118.28 1452.85 120.416 1452.85 121.832H1455.08C1455.15 121.232 1455.82 120.128 1457.48 120.128C1459.13 120.128 1460.05 120.968 1460.05 122.096C1460.05 122.936 1459.59 123.344 1458.34 123.512L1456.11 123.8C1453.45 124.16 1452.29 125.528 1452.29 127.472ZM1454.45 127.52C1454.45 126.512 1455.1 125.84 1456.59 125.6L1458.56 125.288C1459.47 125.12 1459.95 124.808 1460.09 124.616V125.84C1460.09 127.904 1458.53 129.344 1456.61 129.344C1455.29 129.344 1454.45 128.6 1454.45 127.52ZM1468.16 123.488C1468.16 121.76 1469.26 120.2 1471.01 120.2C1472.62 120.2 1473.34 121.496 1473.34 123.344V131H1475.5V123.488C1475.5 121.76 1476.61 120.2 1478.36 120.2C1479.97 120.2 1480.69 121.496 1480.69 123.344V131H1482.85V122.864C1482.85 120.2 1481.65 118.28 1478.84 118.28C1476.8 118.28 1475.62 119.576 1475.09 120.512C1474.54 119.144 1473.44 118.28 1471.66 118.28C1469.41 118.28 1468.37 120.008 1468.16 120.44V118.568H1466.02V131H1468.16V123.488ZM1486.53 116.072H1488.95V113.336H1486.53V116.072ZM1486.67 131H1488.81V118.568H1486.67V131ZM1492.72 131H1494.85V112.808H1492.72V131ZM1501.84 131.408C1501.21 133.16 1500.4 133.664 1498.98 133.712V135.776H1499.24C1501.21 135.776 1502.6 135.08 1503.76 131.816L1508.41 118.568H1506.18L1503.06 127.808L1499.94 118.568H1497.54L1501.98 130.928L1501.84 131.408Z" fill="#F1F1F1"/>
<rect x="180" y="259" width="100" height="100" transform="rotate(-180 180 259)" fill="black"/>
<rect x="280" y="259" width="100" height="100" transform="rotate(-180 280 259)" fill="white"/>
<rect width="100" height="100" transform="matrix(1 -8.74228e-08 -8.74228e-08 -1 980 359)" fill="#731AFF"/>
<rect x="1480" y="259" width="100" height="100" transform="rotate(-180 1480 259)" fill="#E5DBC5"/>
<rect width="100" height="100" transform="matrix(1 -8.74228e-08 -8.74228e-08 -1 1080 359)" fill="#6300FF"/>
<rect x="1380" y="259" width="100" height="100" transform="rotate(-180 1380 259)" fill="#FFF8E8"/>
<rect x="680" y="359" width="100" height="100" fill="#5A00E6"/>
<rect x="780" y="359" width="100" height="100" fill="#5000CC"/>
<rect x="880" y="359" width="100" height="100" fill="#4600B3"/>
<rect x="980" y="359" width="100" height="100" fill="#3C0099"/>
<rect x="1080" y="359" width="100" height="100" fill="#320080"/>
<rect x="680" y="459" width="100" height="100" fill="#280066"/>
<rect x="780" y="459" width="100" height="100" fill="#1E004D"/>
<rect x="880" y="459" width="100" height="100" fill="#140033"/>
<rect x="980" y="459" width="100" height="100" fill="#0A001A"/>
<rect x="1080" y="459" width="100" height="100" fill="black"/>
<rect width="100" height="100" transform="matrix(1 -8.74228e-08 -8.74228e-08 -1 780 359)" fill="#924DFF"/>
<rect x="1680" y="259" width="100" height="100" transform="rotate(-180 1680 259)" fill="#B3A688"/>
<rect width="100" height="100" transform="matrix(1 -8.74228e-08 -8.74228e-08 -1 880 359)" fill="#8333FF"/>
<rect x="1580" y="259" width="100" height="100" transform="rotate(-180 1580 259)" fill="#CCC0A5"/>
<rect width="100" height="100" transform="matrix(1 -8.74228e-08 -8.74228e-08 -1 1080 259)" fill="#B180FF"/>
<rect x="1380" y="359" width="100" height="100" transform="rotate(-180 1380 359)" fill="#807354"/>
<rect width="100" height="100" transform="matrix(1 -8.74228e-08 -8.74228e-08 -1 680 359)" fill="#A266FF"/>
<rect x="1780" y="259" width="100" height="100" transform="rotate(-180 1780 259)" fill="#998C6D"/>
<rect width="100" height="100" transform="matrix(1 -8.74228e-08 -8.74228e-08 -1 980 259)" fill="#C199FF"/>
<rect x="1480" y="359" width="100" height="100" transform="rotate(-180 1480 359)" fill="#665A3E"/>
<rect x="1580" y="359" width="100" height="100" transform="rotate(-180 1580 359)" fill="#C199FF"/>
<rect width="100" height="100" transform="matrix(1 -8.74228e-08 -8.74228e-08 -1 880 259)" fill="#D0B3FF"/>
<rect x="1580" y="359" width="100" height="100" transform="rotate(-180 1580 359)" fill="#4D432B"/>
<rect width="100" height="100" transform="matrix(1 -8.74228e-08 -8.74228e-08 -1 680 259)" fill="#EFE6FF"/>
<rect x="1780" y="359" width="100" height="100" transform="rotate(-180 1780 359)" fill="#19150B"/>
<rect width="100" height="100" transform="matrix(1 -8.74228e-08 -8.74228e-08 -1 780 259)" fill="#E0CCFF"/>
<rect x="1680" y="359" width="100" height="100" transform="rotate(-180 1680 359)" fill="#332C1A"/>
<path d="M580 159L580 259L280 259L280 159L580 159Z" fill="url(#paint0_linear_4_839)"/>
<circle cx="130.5" cy="208.5" r="7.5" fill="white"/>
<circle cx="229.5" cy="208.5" r="7.5" fill="black"/>
<circle cx="1129.5" cy="308.5" r="7.5" fill="white"/>
<circle cx="1329.5" cy="208.5" r="7.5" fill="black"/>
<defs>
<linearGradient id="paint0_linear_4_839" x1="580" y1="209" x2="280" y2="209" gradientUnits="userSpaceOnUse">
<stop/>
<stop offset="1" stop-opacity="0"/>
</linearGradient>
</defs>
</svg>
