<svg width="1920" height="1253" viewBox="0 0 1920 1253" fill="none" xmlns="http://www.w3.org/2000/svg">
<rect width="1920" height="1253" fill="#F1F1F1"/>
<rect width="500" height="500" transform="translate(262 592)" fill="white"/>
<line x1="263" y1="592" x2="263" y2="1092" stroke="#F1F1F1" stroke-width="2"/>
<line x1="363" y1="592" x2="363" y2="1092" stroke="#F1F1F1" stroke-width="2"/>
<line x1="463" y1="592" x2="463" y2="1092" stroke="#F1F1F1" stroke-width="2"/>
<line x1="563" y1="592" x2="563" y2="1092" stroke="#F1F1F1" stroke-width="2"/>
<line x1="663" y1="592" x2="663" y2="1092" stroke="#F1F1F1" stroke-width="2"/>
<line x1="763" y1="592" x2="763" y2="1092" stroke="#F1F1F1" stroke-width="2"/>
<line x1="762" y1="593" x2="262" y2="593" stroke="#F1F1F1" stroke-width="2"/>
<line x1="762" y1="693" x2="262" y2="693" stroke="#F1F1F1" stroke-width="2"/>
<line x1="762" y1="793" x2="262" y2="793" stroke="#F1F1F1" stroke-width="2"/>
<line x1="762" y1="893" x2="262" y2="893" stroke="#F1F1F1" stroke-width="2"/>
<line x1="762" y1="993" x2="262" y2="993" stroke="#F1F1F1" stroke-width="2"/>
<line x1="762" y1="1093" x2="262" y2="1093" stroke="#F1F1F1" stroke-width="2"/>
<rect x="762" y="1092" width="100" height="100" transform="rotate(-180 762 1092)" fill="#E0CCFF"/>
<rect x="762" y="992" width="100" height="100" transform="rotate(-180 762 992)" fill="#C199FF"/>
<rect x="762" y="892" width="100" height="100" transform="rotate(-180 762 892)" fill="#A266FF"/>
<rect x="762" y="792" width="100" height="100" transform="rotate(-180 762 792)" fill="#8333FF"/>
<rect x="362" y="692" width="100" height="100" transform="rotate(-180 362 692)" fill="#140033"/>
<rect x="462" y="692" width="100" height="100" transform="rotate(-180 462 692)" fill="#280066"/>
<rect x="562" y="692" width="100" height="100" transform="rotate(-180 562 692)" fill="#3C0099"/>
<rect x="662" y="692" width="100" height="100" transform="rotate(-180 662 692)" fill="#5000CC"/>
<rect x="762" y="692" width="100" height="100" transform="rotate(-180 762 692)" fill="#6300FF"/>
<path d="M268.318 1129.25C271.612 1129.25 273.286 1126.28 273.286 1122.18C273.286 1118.06 271.63 1115.1 268.318 1115.1C265.006 1115.1 263.35 1118.06 263.35 1122.18C263.35 1126.28 265.024 1129.25 268.318 1129.25ZM268.318 1116.67C270.532 1116.67 271.558 1119.06 271.558 1122.18C271.558 1125.29 270.532 1127.69 268.318 1127.69C266.104 1127.69 265.078 1125.29 265.078 1122.18C265.078 1119.06 266.104 1116.67 268.318 1116.67ZM285.367 1129H291.829C294.565 1129 296.239 1127.6 296.239 1125.11C296.239 1123.2 295.267 1122.05 293.827 1121.67C294.853 1121.26 295.717 1120.36 295.717 1118.88C295.717 1116.67 294.331 1115.36 291.613 1115.36H285.367V1129ZM291.343 1121.19H287.077V1116.87H291.343C292.945 1116.87 293.899 1117.53 293.899 1119.03C293.899 1120.41 292.891 1121.19 291.343 1121.19ZM291.559 1122.72C293.377 1122.72 294.403 1123.51 294.403 1125.08C294.403 1126.62 293.341 1127.47 291.559 1127.47H287.077V1122.72H291.559ZM298.684 1129H300.286V1124.57C300.286 1122.56 301.132 1121.46 303.13 1121.46V1119.6C301.402 1119.6 300.556 1120.99 300.286 1121.67V1119.68H298.684V1129ZM305.256 1117.8H307.074V1115.75H305.256V1117.8ZM305.364 1129H306.966V1119.68H305.364V1129ZM316.002 1127.16V1128.82C316.002 1130.35 315.12 1131.39 313.518 1131.39C312.096 1131.39 311.574 1130.62 311.484 1130.24H309.72C309.774 1131.21 310.782 1132.87 313.518 1132.87C316.254 1132.87 317.604 1131.23 317.604 1128.89V1119.68H316.002V1121.22C315.804 1120.72 315.03 1119.46 313.23 1119.46C311.052 1119.46 309.396 1121.22 309.396 1124.23C309.396 1127.29 311.088 1129.04 313.248 1129.04C315.03 1129.04 315.786 1127.7 316.002 1127.16ZM313.5 1120.92C315.012 1120.92 316.038 1122.34 316.038 1124.21C316.038 1126.16 314.994 1127.56 313.482 1127.56C312.06 1127.56 311.07 1126.17 311.07 1124.23C311.07 1122.25 312.06 1120.92 313.5 1120.92ZM320.481 1129H322.083V1123.46C322.083 1122.16 322.947 1120.92 324.351 1120.92C325.629 1120.92 326.331 1121.89 326.331 1123.35V1129H327.933V1123.02C327.933 1120.92 326.853 1119.46 324.873 1119.46C322.947 1119.46 322.209 1120.88 322.083 1121.15V1115.36H320.481V1129ZM329.939 1119.68V1121.04H331.415V1126.19C331.415 1128.17 332.531 1129 334.529 1129H334.889V1127.45C333.521 1127.43 333.017 1126.98 333.017 1125.74V1121.04H334.835V1119.68H333.017V1116.58H331.415V1119.68H329.939ZM337.286 1129H338.888V1123.46C338.888 1122.16 339.752 1120.92 341.156 1120.92C342.434 1120.92 343.136 1121.89 343.136 1123.35V1129H344.738V1123.02C344.738 1120.92 343.658 1119.46 341.678 1119.46C339.752 1119.46 339.014 1120.88 338.888 1121.15V1119.68H337.286V1129ZM351.097 1119.46C348.757 1119.46 347.083 1121.24 347.083 1124.27C347.083 1127.4 348.793 1129.22 351.367 1129.22C353.815 1129.22 354.859 1127.58 354.967 1126.53H353.383C353.221 1126.98 352.627 1127.74 351.403 1127.74C349.819 1127.74 348.775 1126.52 348.685 1124.61H355.003V1123.96C355.003 1121.22 353.599 1119.46 351.097 1119.46ZM351.097 1120.81C352.519 1120.81 353.275 1121.87 353.419 1123.22H348.757C348.973 1121.76 349.801 1120.81 351.097 1120.81ZM362.58 1126.43C362.58 1127.24 361.806 1127.85 360.563 1127.85C359.106 1127.85 358.476 1127.04 358.35 1126.52H356.658C356.802 1127.88 358.062 1129.27 360.563 1129.27C362.868 1129.27 364.218 1128.01 364.218 1126.34C364.218 1124.72 363.282 1123.96 361.248 1123.62L360.06 1123.42C358.998 1123.24 358.566 1122.86 358.566 1122.21C358.566 1121.48 359.232 1120.79 360.456 1120.79C361.716 1120.79 362.292 1121.6 362.364 1122.02H363.948C363.858 1120.74 362.868 1119.41 360.474 1119.41C358.296 1119.41 356.964 1120.68 356.964 1122.27C356.964 1123.76 357.774 1124.68 359.862 1125.02L361.014 1125.2C362.13 1125.38 362.58 1125.71 362.58 1126.43ZM371.703 1126.43C371.703 1127.24 370.929 1127.85 369.687 1127.85C368.229 1127.85 367.599 1127.04 367.473 1126.52H365.781C365.925 1127.88 367.185 1129.27 369.687 1129.27C371.991 1129.27 373.341 1128.01 373.341 1126.34C373.341 1124.72 372.405 1123.96 370.371 1123.62L369.183 1123.42C368.121 1123.24 367.689 1122.86 367.689 1122.21C367.689 1121.48 368.355 1120.79 369.579 1120.79C370.839 1120.79 371.415 1121.6 371.487 1122.02H373.071C372.981 1120.74 371.991 1119.41 369.597 1119.41C367.419 1119.41 366.087 1120.68 366.087 1122.27C366.087 1123.76 366.897 1124.68 368.985 1125.02L370.137 1125.2C371.253 1125.38 371.703 1125.71 371.703 1126.43Z" fill="#F1F1F1"/>
<path d="M746.009 1119.46H748.079V1129H749.753V1115.36H748.439C748.385 1116.42 748.223 1117.21 747.845 1117.59C747.503 1117.93 746.981 1118.04 746.009 1118.04V1119.46ZM757.931 1129.25C761.225 1129.25 762.899 1126.28 762.899 1122.18C762.899 1118.06 761.243 1115.1 757.931 1115.1C754.619 1115.1 752.963 1118.06 752.963 1122.18C752.963 1126.28 754.637 1129.25 757.931 1129.25ZM757.931 1116.67C760.145 1116.67 761.171 1119.06 761.171 1122.18C761.171 1125.29 760.145 1127.69 757.931 1127.69C755.717 1127.69 754.691 1125.29 754.691 1122.18C754.691 1119.06 755.717 1116.67 757.931 1116.67ZM770.57 1129.25C773.864 1129.25 775.538 1126.28 775.538 1122.18C775.538 1118.06 773.882 1115.1 770.57 1115.1C767.258 1115.1 765.602 1118.06 765.602 1122.18C765.602 1126.28 767.276 1129.25 770.57 1129.25ZM770.57 1116.67C772.784 1116.67 773.81 1119.06 773.81 1122.18C773.81 1125.29 772.784 1127.69 770.57 1127.69C768.356 1127.69 767.33 1125.29 767.33 1122.18C767.33 1119.06 768.356 1116.67 770.57 1116.67Z" fill="#F1F1F1"/>
<path d="M229.79 1086.82L230.186 1084.66C230.474 1083.07 230.996 1082.23 232.256 1082.23C233.624 1082.23 234.704 1083.58 234.704 1085.56C234.704 1088.29 233.156 1089.28 232.454 1089.43L232.454 1091.26C233.876 1091.15 236.288 1089.64 236.288 1085.56C236.288 1082.3 234.416 1080.48 232.202 1080.48C229.934 1080.48 228.98 1081.72 228.458 1084.44L228.044 1086.58C227.738 1088.17 227.162 1088.99 226.028 1088.99C224.786 1088.99 223.616 1087.86 223.616 1085.83C223.616 1083.7 224.93 1082.78 225.596 1082.62L225.596 1080.88C224.21 1081 222.068 1082.26 222.068 1085.83C222.068 1088.96 223.886 1090.74 226.064 1090.74C228.08 1090.74 229.286 1089.59 229.79 1086.82ZM233.354 1078.48C235.136 1078.48 236.18 1077.18 236.18 1075.38C236.18 1073.78 235.244 1072.92 234.542 1072.54C235.37 1072.4 236 1071.73 236 1070.6L236 1070.34L234.506 1070.34C234.434 1070.81 234.146 1071.1 233.498 1071.1L229.286 1071.1C227.702 1071.1 226.46 1072.22 226.46 1074.59C226.46 1077.13 228.062 1078.07 229.124 1078.07L229.124 1076.39C228.674 1076.34 227.846 1075.83 227.846 1074.59C227.846 1073.35 228.476 1072.67 229.322 1072.67C229.952 1072.67 230.258 1073.01 230.384 1073.94L230.6 1075.62C230.87 1077.62 231.896 1078.48 233.354 1078.48ZM233.39 1076.86C232.634 1076.86 232.13 1076.37 231.95 1075.26L231.716 1073.78C231.59 1073.1 231.356 1072.74 231.212 1072.63L232.13 1072.63C233.678 1072.63 234.758 1073.8 234.758 1075.24C234.758 1076.23 234.2 1076.86 233.39 1076.86ZM226.676 1068.96L228.044 1068.96L228.044 1067.48L233.192 1067.48C235.172 1067.48 236 1066.36 236 1064.37L236 1064.01L234.452 1064.01C234.434 1065.37 233.984 1065.88 232.742 1065.88L228.044 1065.88L228.044 1064.06L226.676 1064.06L226.676 1065.88L223.58 1065.88L223.58 1067.48L226.676 1067.48L226.676 1068.96ZM226.676 1054.32L226.676 1055.92L232.292 1055.92C233.624 1055.92 234.758 1056.86 234.758 1058.15C234.758 1059.43 233.84 1060.04 232.436 1060.04L226.676 1060.04L226.676 1061.66L232.832 1061.66C234.776 1061.66 236.198 1060.62 236.198 1058.66C236.198 1056.87 234.902 1056.14 234.56 1055.92L236 1055.92L236 1054.32L226.676 1054.32ZM236 1051.41L236 1049.81L231.572 1049.81C229.556 1049.81 228.458 1048.97 228.458 1046.97L226.604 1046.97C226.604 1048.7 227.99 1049.54 228.674 1049.81L226.676 1049.81L226.676 1051.41L236 1051.41ZM233.354 1045.47C235.136 1045.47 236.18 1044.17 236.18 1042.37C236.18 1040.77 235.244 1039.91 234.542 1039.53C235.37 1039.38 236 1038.72 236 1037.58L236 1037.33L234.506 1037.33C234.434 1037.8 234.146 1038.09 233.498 1038.09L229.286 1038.09C227.702 1038.09 226.46 1039.2 226.46 1041.58C226.46 1044.12 228.062 1045.05 229.124 1045.05L229.124 1043.38C228.674 1043.33 227.846 1042.82 227.846 1041.58C227.846 1040.34 228.476 1039.65 229.322 1039.65C229.952 1039.65 230.258 1040 230.384 1040.93L230.6 1042.61C230.87 1044.6 231.896 1045.47 233.354 1045.47ZM233.39 1043.85C232.634 1043.85 232.13 1043.36 231.95 1042.25L231.716 1040.77C231.59 1040.09 231.356 1039.73 231.212 1039.62L232.13 1039.62C233.678 1039.62 234.758 1040.79 234.758 1042.23C234.758 1043.22 234.2 1043.85 233.39 1043.85ZM226.676 1035.94L228.044 1035.94L228.044 1034.47L233.192 1034.47C235.172 1034.47 236 1033.35 236 1031.35L236 1030.99L234.452 1030.99C234.434 1032.36 233.984 1032.87 232.742 1032.87L228.044 1032.87L228.044 1031.05L226.676 1031.05L226.676 1032.87L223.58 1032.87L223.58 1034.47L226.676 1034.47L226.676 1035.94ZM224.804 1028.69L224.804 1026.87L222.752 1026.87L222.752 1028.69L224.804 1028.69ZM236 1028.58L236 1026.98L226.676 1026.98L226.676 1028.58L236 1028.58ZM226.442 1020.32C226.442 1022.91 228.386 1024.57 231.338 1024.57C234.29 1024.57 236.234 1022.91 236.234 1020.32C236.234 1017.76 234.29 1016.09 231.338 1016.09C228.386 1016.09 226.442 1017.74 226.442 1020.32ZM231.338 1022.91C229.358 1022.91 227.9 1021.97 227.9 1020.32C227.9 1018.68 229.358 1017.74 231.338 1017.74C233.318 1017.74 234.776 1018.68 234.776 1020.32C234.776 1021.97 233.318 1022.91 231.338 1022.91ZM236 1013.69L236 1012.09L230.456 1012.09C229.16 1012.09 227.918 1011.22 227.918 1009.82C227.918 1008.54 228.89 1007.84 230.348 1007.84L236 1007.84L236 1006.24L230.024 1006.24C227.918 1006.24 226.46 1007.32 226.46 1009.3C226.46 1011.22 227.882 1011.96 228.152 1012.09L226.676 1012.09L226.676 1013.69L236 1013.69Z" fill="#F1F1F1"/>
<path d="M226.46 607.991L226.46 605.921L236 605.921L236 604.247L222.356 604.247L222.356 605.561C223.418 605.615 224.21 605.777 224.588 606.155C224.93 606.497 225.038 607.019 225.038 607.991L226.46 607.991ZM236.252 596.069C236.252 592.775 233.282 591.101 229.178 591.101C225.056 591.101 222.104 592.757 222.104 596.069C222.104 599.381 225.056 601.037 229.178 601.037C233.282 601.037 236.252 599.363 236.252 596.069ZM223.67 596.069C223.67 593.855 226.064 592.829 229.178 592.829C232.292 592.829 234.686 593.855 234.686 596.069C234.686 598.283 232.292 599.309 229.178 599.309C226.064 599.309 223.67 598.283 223.67 596.069ZM236.252 583.43C236.252 580.136 233.282 578.462 229.178 578.462C225.056 578.462 222.104 580.118 222.104 583.43C222.104 586.742 225.056 588.398 229.178 588.398C233.282 588.398 236.252 586.724 236.252 583.43ZM223.67 583.43C223.67 581.216 226.064 580.19 229.178 580.19C232.292 580.19 234.686 581.216 234.686 583.43C234.686 585.644 232.292 586.67 229.178 586.67C226.064 586.67 223.67 585.644 223.67 583.43Z" fill="#F1F1F1"/>
<path d="M262.707 571.293C262.317 570.902 261.683 570.902 261.293 571.293L254.929 577.657C254.538 578.047 254.538 578.681 254.929 579.071C255.319 579.462 255.953 579.462 256.343 579.071L262 573.414L267.657 579.071C268.047 579.462 268.681 579.462 269.071 579.071C269.462 578.681 269.462 578.047 269.071 577.657L262.707 571.293ZM263 1092L263 572L261 572L261 1092L263 1092Z" fill="#F1F1F1"/>
<path d="M782.707 1092.71C783.098 1092.32 783.098 1091.68 782.707 1091.29L776.343 1084.93C775.953 1084.54 775.319 1084.54 774.929 1084.93C774.538 1085.32 774.538 1085.95 774.929 1086.34L780.586 1092L774.929 1097.66C774.538 1098.05 774.538 1098.68 774.929 1099.07C775.319 1099.46 775.953 1099.46 776.343 1099.07L782.707 1092.71ZM262 1093H782V1091H262V1093Z" fill="#F1F1F1"/>
<circle cx="712" cy="642" r="7.5" fill="white"/>
<rect width="1000" height="200" transform="translate(262 174)" fill="white"/>
<rect x="462" y="374" width="200" height="200" transform="rotate(-180 462 374)" fill="black"/>
<mask id="path-30-inside-1_4_617" fill="white">
<path d="M462 374L462 174L1062 174L1062 374L462 374Z"/>
</mask>
<path d="M462 374L462 174L1062 174L1062 374L462 374Z" fill="url(#paint0_linear_4_617)"/>
<path d="M464 374L464 174L460 174L460 374L464 374ZM1060 174L1060 374L1064 374L1064 174L1060 174Z" fill="#F1F1F1" mask="url(#path-30-inside-1_4_617)"/>
<rect x="1262" y="374" width="200" height="200" transform="rotate(-180 1262 374)" fill="white"/>
<path d="M268.318 410.002C271.612 410.002 273.286 407.032 273.286 402.928C273.286 398.806 271.63 395.854 268.318 395.854C265.006 395.854 263.35 398.806 263.35 402.928C263.35 407.032 265.024 410.002 268.318 410.002ZM268.318 397.42C270.532 397.42 271.558 399.814 271.558 402.928C271.558 406.042 270.532 408.436 268.318 408.436C266.104 408.436 265.078 406.042 265.078 402.928C265.078 399.814 266.104 397.42 268.318 397.42ZM285.367 409.75H291.829C294.565 409.75 296.239 408.346 296.239 405.862C296.239 403.954 295.267 402.802 293.827 402.424C294.853 402.01 295.717 401.11 295.717 399.634C295.717 397.42 294.331 396.106 291.613 396.106H285.367V409.75ZM291.343 401.938H287.077V397.618H291.343C292.945 397.618 293.899 398.284 293.899 399.778C293.899 401.164 292.891 401.938 291.343 401.938ZM291.559 403.468C293.377 403.468 294.403 404.26 294.403 405.826C294.403 407.374 293.341 408.22 291.559 408.22H287.077V403.468H291.559ZM298.684 409.75H300.286V405.322C300.286 403.306 301.132 402.208 303.13 402.208V400.354C301.402 400.354 300.556 401.74 300.286 402.424V400.426H298.684V409.75ZM305.256 398.554H307.074V396.502H305.256V398.554ZM305.364 409.75H306.966V400.426H305.364V409.75ZM316.002 407.914V409.57C316.002 411.1 315.12 412.144 313.518 412.144C312.096 412.144 311.574 411.37 311.484 410.992H309.72C309.774 411.964 310.782 413.62 313.518 413.62C316.254 413.62 317.604 411.982 317.604 409.642V400.426H316.002V401.974C315.804 401.47 315.03 400.21 313.23 400.21C311.052 400.21 309.396 401.974 309.396 404.98C309.396 408.04 311.088 409.786 313.248 409.786C315.03 409.786 315.786 408.454 316.002 407.914ZM313.5 401.668C315.012 401.668 316.038 403.09 316.038 404.962C316.038 406.906 314.994 408.31 313.482 408.31C312.06 408.31 311.07 406.924 311.07 404.98C311.07 403 312.06 401.668 313.5 401.668ZM320.481 409.75H322.083V404.206C322.083 402.91 322.947 401.668 324.351 401.668C325.629 401.668 326.331 402.64 326.331 404.098V409.75H327.933V403.774C327.933 401.668 326.853 400.21 324.873 400.21C322.947 400.21 322.209 401.632 322.083 401.902V396.106H320.481V409.75ZM329.939 400.426V401.794H331.415V406.942C331.415 408.922 332.531 409.75 334.529 409.75H334.889V408.202C333.521 408.184 333.017 407.734 333.017 406.492V401.794H334.835V400.426H333.017V397.33H331.415V400.426H329.939ZM337.286 409.75H338.888V404.206C338.888 402.91 339.752 401.668 341.156 401.668C342.434 401.668 343.136 402.64 343.136 404.098V409.75H344.738V403.774C344.738 401.668 343.658 400.21 341.678 400.21C339.752 400.21 339.014 401.632 338.888 401.902V400.426H337.286V409.75ZM351.097 400.21C348.757 400.21 347.083 401.992 347.083 405.016C347.083 408.148 348.793 409.966 351.367 409.966C353.815 409.966 354.859 408.328 354.967 407.284H353.383C353.221 407.734 352.627 408.49 351.403 408.49C349.819 408.49 348.775 407.266 348.685 405.358H355.003V404.71C355.003 401.974 353.599 400.21 351.097 400.21ZM351.097 401.56C352.519 401.56 353.275 402.622 353.419 403.972H348.757C348.973 402.514 349.801 401.56 351.097 401.56ZM362.58 407.176C362.58 407.986 361.806 408.598 360.563 408.598C359.106 408.598 358.476 407.788 358.35 407.266H356.658C356.802 408.634 358.062 410.02 360.563 410.02C362.868 410.02 364.218 408.76 364.218 407.086C364.218 405.466 363.282 404.71 361.248 404.368L360.06 404.17C358.998 403.99 358.566 403.612 358.566 402.964C358.566 402.226 359.232 401.542 360.456 401.542C361.716 401.542 362.292 402.352 362.364 402.766H363.948C363.858 401.488 362.868 400.156 360.474 400.156C358.296 400.156 356.964 401.434 356.964 403.018C356.964 404.512 357.774 405.43 359.862 405.772L361.014 405.952C362.13 406.132 362.58 406.456 362.58 407.176ZM371.703 407.176C371.703 407.986 370.929 408.598 369.687 408.598C368.229 408.598 367.599 407.788 367.473 407.266H365.781C365.925 408.634 367.185 410.02 369.687 410.02C371.991 410.02 373.341 408.76 373.341 407.086C373.341 405.466 372.405 404.71 370.371 404.368L369.183 404.17C368.121 403.99 367.689 403.612 367.689 402.964C367.689 402.226 368.355 401.542 369.579 401.542C370.839 401.542 371.415 402.352 371.487 402.766H373.071C372.981 401.488 371.991 400.156 369.597 400.156C367.419 400.156 366.087 401.434 366.087 403.018C366.087 404.512 366.897 405.43 368.985 405.772L370.137 405.952C371.253 406.132 371.703 406.456 371.703 407.176Z" fill="#F1F1F1"/>
<path d="M1247.01 400.21H1249.08V409.75H1250.75V396.106H1249.44C1249.39 397.168 1249.22 397.96 1248.85 398.338C1248.5 398.68 1247.98 398.788 1247.01 398.788V400.21ZM1258.93 410.002C1262.23 410.002 1263.9 407.032 1263.9 402.928C1263.9 398.806 1262.24 395.854 1258.93 395.854C1255.62 395.854 1253.96 398.806 1253.96 402.928C1253.96 407.032 1255.64 410.002 1258.93 410.002ZM1258.93 397.42C1261.15 397.42 1262.17 399.814 1262.17 402.928C1262.17 406.042 1261.15 408.436 1258.93 408.436C1256.72 408.436 1255.69 406.042 1255.69 402.928C1255.69 399.814 1256.72 397.42 1258.93 397.42ZM1271.57 410.002C1274.86 410.002 1276.54 407.032 1276.54 402.928C1276.54 398.806 1274.88 395.854 1271.57 395.854C1268.26 395.854 1266.6 398.806 1266.6 402.928C1266.6 407.032 1268.28 410.002 1271.57 410.002ZM1271.57 397.42C1273.78 397.42 1274.81 399.814 1274.81 402.928C1274.81 406.042 1273.78 408.436 1271.57 408.436C1269.36 408.436 1268.33 406.042 1268.33 402.928C1268.33 399.814 1269.36 397.42 1271.57 397.42Z" fill="#F1F1F1"/>
<path d="M1282.71 374.707C1283.1 374.317 1283.1 373.683 1282.71 373.293L1276.34 366.929C1275.95 366.538 1275.32 366.538 1274.93 366.929C1274.54 367.319 1274.54 367.953 1274.93 368.343L1280.59 374L1274.93 379.657C1274.54 380.047 1274.54 380.681 1274.93 381.071C1275.32 381.462 1275.95 381.462 1276.34 381.071L1282.71 374.707ZM262 375H1282V373H262V375Z" fill="#F1F1F1"/>
<circle cx="362" cy="274" r="7.5" fill="white"/>
<circle cx="1162" cy="274" r="7.5" fill="black"/>
<rect width="500" height="500" transform="translate(1083 592)" fill="white"/>
<line x1="1084" y1="592" x2="1084" y2="1092" stroke="#F1F1F1" stroke-width="2"/>
<line x1="1184" y1="592" x2="1184" y2="1092" stroke="#F1F1F1" stroke-width="2"/>
<line x1="1284" y1="592" x2="1284" y2="1092" stroke="#F1F1F1" stroke-width="2"/>
<line x1="1384" y1="592" x2="1384" y2="1092" stroke="#F1F1F1" stroke-width="2"/>
<line x1="1484" y1="592" x2="1484" y2="1092" stroke="#F1F1F1" stroke-width="2"/>
<line x1="1584" y1="592" x2="1584" y2="1092" stroke="#F1F1F1" stroke-width="2"/>
<line x1="1583" y1="593" x2="1083" y2="593" stroke="#F1F1F1" stroke-width="2"/>
<line x1="1583" y1="693" x2="1083" y2="693" stroke="#F1F1F1" stroke-width="2"/>
<line x1="1583" y1="793" x2="1083" y2="793" stroke="#F1F1F1" stroke-width="2"/>
<line x1="1583" y1="893" x2="1083" y2="893" stroke="#F1F1F1" stroke-width="2"/>
<line x1="1583" y1="993" x2="1083" y2="993" stroke="#F1F1F1" stroke-width="2"/>
<line x1="1583" y1="1093" x2="1083" y2="1093" stroke="#F1F1F1" stroke-width="2"/>
<path d="M1089.32 1129.25C1092.61 1129.25 1094.29 1126.28 1094.29 1122.18C1094.29 1118.06 1092.63 1115.1 1089.32 1115.1C1086.01 1115.1 1084.35 1118.06 1084.35 1122.18C1084.35 1126.28 1086.02 1129.25 1089.32 1129.25ZM1089.32 1116.67C1091.53 1116.67 1092.56 1119.06 1092.56 1122.18C1092.56 1125.29 1091.53 1127.69 1089.32 1127.69C1087.1 1127.69 1086.08 1125.29 1086.08 1122.18C1086.08 1119.06 1087.1 1116.67 1089.32 1116.67ZM1106.37 1129H1112.83C1115.56 1129 1117.24 1127.6 1117.24 1125.11C1117.24 1123.2 1116.27 1122.05 1114.83 1121.67C1115.85 1121.26 1116.72 1120.36 1116.72 1118.88C1116.72 1116.67 1115.33 1115.36 1112.61 1115.36H1106.37V1129ZM1112.34 1121.19H1108.08V1116.87H1112.34C1113.94 1116.87 1114.9 1117.53 1114.9 1119.03C1114.9 1120.41 1113.89 1121.19 1112.34 1121.19ZM1112.56 1122.72C1114.38 1122.72 1115.4 1123.51 1115.4 1125.08C1115.4 1126.62 1114.34 1127.47 1112.56 1127.47H1108.08V1122.72H1112.56ZM1119.68 1129H1121.29V1124.57C1121.29 1122.56 1122.13 1121.46 1124.13 1121.46V1119.6C1122.4 1119.6 1121.56 1120.99 1121.29 1121.67V1119.68H1119.68V1129ZM1126.26 1117.8H1128.07V1115.75H1126.26V1117.8ZM1126.36 1129H1127.97V1119.68H1126.36V1129ZM1137 1127.16V1128.82C1137 1130.35 1136.12 1131.39 1134.52 1131.39C1133.1 1131.39 1132.57 1130.62 1132.48 1130.24H1130.72C1130.77 1131.21 1131.78 1132.87 1134.52 1132.87C1137.25 1132.87 1138.6 1131.23 1138.6 1128.89V1119.68H1137V1121.22C1136.8 1120.72 1136.03 1119.46 1134.23 1119.46C1132.05 1119.46 1130.4 1121.22 1130.4 1124.23C1130.4 1127.29 1132.09 1129.04 1134.25 1129.04C1136.03 1129.04 1136.79 1127.7 1137 1127.16ZM1134.5 1120.92C1136.01 1120.92 1137.04 1122.34 1137.04 1124.21C1137.04 1126.16 1135.99 1127.56 1134.48 1127.56C1133.06 1127.56 1132.07 1126.17 1132.07 1124.23C1132.07 1122.25 1133.06 1120.92 1134.5 1120.92ZM1141.48 1129H1143.08V1123.46C1143.08 1122.16 1143.95 1120.92 1145.35 1120.92C1146.63 1120.92 1147.33 1121.89 1147.33 1123.35V1129H1148.93V1123.02C1148.93 1120.92 1147.85 1119.46 1145.87 1119.46C1143.95 1119.46 1143.21 1120.88 1143.08 1121.15V1115.36H1141.48V1129ZM1150.94 1119.68V1121.04H1152.41V1126.19C1152.41 1128.17 1153.53 1129 1155.53 1129H1155.89V1127.45C1154.52 1127.43 1154.02 1126.98 1154.02 1125.74V1121.04H1155.83V1119.68H1154.02V1116.58H1152.41V1119.68H1150.94ZM1158.29 1129H1159.89V1123.46C1159.89 1122.16 1160.75 1120.92 1162.16 1120.92C1163.43 1120.92 1164.14 1121.89 1164.14 1123.35V1129H1165.74V1123.02C1165.74 1120.92 1164.66 1119.46 1162.68 1119.46C1160.75 1119.46 1160.01 1120.88 1159.89 1121.15V1119.68H1158.29V1129ZM1172.1 1119.46C1169.76 1119.46 1168.08 1121.24 1168.08 1124.27C1168.08 1127.4 1169.79 1129.22 1172.37 1129.22C1174.81 1129.22 1175.86 1127.58 1175.97 1126.53H1174.38C1174.22 1126.98 1173.63 1127.74 1172.4 1127.74C1170.82 1127.74 1169.77 1126.52 1169.68 1124.61H1176V1123.96C1176 1121.22 1174.6 1119.46 1172.1 1119.46ZM1172.1 1120.81C1173.52 1120.81 1174.27 1121.87 1174.42 1123.22H1169.76C1169.97 1121.76 1170.8 1120.81 1172.1 1120.81ZM1183.58 1126.43C1183.58 1127.24 1182.81 1127.85 1181.56 1127.85C1180.11 1127.85 1179.48 1127.04 1179.35 1126.52H1177.66C1177.8 1127.88 1179.06 1129.27 1181.56 1129.27C1183.87 1129.27 1185.22 1128.01 1185.22 1126.34C1185.22 1124.72 1184.28 1123.96 1182.25 1123.62L1181.06 1123.42C1180 1123.24 1179.57 1122.86 1179.57 1122.21C1179.57 1121.48 1180.23 1120.79 1181.46 1120.79C1182.72 1120.79 1183.29 1121.6 1183.36 1122.02H1184.95C1184.86 1120.74 1183.87 1119.41 1181.47 1119.41C1179.3 1119.41 1177.96 1120.68 1177.96 1122.27C1177.96 1123.76 1178.77 1124.68 1180.86 1125.02L1182.01 1125.2C1183.13 1125.38 1183.58 1125.71 1183.58 1126.43ZM1192.7 1126.43C1192.7 1127.24 1191.93 1127.85 1190.69 1127.85C1189.23 1127.85 1188.6 1127.04 1188.47 1126.52H1186.78C1186.92 1127.88 1188.18 1129.27 1190.69 1129.27C1192.99 1129.27 1194.34 1128.01 1194.34 1126.34C1194.34 1124.72 1193.4 1123.96 1191.37 1123.62L1190.18 1123.42C1189.12 1123.24 1188.69 1122.86 1188.69 1122.21C1188.69 1121.48 1189.35 1120.79 1190.58 1120.79C1191.84 1120.79 1192.41 1121.6 1192.49 1122.02H1194.07C1193.98 1120.74 1192.99 1119.41 1190.6 1119.41C1188.42 1119.41 1187.09 1120.68 1187.09 1122.27C1187.09 1123.76 1187.9 1124.68 1189.98 1125.02L1191.14 1125.2C1192.25 1125.38 1192.7 1125.71 1192.7 1126.43Z" fill="#F1F1F1"/>
<path d="M1567.01 1119.46H1569.08V1129H1570.75V1115.36H1569.44C1569.39 1116.42 1569.22 1117.21 1568.85 1117.59C1568.5 1117.93 1567.98 1118.04 1567.01 1118.04V1119.46ZM1578.93 1129.25C1582.23 1129.25 1583.9 1126.28 1583.9 1122.18C1583.9 1118.06 1582.24 1115.1 1578.93 1115.1C1575.62 1115.1 1573.96 1118.06 1573.96 1122.18C1573.96 1126.28 1575.64 1129.25 1578.93 1129.25ZM1578.93 1116.67C1581.15 1116.67 1582.17 1119.06 1582.17 1122.18C1582.17 1125.29 1581.15 1127.69 1578.93 1127.69C1576.72 1127.69 1575.69 1125.29 1575.69 1122.18C1575.69 1119.06 1576.72 1116.67 1578.93 1116.67ZM1591.57 1129.25C1594.86 1129.25 1596.54 1126.28 1596.54 1122.18C1596.54 1118.06 1594.88 1115.1 1591.57 1115.1C1588.26 1115.1 1586.6 1118.06 1586.6 1122.18C1586.6 1126.28 1588.28 1129.25 1591.57 1129.25ZM1591.57 1116.67C1593.78 1116.67 1594.81 1119.06 1594.81 1122.18C1594.81 1125.29 1593.78 1127.69 1591.57 1127.69C1589.36 1127.69 1588.33 1125.29 1588.33 1122.18C1588.33 1119.06 1589.36 1116.67 1591.57 1116.67Z" fill="#F1F1F1"/>
<path d="M1050.79 1086.82L1051.19 1084.66C1051.47 1083.07 1052 1082.23 1053.26 1082.23C1054.62 1082.23 1055.7 1083.58 1055.7 1085.56C1055.7 1088.29 1054.16 1089.28 1053.45 1089.43L1053.45 1091.26C1054.88 1091.15 1057.29 1089.64 1057.29 1085.56C1057.29 1082.3 1055.42 1080.48 1053.2 1080.48C1050.93 1080.48 1049.98 1081.72 1049.46 1084.44L1049.04 1086.58C1048.74 1088.17 1048.16 1088.99 1047.03 1088.99C1045.79 1088.99 1044.62 1087.86 1044.62 1085.83C1044.62 1083.7 1045.93 1082.78 1046.6 1082.62L1046.6 1080.88C1045.21 1081 1043.07 1082.26 1043.07 1085.83C1043.07 1088.96 1044.89 1090.74 1047.06 1090.74C1049.08 1090.74 1050.29 1089.59 1050.79 1086.82ZM1054.35 1078.48C1056.14 1078.48 1057.18 1077.18 1057.18 1075.38C1057.18 1073.78 1056.24 1072.92 1055.54 1072.54C1056.37 1072.4 1057 1071.73 1057 1070.6L1057 1070.34L1055.51 1070.34C1055.43 1070.81 1055.15 1071.1 1054.5 1071.1L1050.29 1071.1C1048.7 1071.1 1047.46 1072.22 1047.46 1074.59C1047.46 1077.13 1049.06 1078.07 1050.12 1078.07L1050.12 1076.39C1049.67 1076.34 1048.85 1075.83 1048.85 1074.59C1048.85 1073.35 1049.48 1072.67 1050.32 1072.67C1050.95 1072.67 1051.26 1073.01 1051.38 1073.94L1051.6 1075.62C1051.87 1077.62 1052.9 1078.48 1054.35 1078.48ZM1054.39 1076.86C1053.63 1076.86 1053.13 1076.37 1052.95 1075.26L1052.72 1073.78C1052.59 1073.1 1052.36 1072.74 1052.21 1072.63L1053.13 1072.63C1054.68 1072.63 1055.76 1073.8 1055.76 1075.24C1055.76 1076.23 1055.2 1076.86 1054.39 1076.86ZM1047.68 1068.96L1049.04 1068.96L1049.04 1067.48L1054.19 1067.48C1056.17 1067.48 1057 1066.36 1057 1064.37L1057 1064.01L1055.45 1064.01C1055.43 1065.37 1054.98 1065.88 1053.74 1065.88L1049.04 1065.88L1049.04 1064.06L1047.68 1064.06L1047.68 1065.88L1044.58 1065.88L1044.58 1067.48L1047.68 1067.48L1047.68 1068.96ZM1047.68 1054.32L1047.68 1055.92L1053.29 1055.92C1054.62 1055.92 1055.76 1056.86 1055.76 1058.15C1055.76 1059.43 1054.84 1060.04 1053.44 1060.04L1047.68 1060.04L1047.68 1061.66L1053.83 1061.66C1055.78 1061.66 1057.2 1060.62 1057.2 1058.66C1057.2 1056.87 1055.9 1056.14 1055.56 1055.92L1057 1055.92L1057 1054.32L1047.68 1054.32ZM1057 1051.41L1057 1049.81L1052.57 1049.81C1050.56 1049.81 1049.46 1048.97 1049.46 1046.97L1047.6 1046.97C1047.6 1048.7 1048.99 1049.54 1049.67 1049.81L1047.68 1049.81L1047.68 1051.41L1057 1051.41ZM1054.35 1045.47C1056.14 1045.47 1057.18 1044.17 1057.18 1042.37C1057.18 1040.77 1056.24 1039.91 1055.54 1039.53C1056.37 1039.38 1057 1038.72 1057 1037.58L1057 1037.33L1055.51 1037.33C1055.43 1037.8 1055.15 1038.09 1054.5 1038.09L1050.29 1038.09C1048.7 1038.09 1047.46 1039.2 1047.46 1041.58C1047.46 1044.12 1049.06 1045.05 1050.12 1045.05L1050.12 1043.38C1049.67 1043.33 1048.85 1042.82 1048.85 1041.58C1048.85 1040.34 1049.48 1039.65 1050.32 1039.65C1050.95 1039.65 1051.26 1040 1051.38 1040.93L1051.6 1042.61C1051.87 1044.6 1052.9 1045.47 1054.35 1045.47ZM1054.39 1043.85C1053.63 1043.85 1053.13 1043.36 1052.95 1042.25L1052.72 1040.77C1052.59 1040.09 1052.36 1039.73 1052.21 1039.62L1053.13 1039.62C1054.68 1039.62 1055.76 1040.79 1055.76 1042.23C1055.76 1043.22 1055.2 1043.85 1054.39 1043.85ZM1047.68 1035.94L1049.04 1035.94L1049.04 1034.47L1054.19 1034.47C1056.17 1034.47 1057 1033.35 1057 1031.35L1057 1030.99L1055.45 1030.99C1055.43 1032.36 1054.98 1032.87 1053.74 1032.87L1049.04 1032.87L1049.04 1031.05L1047.68 1031.05L1047.68 1032.87L1044.58 1032.87L1044.58 1034.47L1047.68 1034.47L1047.68 1035.94ZM1045.8 1028.69L1045.8 1026.87L1043.75 1026.87L1043.75 1028.69L1045.8 1028.69ZM1057 1028.58L1057 1026.98L1047.68 1026.98L1047.68 1028.58L1057 1028.58ZM1047.44 1020.32C1047.44 1022.91 1049.39 1024.57 1052.34 1024.57C1055.29 1024.57 1057.23 1022.91 1057.23 1020.32C1057.23 1017.76 1055.29 1016.09 1052.34 1016.09C1049.39 1016.09 1047.44 1017.74 1047.44 1020.32ZM1052.34 1022.91C1050.36 1022.91 1048.9 1021.97 1048.9 1020.32C1048.9 1018.68 1050.36 1017.74 1052.34 1017.74C1054.32 1017.74 1055.78 1018.68 1055.78 1020.32C1055.78 1021.97 1054.32 1022.91 1052.34 1022.91ZM1057 1013.69L1057 1012.09L1051.46 1012.09C1050.16 1012.09 1048.92 1011.22 1048.92 1009.82C1048.92 1008.54 1049.89 1007.84 1051.35 1007.84L1057 1007.84L1057 1006.24L1051.02 1006.24C1048.92 1006.24 1047.46 1007.32 1047.46 1009.3C1047.46 1011.22 1048.88 1011.96 1049.15 1012.09L1047.68 1012.09L1047.68 1013.69L1057 1013.69Z" fill="#F1F1F1"/>
<path d="M1047.46 607.991L1047.46 605.921L1057 605.921L1057 604.247L1043.36 604.247L1043.36 605.561C1044.42 605.615 1045.21 605.777 1045.59 606.155C1045.93 606.497 1046.04 607.019 1046.04 607.991L1047.46 607.991ZM1057.25 596.069C1057.25 592.775 1054.28 591.101 1050.18 591.101C1046.06 591.101 1043.1 592.757 1043.1 596.069C1043.1 599.381 1046.06 601.037 1050.18 601.037C1054.28 601.037 1057.25 599.363 1057.25 596.069ZM1044.67 596.069C1044.67 593.855 1047.06 592.829 1050.18 592.829C1053.29 592.829 1055.69 593.855 1055.69 596.069C1055.69 598.283 1053.29 599.309 1050.18 599.309C1047.06 599.309 1044.67 598.283 1044.67 596.069ZM1057.25 583.43C1057.25 580.136 1054.28 578.462 1050.18 578.462C1046.06 578.462 1043.1 580.118 1043.1 583.43C1043.1 586.742 1046.06 588.398 1050.18 588.398C1054.28 588.398 1057.25 586.724 1057.25 583.43ZM1044.67 583.43C1044.67 581.216 1047.06 580.19 1050.18 580.19C1053.29 580.19 1055.69 581.216 1055.69 583.43C1055.69 585.644 1053.29 586.67 1050.18 586.67C1047.06 586.67 1044.67 585.644 1044.67 583.43Z" fill="#F1F1F1"/>
<path d="M1083.71 571.293C1083.32 570.902 1082.68 570.902 1082.29 571.293L1075.93 577.657C1075.54 578.047 1075.54 578.681 1075.93 579.071C1076.32 579.462 1076.95 579.462 1077.34 579.071L1083 573.414L1088.66 579.071C1089.05 579.462 1089.68 579.462 1090.07 579.071C1090.46 578.681 1090.46 578.047 1090.07 577.657L1083.71 571.293ZM1084 1092L1084 572L1082 572L1082 1092L1084 1092Z" fill="#F1F1F1"/>
<path d="M1603.71 1092.71C1604.1 1092.32 1604.1 1091.68 1603.71 1091.29L1597.34 1084.93C1596.95 1084.54 1596.32 1084.54 1595.93 1084.93C1595.54 1085.32 1595.54 1085.95 1595.93 1086.34L1601.59 1092L1595.93 1097.66C1595.54 1098.05 1595.54 1098.68 1595.93 1099.07C1596.32 1099.46 1596.95 1099.46 1597.34 1099.07L1603.71 1092.71ZM1083 1093H1603V1091H1083V1093Z" fill="#F1F1F1"/>
<rect x="1583" y="992" width="100" height="100" transform="rotate(-180 1583 992)" fill="#FFF8E8"/>
<rect x="1483" y="942" width="100" height="100" transform="rotate(-180 1483 942)" fill="#CCC0A5"/>
<rect x="1383" y="892" width="100" height="100" transform="rotate(-180 1383 892)" fill="#998C6D"/>
<rect x="1283" y="842" width="100" height="100" transform="rotate(-180 1283 842)" fill="#665A3E"/>
<rect x="1183" y="792" width="100" height="100" transform="rotate(-180 1183 792)" fill="#332C1A"/>
<circle cx="1533" cy="942" r="7.5" fill="black"/>
<path d="M272.56 127.416C276.28 127.416 278.344 125.4 278.344 122.088C278.344 118.752 276.328 116.808 272.56 116.808H264.304V135H266.584V127.416H272.56ZM272.296 118.848C274.648 118.848 275.944 119.976 275.944 122.088C275.944 124.2 274.624 125.352 272.272 125.352H266.584V118.848H272.296ZM281.1 135H283.236V129.096C283.236 126.408 284.364 124.944 287.028 124.944V122.472C284.724 122.472 283.596 124.32 283.236 125.232V122.568H281.1V135ZM289.863 120.072H292.287V117.336H289.863V120.072ZM290.007 135H292.143V122.568H290.007V135ZM298.165 127.488C298.165 125.76 299.269 124.2 301.021 124.2C302.629 124.2 303.349 125.496 303.349 127.344V135H305.509V127.488C305.509 125.76 306.613 124.2 308.365 124.2C309.973 124.2 310.693 125.496 310.693 127.344V135H312.853V126.864C312.853 124.2 311.653 122.28 308.845 122.28C306.805 122.28 305.629 123.576 305.101 124.512C304.549 123.144 303.445 122.28 301.669 122.28C299.413 122.28 298.381 124.008 298.165 124.44V122.568H296.029V135H298.165V127.488ZM315.91 131.472C315.91 133.848 317.638 135.24 320.038 135.24C322.174 135.24 323.326 133.992 323.83 133.056C324.022 134.16 324.91 135 326.422 135H326.758V133.008C326.134 132.912 325.75 132.528 325.75 131.664V126.048C325.75 123.936 324.262 122.28 321.094 122.28C317.71 122.28 316.462 124.416 316.462 125.832H318.694C318.766 125.232 319.438 124.128 321.094 124.128C322.75 124.128 323.662 124.968 323.662 126.096C323.662 126.936 323.206 127.344 321.958 127.512L319.726 127.8C317.062 128.16 315.91 129.528 315.91 131.472ZM318.07 131.52C318.07 130.512 318.718 129.84 320.206 129.6L322.174 129.288C323.086 129.12 323.566 128.808 323.71 128.616V129.84C323.71 131.904 322.15 133.344 320.23 133.344C318.91 133.344 318.07 132.6 318.07 131.52ZM329.639 135H331.775V129.096C331.775 126.408 332.903 124.944 335.567 124.944V122.472C333.263 122.472 332.135 124.32 331.775 125.232V122.568H329.639V135ZM341.642 135.408C341.018 137.16 340.202 137.664 338.786 137.712V139.776H339.05C341.018 139.776 342.41 139.08 343.562 135.816L348.218 122.568H345.986L342.866 131.808L339.746 122.568H337.346L341.786 134.928L341.642 135.408ZM372.067 130.176H369.763C369.355 131.112 368.203 133.176 365.011 133.176C361.291 133.176 358.867 130.032 358.867 125.88C358.867 121.848 361.099 118.608 364.819 118.608C368.179 118.608 369.427 120.912 369.763 121.92H372.115C371.899 119.712 369.859 116.448 364.819 116.448C359.755 116.448 356.491 120.288 356.491 125.88C356.491 131.544 359.755 135.36 364.987 135.36C369.739 135.36 371.755 132.192 372.067 130.176ZM380.522 122.256C377.066 122.256 374.858 124.848 374.858 128.784C374.858 132.72 377.066 135.312 380.522 135.312C383.93 135.312 386.162 132.72 386.162 128.784C386.162 124.848 383.954 122.256 380.522 122.256ZM377.066 128.784C377.066 126.144 378.314 124.2 380.522 124.2C382.706 124.2 383.954 126.144 383.954 128.784C383.954 131.424 382.706 133.368 380.522 133.368C378.314 133.368 377.066 131.424 377.066 128.784ZM389.382 135H391.518V116.808H389.382V135ZM400.397 122.256C396.941 122.256 394.733 124.848 394.733 128.784C394.733 132.72 396.941 135.312 400.397 135.312C403.805 135.312 406.037 132.72 406.037 128.784C406.037 124.848 403.829 122.256 400.397 122.256ZM396.941 128.784C396.941 126.144 398.189 124.2 400.397 124.2C402.581 124.2 403.829 126.144 403.829 128.784C403.829 131.424 402.581 133.368 400.397 133.368C398.189 133.368 396.941 131.424 396.941 128.784ZM409.233 135H411.369V129.096C411.369 126.408 412.497 124.944 415.161 124.944V122.472C412.857 122.472 411.729 124.32 411.369 125.232V122.568H409.233V135ZM425.051 131.568C425.051 132.648 424.019 133.464 422.363 133.464C420.419 133.464 419.579 132.384 419.411 131.688H417.155C417.347 133.512 419.027 135.36 422.363 135.36C425.435 135.36 427.235 133.68 427.235 131.448C427.235 129.288 425.987 128.28 423.275 127.824L421.691 127.56C420.275 127.32 419.699 126.816 419.699 125.952C419.699 124.968 420.587 124.056 422.219 124.056C423.899 124.056 424.667 125.136 424.763 125.688H426.875C426.755 123.984 425.435 122.208 422.243 122.208C419.339 122.208 417.563 123.912 417.563 126.024C417.563 128.016 418.643 129.24 421.427 129.696L422.963 129.936C424.451 130.176 425.051 130.608 425.051 131.568Z" fill="black"/>
<path d="M448.64 135H457.256C460.904 135 463.136 133.128 463.136 129.816C463.136 127.272 461.84 125.736 459.92 125.232C461.288 124.68 462.44 123.48 462.44 121.512C462.44 118.56 460.592 116.808 456.968 116.808H448.64V135ZM456.608 124.584H450.92V118.824H456.608C458.744 118.824 460.016 119.712 460.016 121.704C460.016 123.552 458.672 124.584 456.608 124.584ZM456.896 126.624C459.32 126.624 460.688 127.68 460.688 129.768C460.688 131.832 459.272 132.96 456.896 132.96H450.92V126.624H456.896ZM466.421 135H468.557V116.808H466.421V135ZM471.676 131.472C471.676 133.848 473.404 135.24 475.804 135.24C477.94 135.24 479.092 133.992 479.596 133.056C479.788 134.16 480.676 135 482.188 135H482.524V133.008C481.9 132.912 481.516 132.528 481.516 131.664V126.048C481.516 123.936 480.028 122.28 476.86 122.28C473.476 122.28 472.228 124.416 472.228 125.832H474.46C474.532 125.232 475.204 124.128 476.86 124.128C478.516 124.128 479.428 124.968 479.428 126.096C479.428 126.936 478.972 127.344 477.724 127.512L475.492 127.8C472.828 128.16 471.676 129.528 471.676 131.472ZM473.836 131.52C473.836 130.512 474.484 129.84 475.972 129.6L477.94 129.288C478.852 129.12 479.332 128.808 479.476 128.616V129.84C479.476 131.904 477.916 133.344 475.996 133.344C474.676 133.344 473.836 132.6 473.836 131.52ZM484.756 128.76C484.756 132.768 486.916 135.312 490.324 135.312C493.42 135.312 494.908 133.248 495.052 131.544H492.916C492.772 132.144 492.052 133.344 490.324 133.344C488.236 133.344 486.964 131.424 486.964 128.76C486.964 126.072 488.164 124.2 490.252 124.2C492.052 124.2 492.772 125.64 492.916 126.312H495.1C494.98 124.32 493.564 122.256 490.252 122.256C486.892 122.256 484.756 124.776 484.756 128.76ZM498.248 135H500.384V131.856L502.496 129.288L506.312 135H508.664L503.96 127.584L508.208 122.568H505.64L500.384 129.048V116.808H498.248V135ZM528.492 134.976H530.94L528.54 132C529.308 130.728 529.716 129.216 529.788 127.704H527.772C527.724 128.544 527.532 129.456 527.172 130.272L523.14 125.28C524.58 124.344 526.332 123.048 526.332 120.504C526.332 118.272 524.988 116.496 522.252 116.496C519.516 116.496 518.1 118.368 518.1 120.504C518.1 122.136 518.892 123.36 520.044 124.824C518.292 125.904 516.66 127.44 516.66 130.056C516.66 133.152 518.892 135.336 522.612 135.336C524.58 135.336 526.14 134.64 527.292 133.56L528.492 134.976ZM520.26 120.432C520.26 119.304 520.98 118.272 522.228 118.272C523.476 118.272 524.172 119.232 524.172 120.504C524.172 122.04 523.164 123.072 522.036 123.888C520.956 122.568 520.26 121.584 520.26 120.432ZM522.636 133.368C520.404 133.368 518.868 131.856 518.868 129.96C518.868 128.328 519.876 127.2 521.22 126.24L526.02 132C525.204 132.816 524.1 133.368 522.636 133.368ZM538.258 116.808L543.658 135H545.914L549.994 120.552L554.074 135H556.33L561.706 116.808H559.426L555.274 131.376L551.314 116.808H548.818L544.882 131.424L540.706 116.808H538.258ZM564.576 135H566.712V127.608C566.712 125.88 567.864 124.224 569.736 124.224C571.44 124.224 572.376 125.52 572.376 127.464V135H574.512V127.032C574.512 124.224 573.072 122.28 570.432 122.28C567.864 122.28 566.88 124.176 566.712 124.536V116.808H564.576V135ZM578.167 120.072H580.591V117.336H578.167V120.072ZM578.311 135H580.447V122.568H578.311V135ZM583.351 122.568V124.392H585.319V131.256C585.319 133.896 586.807 135 589.471 135H589.951V132.936C588.127 132.912 587.455 132.312 587.455 130.656V124.392H589.879V122.568H587.455V118.44H585.319V122.568H583.351ZM597.71 122.28C594.59 122.28 592.358 124.656 592.358 128.688C592.358 132.864 594.638 135.288 598.07 135.288C601.334 135.288 602.726 133.104 602.87 131.712H600.758C600.542 132.312 599.75 133.32 598.118 133.32C596.006 133.32 594.614 131.688 594.494 129.144H602.918V128.28C602.918 124.632 601.046 122.28 597.71 122.28ZM597.71 124.08C599.606 124.08 600.614 125.496 600.806 127.296H594.59C594.878 125.352 595.982 124.08 597.71 124.08ZM605.124 138.072L606.396 138.72C607.548 137.448 608.412 135.744 608.412 133.752V131.952H606.18V133.752C606.18 135.456 605.868 136.632 605.124 138.072ZM626.718 133.176C622.83 133.176 620.406 129.96 620.406 125.904C620.406 121.872 622.662 118.608 626.526 118.608C629.814 118.608 631.182 120.648 631.542 121.656H633.918C633.606 119.472 631.494 116.448 626.526 116.448C621.318 116.448 618.03 120.312 618.03 125.904C618.03 131.544 621.366 135.336 626.526 135.336C629.862 135.336 631.686 133.536 632.406 131.88V135H634.542V126.288H626.31V128.4H632.43C632.07 130.752 630.03 133.176 626.718 133.176ZM638.287 135H640.423V129.096C640.423 126.408 641.551 124.944 644.215 124.944V122.472C641.911 122.472 640.783 124.32 640.423 125.232V122.568H638.287V135ZM646.215 131.472C646.215 133.848 647.943 135.24 650.343 135.24C652.479 135.24 653.631 133.992 654.135 133.056C654.327 134.16 655.215 135 656.727 135H657.063V133.008C656.439 132.912 656.055 132.528 656.055 131.664V126.048C656.055 123.936 654.567 122.28 651.399 122.28C648.015 122.28 646.767 124.416 646.767 125.832H648.999C649.071 125.232 649.743 124.128 651.399 124.128C653.055 124.128 653.967 124.968 653.967 126.096C653.967 126.936 653.511 127.344 652.263 127.512L650.031 127.8C647.367 128.16 646.215 129.528 646.215 131.472ZM648.375 131.52C648.375 130.512 649.023 129.84 650.511 129.6L652.479 129.288C653.391 129.12 653.871 128.808 654.015 128.616V129.84C654.015 131.904 652.455 133.344 650.535 133.344C649.215 133.344 648.375 132.6 648.375 131.52ZM668.271 132.744V135H670.407V116.808H668.271V124.608C667.959 123.912 666.951 122.28 664.503 122.28C661.575 122.28 659.343 124.632 659.343 128.784C659.343 132.96 661.575 135.288 664.503 135.288C666.903 135.288 668.007 133.44 668.271 132.744ZM664.791 124.224C666.855 124.224 668.319 126.096 668.319 128.784C668.319 131.424 666.807 133.344 664.839 133.344C662.943 133.344 661.551 131.544 661.551 128.784C661.551 125.976 662.895 124.224 664.791 124.224ZM674.144 120.072H676.568V117.336H674.144V120.072ZM674.288 135H676.424V122.568H674.288V135ZM684.991 122.28C681.871 122.28 679.639 124.656 679.639 128.688C679.639 132.864 681.919 135.288 685.351 135.288C688.615 135.288 690.007 133.104 690.151 131.712H688.039C687.823 132.312 687.031 133.32 685.399 133.32C683.287 133.32 681.895 131.688 681.775 129.144H690.199V128.28C690.199 124.632 688.327 122.28 684.991 122.28ZM684.991 124.08C686.887 124.08 687.895 125.496 688.087 127.296H681.871C682.159 125.352 683.263 124.08 684.991 124.08ZM693.365 135H695.501V127.608C695.501 125.88 696.653 124.224 698.525 124.224C700.229 124.224 701.165 125.52 701.165 127.464V135H703.301V127.032C703.301 124.224 701.861 122.28 699.221 122.28C696.653 122.28 695.669 124.176 695.501 124.536V122.568H693.365V135ZM705.976 122.568V124.392H707.944V131.256C707.944 133.896 709.432 135 712.096 135H712.576V132.936C710.752 132.912 710.08 132.312 710.08 130.656V124.392H712.504V122.568H710.08V118.44H707.944V122.568H705.976Z" fill="#F1F1F1"/>
<path d="M268.912 532.72L271.792 533.248C273.904 533.632 275.032 534.328 275.032 536.008C275.032 537.832 273.232 539.272 270.592 539.272C266.944 539.272 265.624 537.208 265.432 536.272H262.984C263.128 538.168 265.144 541.384 270.592 541.384C274.936 541.384 277.36 538.888 277.36 535.936C277.36 532.912 275.704 531.64 272.08 530.944L269.224 530.392C267.112 529.984 266.008 529.216 266.008 527.704C266.008 526.048 267.52 524.488 270.232 524.488C273.064 524.488 274.288 526.24 274.504 527.128H276.832C276.664 525.28 274.984 522.424 270.232 522.424C266.056 522.424 263.68 524.848 263.68 527.752C263.68 530.44 265.216 532.048 268.912 532.72ZM285.476 528.28C282.356 528.28 280.124 530.656 280.124 534.688C280.124 538.864 282.404 541.288 285.836 541.288C289.1 541.288 290.492 539.104 290.636 537.712H288.524C288.308 538.312 287.516 539.32 285.884 539.32C283.772 539.32 282.38 537.688 282.26 535.144H290.684V534.28C290.684 530.632 288.812 528.28 285.476 528.28ZM285.476 530.08C287.372 530.08 288.38 531.496 288.572 533.296H282.356C282.644 531.352 283.748 530.08 285.476 530.08ZM293.202 534.76C293.202 538.768 295.362 541.312 298.77 541.312C301.866 541.312 303.354 539.248 303.498 537.544H301.362C301.218 538.144 300.498 539.344 298.77 539.344C296.682 539.344 295.41 537.424 295.41 534.76C295.41 532.072 296.61 530.2 298.698 530.2C300.498 530.2 301.218 531.64 301.362 532.312H303.546C303.426 530.32 302.01 528.256 298.698 528.256C295.338 528.256 293.202 530.776 293.202 534.76ZM311.592 528.256C308.136 528.256 305.928 530.848 305.928 534.784C305.928 538.72 308.136 541.312 311.592 541.312C315 541.312 317.232 538.72 317.232 534.784C317.232 530.848 315.024 528.256 311.592 528.256ZM308.136 534.784C308.136 532.144 309.384 530.2 311.592 530.2C313.776 530.2 315.024 532.144 315.024 534.784C315.024 537.424 313.776 539.368 311.592 539.368C309.384 539.368 308.136 537.424 308.136 534.784ZM320.428 541H322.564V533.608C322.564 531.88 323.716 530.224 325.588 530.224C327.292 530.224 328.228 531.52 328.228 533.464V541H330.364V533.032C330.364 530.224 328.924 528.28 326.284 528.28C323.716 528.28 322.732 530.176 322.564 530.536V528.568H320.428V541ZM342.467 538.744V541H344.603V522.808H342.467V530.608C342.155 529.912 341.147 528.28 338.699 528.28C335.771 528.28 333.539 530.632 333.539 534.784C333.539 538.96 335.771 541.288 338.699 541.288C341.099 541.288 342.203 539.44 342.467 538.744ZM338.987 530.224C341.051 530.224 342.515 532.096 342.515 534.784C342.515 537.424 341.003 539.344 339.035 539.344C337.139 539.344 335.747 537.544 335.747 534.784C335.747 531.976 337.091 530.224 338.987 530.224ZM347.692 537.472C347.692 539.848 349.42 541.24 351.82 541.24C353.956 541.24 355.108 539.992 355.612 539.056C355.804 540.16 356.692 541 358.204 541H358.54V539.008C357.916 538.912 357.532 538.528 357.532 537.664V532.048C357.532 529.936 356.044 528.28 352.876 528.28C349.492 528.28 348.244 530.416 348.244 531.832H350.476C350.548 531.232 351.22 530.128 352.876 530.128C354.532 530.128 355.444 530.968 355.444 532.096C355.444 532.936 354.988 533.344 353.74 533.512L351.508 533.8C348.844 534.16 347.692 535.528 347.692 537.472ZM349.852 537.52C349.852 536.512 350.5 535.84 351.988 535.6L353.956 535.288C354.868 535.12 355.348 534.808 355.492 534.616V535.84C355.492 537.904 353.932 539.344 352.012 539.344C350.692 539.344 349.852 538.6 349.852 537.52ZM361.42 541H363.556V535.096C363.556 532.408 364.684 530.944 367.348 530.944V528.472C365.044 528.472 363.916 530.32 363.556 531.232V528.568H361.42V541ZM373.423 541.408C372.799 543.16 371.983 543.664 370.567 543.712V545.776H370.831C372.799 545.776 374.191 545.08 375.343 541.816L379.999 528.568H377.767L374.647 537.808L371.527 528.568H369.127L373.567 540.928L373.423 541.408ZM403.849 536.176H401.545C401.137 537.112 399.985 539.176 396.793 539.176C393.073 539.176 390.649 536.032 390.649 531.88C390.649 527.848 392.881 524.608 396.601 524.608C399.961 524.608 401.209 526.912 401.545 527.92H403.897C403.681 525.712 401.641 522.448 396.601 522.448C391.537 522.448 388.273 526.288 388.273 531.88C388.273 537.544 391.537 541.36 396.769 541.36C401.521 541.36 403.537 538.192 403.849 536.176ZM412.303 528.256C408.847 528.256 406.639 530.848 406.639 534.784C406.639 538.72 408.847 541.312 412.303 541.312C415.711 541.312 417.943 538.72 417.943 534.784C417.943 530.848 415.735 528.256 412.303 528.256ZM408.847 534.784C408.847 532.144 410.095 530.2 412.303 530.2C414.487 530.2 415.735 532.144 415.735 534.784C415.735 537.424 414.487 539.368 412.303 539.368C410.095 539.368 408.847 537.424 408.847 534.784ZM421.163 541H423.299V522.808H421.163V541ZM432.178 528.256C428.722 528.256 426.514 530.848 426.514 534.784C426.514 538.72 428.722 541.312 432.178 541.312C435.586 541.312 437.818 538.72 437.818 534.784C437.818 530.848 435.61 528.256 432.178 528.256ZM428.722 534.784C428.722 532.144 429.97 530.2 432.178 530.2C434.362 530.2 435.61 532.144 435.61 534.784C435.61 537.424 434.362 539.368 432.178 539.368C429.97 539.368 428.722 537.424 428.722 534.784ZM441.014 541H443.15V535.096C443.15 532.408 444.278 530.944 446.942 530.944V528.472C444.638 528.472 443.51 530.32 443.15 531.232V528.568H441.014V541ZM456.833 537.568C456.833 538.648 455.801 539.464 454.145 539.464C452.201 539.464 451.361 538.384 451.193 537.688H448.937C449.129 539.512 450.809 541.36 454.145 541.36C457.217 541.36 459.017 539.68 459.017 537.448C459.017 535.288 457.769 534.28 455.057 533.824L453.473 533.56C452.057 533.32 451.481 532.816 451.481 531.952C451.481 530.968 452.369 530.056 454.001 530.056C455.681 530.056 456.449 531.136 456.545 531.688H458.657C458.537 529.984 457.217 528.208 454.025 528.208C451.121 528.208 449.345 529.912 449.345 532.024C449.345 534.016 450.425 535.24 453.209 535.696L454.745 535.936C456.233 536.176 456.833 536.608 456.833 537.568Z" fill="black"/>
<path d="M489.325 536.176H487.021C486.613 537.112 485.461 539.176 482.269 539.176C478.549 539.176 476.125 536.032 476.125 531.88C476.125 527.848 478.357 524.608 482.077 524.608C485.437 524.608 486.685 526.912 487.021 527.92H489.373C489.157 525.712 487.117 522.448 482.077 522.448C477.013 522.448 473.749 526.288 473.749 531.88C473.749 537.544 477.013 541.36 482.245 541.36C486.997 541.36 489.013 538.192 489.325 536.176ZM497.78 528.256C494.324 528.256 492.116 530.848 492.116 534.784C492.116 538.72 494.324 541.312 497.78 541.312C501.188 541.312 503.42 538.72 503.42 534.784C503.42 530.848 501.212 528.256 497.78 528.256ZM494.324 534.784C494.324 532.144 495.572 530.2 497.78 530.2C499.964 530.2 501.212 532.144 501.212 534.784C501.212 537.424 499.964 539.368 497.78 539.368C495.572 539.368 494.324 537.424 494.324 534.784ZM513.551 537.568C513.551 538.648 512.519 539.464 510.863 539.464C508.919 539.464 508.079 538.384 507.911 537.688H505.655C505.847 539.512 507.527 541.36 510.863 541.36C513.935 541.36 515.735 539.68 515.735 537.448C515.735 535.288 514.487 534.28 511.775 533.824L510.191 533.56C508.775 533.32 508.199 532.816 508.199 531.952C508.199 530.968 509.087 530.056 510.719 530.056C512.399 530.056 513.167 531.136 513.263 531.688H515.375C515.255 529.984 513.935 528.208 510.743 528.208C507.839 528.208 506.063 529.912 506.063 532.024C506.063 534.016 507.143 535.24 509.927 535.696L511.463 535.936C512.951 536.176 513.551 536.608 513.551 537.568ZM520.915 533.488C520.915 531.76 522.019 530.2 523.771 530.2C525.379 530.2 526.099 531.496 526.099 533.344V541H528.259V533.488C528.259 531.76 529.363 530.2 531.115 530.2C532.723 530.2 533.443 531.496 533.443 533.344V541H535.603V532.864C535.603 530.2 534.403 528.28 531.595 528.28C529.555 528.28 528.379 529.576 527.851 530.512C527.299 529.144 526.195 528.28 524.419 528.28C522.163 528.28 521.131 530.008 520.915 530.44V528.568H518.779V541H520.915V533.488ZM544.42 528.256C540.964 528.256 538.756 530.848 538.756 534.784C538.756 538.72 540.964 541.312 544.42 541.312C547.828 541.312 550.06 538.72 550.06 534.784C550.06 530.848 547.852 528.256 544.42 528.256ZM540.964 534.784C540.964 532.144 542.212 530.2 544.42 530.2C546.604 530.2 547.852 532.144 547.852 534.784C547.852 537.424 546.604 539.368 544.42 539.368C542.212 539.368 540.964 537.424 540.964 534.784ZM560.192 537.568C560.192 538.648 559.16 539.464 557.504 539.464C555.56 539.464 554.72 538.384 554.552 537.688H552.296C552.488 539.512 554.168 541.36 557.504 541.36C560.576 541.36 562.376 539.68 562.376 537.448C562.376 535.288 561.128 534.28 558.416 533.824L556.832 533.56C555.416 533.32 554.84 532.816 554.84 531.952C554.84 530.968 555.728 530.056 557.36 530.056C559.04 530.056 559.808 531.136 559.904 531.688H562.016C561.896 529.984 560.576 528.208 557.384 528.208C554.48 528.208 552.704 529.912 552.704 532.024C552.704 534.016 553.784 535.24 556.568 535.696L558.104 535.936C559.592 536.176 560.192 536.608 560.192 537.568ZM570.413 522.808L577.565 541H579.965L586.997 522.808H584.597L578.813 538.096L573.005 522.808H570.413ZM589.698 526.072H592.122V523.336H589.698V526.072ZM589.842 541H591.978V528.568H589.842V541ZM600.858 528.256C597.402 528.256 595.194 530.848 595.194 534.784C595.194 538.72 597.402 541.312 600.858 541.312C604.266 541.312 606.498 538.72 606.498 534.784C606.498 530.848 604.29 528.256 600.858 528.256ZM597.402 534.784C597.402 532.144 598.65 530.2 600.858 530.2C603.042 530.2 604.29 532.144 604.29 534.784C604.29 537.424 603.042 539.368 600.858 539.368C598.65 539.368 597.402 537.424 597.402 534.784ZM609.717 541H611.853V522.808H609.717V541ZM620.421 528.28C617.301 528.28 615.069 530.656 615.069 534.688C615.069 538.864 617.349 541.288 620.781 541.288C624.045 541.288 625.437 539.104 625.581 537.712H623.469C623.253 538.312 622.461 539.32 620.829 539.32C618.717 539.32 617.325 537.688 617.205 535.144H625.629V534.28C625.629 530.632 623.757 528.28 620.421 528.28ZM620.421 530.08C622.317 530.08 623.325 531.496 623.517 533.296H617.301C617.589 531.352 618.693 530.08 620.421 530.08ZM627.812 528.568V530.392H629.78V537.256C629.78 539.896 631.268 541 633.932 541H634.412V538.936C632.588 538.912 631.916 538.312 631.916 536.656V530.392H634.34V528.568H631.916V524.44H629.78V528.568H627.812ZM643.992 541H646.272V532.792H655.632V530.656H646.272V524.872H656.448V522.808H643.992V541ZM658.52 537.472C658.52 539.848 660.248 541.24 662.648 541.24C664.784 541.24 665.936 539.992 666.44 539.056C666.632 540.16 667.52 541 669.032 541H669.368V539.008C668.744 538.912 668.36 538.528 668.36 537.664V532.048C668.36 529.936 666.872 528.28 663.704 528.28C660.32 528.28 659.072 530.416 659.072 531.832H661.304C661.376 531.232 662.048 530.128 663.704 530.128C665.36 530.128 666.272 530.968 666.272 532.096C666.272 532.936 665.816 533.344 664.568 533.512L662.336 533.8C659.672 534.16 658.52 535.528 658.52 537.472ZM660.68 537.52C660.68 536.512 661.328 535.84 662.816 535.6L664.784 535.288C665.696 535.12 666.176 534.808 666.32 534.616V535.84C666.32 537.904 664.76 539.344 662.84 539.344C661.52 539.344 660.68 538.6 660.68 537.52ZM674.384 533.488C674.384 531.76 675.488 530.2 677.24 530.2C678.848 530.2 679.568 531.496 679.568 533.344V541H681.728V533.488C681.728 531.76 682.832 530.2 684.584 530.2C686.192 530.2 686.912 531.496 686.912 533.344V541H689.072V532.864C689.072 530.2 687.872 528.28 685.064 528.28C683.024 528.28 681.848 529.576 681.32 530.512C680.768 529.144 679.664 528.28 677.888 528.28C675.632 528.28 674.6 530.008 674.384 530.44V528.568H672.248V541H674.384V533.488ZM692.753 526.072H695.177V523.336H692.753V526.072ZM692.897 541H695.033V528.568H692.897V541ZM698.944 541H701.08V522.808H698.944V541ZM708.063 541.408C707.439 543.16 706.623 543.664 705.207 543.712V545.776H705.471C707.439 545.776 708.831 545.08 709.983 541.816L714.639 528.568H712.407L709.287 537.808L706.167 528.568H703.767L708.207 540.928L708.063 541.408Z" fill="#F1F1F1"/>
<path d="M1084.01 524.872H1090.63V541H1092.94V524.872H1099.56V522.808H1084.01V524.872ZM1104.86 528.28C1101.74 528.28 1099.51 530.656 1099.51 534.688C1099.51 538.864 1101.79 541.288 1105.22 541.288C1108.48 541.288 1109.87 539.104 1110.02 537.712H1107.91C1107.69 538.312 1106.9 539.32 1105.27 539.32C1103.15 539.32 1101.76 537.688 1101.64 535.144H1110.07V534.28C1110.07 530.632 1108.19 528.28 1104.86 528.28ZM1104.86 530.08C1106.75 530.08 1107.76 531.496 1107.95 533.296H1101.74C1102.03 531.352 1103.13 530.08 1104.86 530.08ZM1113.23 541H1115.37V535.096C1115.37 532.408 1116.5 530.944 1119.16 530.944V528.472C1116.86 528.472 1115.73 530.32 1115.37 531.232V528.568H1113.23V541ZM1121.16 528.568V530.392H1123.12V537.256C1123.12 539.896 1124.61 541 1127.28 541H1127.76V538.936C1125.93 538.912 1125.26 538.312 1125.26 536.656V530.392H1127.68V528.568H1125.26V524.44H1123.12V528.568H1121.16ZM1130.83 526.072H1133.26V523.336H1130.83V526.072ZM1130.98 541H1133.11V528.568H1130.98V541ZM1136.23 537.472C1136.23 539.848 1137.96 541.24 1140.36 541.24C1142.49 541.24 1143.65 539.992 1144.15 539.056C1144.34 540.16 1145.23 541 1146.74 541H1147.08V539.008C1146.45 538.912 1146.07 538.528 1146.07 537.664V532.048C1146.07 529.936 1144.58 528.28 1141.41 528.28C1138.03 528.28 1136.78 530.416 1136.78 531.832H1139.01C1139.09 531.232 1139.76 530.128 1141.41 530.128C1143.07 530.128 1143.98 530.968 1143.98 532.096C1143.98 532.936 1143.53 533.344 1142.28 533.512L1140.05 533.8C1137.38 534.16 1136.23 535.528 1136.23 537.472ZM1138.39 537.52C1138.39 536.512 1139.04 535.84 1140.53 535.6L1142.49 535.288C1143.41 535.12 1143.89 534.808 1144.03 534.616V535.84C1144.03 537.904 1142.47 539.344 1140.55 539.344C1139.23 539.344 1138.39 538.6 1138.39 537.52ZM1149.96 541H1152.1V535.096C1152.1 532.408 1153.22 530.944 1155.89 530.944V528.472C1153.58 528.472 1152.46 530.32 1152.1 531.232V528.568H1149.96V541ZM1161.96 541.408C1161.34 543.16 1160.52 543.664 1159.11 543.712V545.776H1159.37C1161.34 545.776 1162.73 545.08 1163.88 541.816L1168.54 528.568H1166.31L1163.19 537.808L1160.07 528.568H1157.67L1162.11 540.928L1161.96 541.408ZM1192.39 536.176H1190.08C1189.68 537.112 1188.52 539.176 1185.33 539.176C1181.61 539.176 1179.19 536.032 1179.19 531.88C1179.19 527.848 1181.42 524.608 1185.14 524.608C1188.5 524.608 1189.75 526.912 1190.08 527.92H1192.44C1192.22 525.712 1190.18 522.448 1185.14 522.448C1180.08 522.448 1176.81 526.288 1176.81 531.88C1176.81 537.544 1180.08 541.36 1185.31 541.36C1190.06 541.36 1192.08 538.192 1192.39 536.176ZM1200.84 528.256C1197.39 528.256 1195.18 530.848 1195.18 534.784C1195.18 538.72 1197.39 541.312 1200.84 541.312C1204.25 541.312 1206.48 538.72 1206.48 534.784C1206.48 530.848 1204.27 528.256 1200.84 528.256ZM1197.39 534.784C1197.39 532.144 1198.63 530.2 1200.84 530.2C1203.03 530.2 1204.27 532.144 1204.27 534.784C1204.27 537.424 1203.03 539.368 1200.84 539.368C1198.63 539.368 1197.39 537.424 1197.39 534.784ZM1209.7 541H1211.84V522.808H1209.7V541ZM1220.72 528.256C1217.26 528.256 1215.05 530.848 1215.05 534.784C1215.05 538.72 1217.26 541.312 1220.72 541.312C1224.13 541.312 1226.36 538.72 1226.36 534.784C1226.36 530.848 1224.15 528.256 1220.72 528.256ZM1217.26 534.784C1217.26 532.144 1218.51 530.2 1220.72 530.2C1222.9 530.2 1224.15 532.144 1224.15 534.784C1224.15 537.424 1222.9 539.368 1220.72 539.368C1218.51 539.368 1217.26 537.424 1217.26 534.784ZM1229.55 541H1231.69V535.096C1231.69 532.408 1232.82 530.944 1235.48 530.944V528.472C1233.18 528.472 1232.05 530.32 1231.69 531.232V528.568H1229.55V541ZM1245.37 537.568C1245.37 538.648 1244.34 539.464 1242.68 539.464C1240.74 539.464 1239.9 538.384 1239.73 537.688H1237.48C1237.67 539.512 1239.35 541.36 1242.68 541.36C1245.76 541.36 1247.56 539.68 1247.56 537.448C1247.56 535.288 1246.31 534.28 1243.6 533.824L1242.01 533.56C1240.6 533.32 1240.02 532.816 1240.02 531.952C1240.02 530.968 1240.91 530.056 1242.54 530.056C1244.22 530.056 1244.99 531.136 1245.08 531.688H1247.2C1247.08 529.984 1245.76 528.208 1242.56 528.208C1239.66 528.208 1237.88 529.912 1237.88 532.024C1237.88 534.016 1238.96 535.24 1241.75 535.696L1243.28 535.936C1244.77 536.176 1245.37 536.608 1245.37 537.568Z" fill="black"/>
<path d="M1271.86 536.176H1269.56C1269.15 537.112 1268 539.176 1264.81 539.176C1261.09 539.176 1258.66 536.032 1258.66 531.88C1258.66 527.848 1260.9 524.608 1264.62 524.608C1267.98 524.608 1269.22 526.912 1269.56 527.92H1271.91C1271.7 525.712 1269.66 522.448 1264.62 522.448C1259.55 522.448 1256.29 526.288 1256.29 531.88C1256.29 537.544 1259.55 541.36 1264.78 541.36C1269.54 541.36 1271.55 538.192 1271.86 536.176ZM1280.32 528.256C1276.86 528.256 1274.65 530.848 1274.65 534.784C1274.65 538.72 1276.86 541.312 1280.32 541.312C1283.73 541.312 1285.96 538.72 1285.96 534.784C1285.96 530.848 1283.75 528.256 1280.32 528.256ZM1276.86 534.784C1276.86 532.144 1278.11 530.2 1280.32 530.2C1282.5 530.2 1283.75 532.144 1283.75 534.784C1283.75 537.424 1282.5 539.368 1280.32 539.368C1278.11 539.368 1276.86 537.424 1276.86 534.784ZM1296.09 537.568C1296.09 538.648 1295.06 539.464 1293.4 539.464C1291.46 539.464 1290.62 538.384 1290.45 537.688H1288.19C1288.39 539.512 1290.07 541.36 1293.4 541.36C1296.47 541.36 1298.27 539.68 1298.27 537.448C1298.27 535.288 1297.03 534.28 1294.31 533.824L1292.73 533.56C1291.31 533.32 1290.74 532.816 1290.74 531.952C1290.74 530.968 1291.63 530.056 1293.26 530.056C1294.94 530.056 1295.71 531.136 1295.8 531.688H1297.91C1297.79 529.984 1296.47 528.208 1293.28 528.208C1290.38 528.208 1288.6 529.912 1288.6 532.024C1288.6 534.016 1289.68 535.24 1292.47 535.696L1294 535.936C1295.49 536.176 1296.09 536.608 1296.09 537.568ZM1303.45 533.488C1303.45 531.76 1304.56 530.2 1306.31 530.2C1307.92 530.2 1308.64 531.496 1308.64 533.344V541H1310.8V533.488C1310.8 531.76 1311.9 530.2 1313.65 530.2C1315.26 530.2 1315.98 531.496 1315.98 533.344V541H1318.14V532.864C1318.14 530.2 1316.94 528.28 1314.13 528.28C1312.09 528.28 1310.92 529.576 1310.39 530.512C1309.84 529.144 1308.73 528.28 1306.96 528.28C1304.7 528.28 1303.67 530.008 1303.45 530.44V528.568H1301.32V541H1303.45V533.488ZM1321.82 526.072H1324.25V523.336H1321.82V526.072ZM1321.97 541H1324.1V528.568H1321.97V541ZM1327.32 534.76C1327.32 538.768 1329.48 541.312 1332.89 541.312C1335.98 541.312 1337.47 539.248 1337.61 537.544H1335.48C1335.33 538.144 1334.61 539.344 1332.89 539.344C1330.8 539.344 1329.53 537.424 1329.53 534.76C1329.53 532.072 1330.73 530.2 1332.81 530.2C1334.61 530.2 1335.33 531.64 1335.48 532.312H1337.66C1337.54 530.32 1336.13 528.256 1332.81 528.256C1329.45 528.256 1327.32 530.776 1327.32 534.76ZM1347.19 541H1359.65V538.912H1349.47V522.808H1347.19V541ZM1361.84 537.472C1361.84 539.848 1363.57 541.24 1365.97 541.24C1368.1 541.24 1369.26 539.992 1369.76 539.056C1369.95 540.16 1370.84 541 1372.35 541H1372.69V539.008C1372.06 538.912 1371.68 538.528 1371.68 537.664V532.048C1371.68 529.936 1370.19 528.28 1367.02 528.28C1363.64 528.28 1362.39 530.416 1362.39 531.832H1364.62C1364.7 531.232 1365.37 530.128 1367.02 530.128C1368.68 530.128 1369.59 530.968 1369.59 532.096C1369.59 532.936 1369.14 533.344 1367.89 533.512L1365.66 533.8C1362.99 534.16 1361.84 535.528 1361.84 537.472ZM1364 537.52C1364 536.512 1364.65 535.84 1366.14 535.6L1368.1 535.288C1369.02 535.12 1369.5 534.808 1369.64 534.616V535.84C1369.64 537.904 1368.08 539.344 1366.16 539.344C1364.84 539.344 1364 538.6 1364 537.52ZM1374.54 528.568V530.392H1376.51V537.256C1376.51 539.896 1377.99 541 1380.66 541H1381.14V538.936C1379.31 538.912 1378.64 538.312 1378.64 536.656V530.392H1381.07V528.568H1378.64V524.44H1376.51V528.568H1374.54ZM1383.33 528.568V530.392H1385.3V537.256C1385.3 539.896 1386.78 541 1389.45 541H1389.93V538.936C1388.1 538.912 1387.43 538.312 1387.43 536.656V530.392H1389.86V528.568H1387.43V524.44H1385.3V528.568H1383.33ZM1397.69 528.28C1394.57 528.28 1392.33 530.656 1392.33 534.688C1392.33 538.864 1394.61 541.288 1398.05 541.288C1401.31 541.288 1402.7 539.104 1402.85 537.712H1400.73C1400.52 538.312 1399.73 539.32 1398.09 539.32C1395.98 539.32 1394.59 537.688 1394.47 535.144H1402.89V534.28C1402.89 530.632 1401.02 528.28 1397.69 528.28ZM1397.69 530.08C1399.58 530.08 1400.59 531.496 1400.78 533.296H1394.57C1394.85 531.352 1395.96 530.08 1397.69 530.08ZM1412.42 541H1414.7V532.792H1424.06V530.656H1414.7V524.872H1424.88V522.808H1412.42V541ZM1426.95 537.472C1426.95 539.848 1428.68 541.24 1431.08 541.24C1433.21 541.24 1434.37 539.992 1434.87 539.056C1435.06 540.16 1435.95 541 1437.46 541H1437.8V539.008C1437.17 538.912 1436.79 538.528 1436.79 537.664V532.048C1436.79 529.936 1435.3 528.28 1432.13 528.28C1428.75 528.28 1427.5 530.416 1427.5 531.832H1429.73C1429.81 531.232 1430.48 530.128 1432.13 530.128C1433.79 530.128 1434.7 530.968 1434.7 532.096C1434.7 532.936 1434.25 533.344 1433 533.512L1430.77 533.8C1428.1 534.16 1426.95 535.528 1426.95 537.472ZM1429.11 537.52C1429.11 536.512 1429.76 535.84 1431.25 535.6L1433.21 535.288C1434.13 535.12 1434.61 534.808 1434.75 534.616V535.84C1434.75 537.904 1433.19 539.344 1431.27 539.344C1429.95 539.344 1429.11 538.6 1429.11 537.52ZM1442.81 533.488C1442.81 531.76 1443.92 530.2 1445.67 530.2C1447.28 530.2 1448 531.496 1448 533.344V541H1450.16V533.488C1450.16 531.76 1451.26 530.2 1453.01 530.2C1454.62 530.2 1455.34 531.496 1455.34 533.344V541H1457.5V532.864C1457.5 530.2 1456.3 528.28 1453.49 528.28C1451.45 528.28 1450.28 529.576 1449.75 530.512C1449.2 529.144 1448.09 528.28 1446.32 528.28C1444.06 528.28 1443.03 530.008 1442.81 530.44V528.568H1440.68V541H1442.81V533.488ZM1461.18 526.072H1463.61V523.336H1461.18V526.072ZM1461.33 541H1463.46V528.568H1461.33V541ZM1467.37 541H1469.51V522.808H1467.37V541ZM1476.49 541.408C1475.87 543.16 1475.05 543.664 1473.64 543.712V545.776H1473.9C1475.87 545.776 1477.26 545.08 1478.41 541.816L1483.07 528.568H1480.84L1477.72 537.808L1474.6 528.568H1472.2L1476.64 540.928L1476.49 541.408Z" fill="#F1F1F1"/>
<defs>
<linearGradient id="paint0_linear_4_617" x1="462" y1="274" x2="1062" y2="274" gradientUnits="userSpaceOnUse">
<stop/>
<stop offset="1" stop-opacity="0"/>
</linearGradient>
</defs>
</svg>
