<svg width="1920" height="756" viewBox="0 0 1920 756" fill="none" xmlns="http://www.w3.org/2000/svg">
<g clip-path="url(#clip0_9_1958)">
<rect width="600" height="346.425" fill="black"/>
<rect width="600" height="173" fill="url(#paint0_linear_9_1958)"/>
<path d="M26.8789 321.739H29.1829L31.1989 316.699H39.5269L41.5429 321.739H43.9189L36.7189 303.547H34.0309L26.8789 321.739ZM32.0149 314.611L35.3509 306.235L38.6869 314.611H32.0149ZM46.6637 321.739H48.7997V303.547H46.6637V321.739ZM55.2072 321.739H57.3672L59.8872 312.595L62.3832 321.739H64.5912L68.1672 309.307H66.0792L63.5352 318.691L61.0632 309.307H58.7832L56.3352 318.715L53.7912 309.307H51.5352L55.2072 321.739ZM69.9895 318.211C69.9895 320.587 71.7175 321.979 74.1175 321.979C76.2535 321.979 77.4055 320.731 77.9095 319.795C78.1015 320.899 78.9895 321.739 80.5015 321.739H80.8375V319.747C80.2135 319.651 79.8295 319.267 79.8295 318.403V312.787C79.8295 310.675 78.3415 309.019 75.1735 309.019C71.7895 309.019 70.5415 311.155 70.5415 312.571H72.7735C72.8455 311.971 73.5175 310.867 75.1735 310.867C76.8295 310.867 77.7415 311.707 77.7415 312.835C77.7415 313.675 77.2855 314.083 76.0375 314.251L73.8055 314.539C71.1415 314.899 69.9895 316.267 69.9895 318.211ZM72.1495 318.259C72.1495 317.251 72.7975 316.579 74.2855 316.339L76.2535 316.027C77.1655 315.859 77.6455 315.547 77.7895 315.355V316.579C77.7895 318.643 76.2295 320.083 74.3095 320.083C72.9895 320.083 72.1495 319.339 72.1495 318.259ZM86.6269 322.147C86.0029 323.899 85.1869 324.403 83.7709 324.451V326.515H84.0349C86.0029 326.515 87.3949 325.819 88.5469 322.555L93.2029 309.307H90.9709L87.8509 318.547L84.7309 309.307H82.3309L86.7709 321.667L86.6269 322.147ZM102.794 318.307C102.794 319.387 101.762 320.203 100.106 320.203C98.1625 320.203 97.3225 319.123 97.1545 318.427H94.8985C95.0905 320.251 96.7705 322.099 100.106 322.099C103.178 322.099 104.978 320.419 104.978 318.187C104.978 316.027 103.73 315.019 101.018 314.563L99.4345 314.299C98.0185 314.059 97.4425 313.555 97.4425 312.691C97.4425 311.707 98.3305 310.795 99.9625 310.795C101.642 310.795 102.41 311.875 102.506 312.427H104.618C104.498 310.723 103.178 308.947 99.9865 308.947C97.0825 308.947 95.3065 310.651 95.3065 312.763C95.3065 314.755 96.3865 315.979 99.1705 316.435L100.706 316.675C102.194 316.915 102.794 317.347 102.794 318.307ZM123.719 309.307H121.583V316.795C121.583 318.571 120.335 320.083 118.607 320.083C116.903 320.083 116.087 318.859 116.087 316.987V309.307H113.927V317.515C113.927 320.107 115.319 322.003 117.935 322.003C120.311 322.003 121.295 320.275 121.583 319.819V321.739H123.719V309.307ZM134.505 318.307C134.505 319.387 133.473 320.203 131.817 320.203C129.873 320.203 129.033 319.123 128.865 318.427H126.609C126.801 320.251 128.481 322.099 131.817 322.099C134.889 322.099 136.689 320.419 136.689 318.187C136.689 316.027 135.441 315.019 132.729 314.563L131.145 314.299C129.729 314.059 129.153 313.555 129.153 312.691C129.153 311.707 130.041 310.795 131.673 310.795C133.353 310.795 134.121 311.875 134.217 312.427H136.329C136.209 310.723 134.889 308.947 131.697 308.947C128.793 308.947 127.017 310.651 127.017 312.763C127.017 314.755 128.097 315.979 130.881 316.435L132.417 316.675C133.905 316.915 134.505 317.347 134.505 318.307ZM144.437 309.019C141.317 309.019 139.085 311.395 139.085 315.427C139.085 319.603 141.365 322.027 144.797 322.027C148.061 322.027 149.453 319.843 149.597 318.451H147.485C147.269 319.051 146.477 320.059 144.845 320.059C142.733 320.059 141.341 318.427 141.221 315.883H149.645V315.019C149.645 311.371 147.773 309.019 144.437 309.019ZM144.437 310.819C146.333 310.819 147.341 312.235 147.533 314.035H141.317C141.605 312.091 142.709 310.819 144.437 310.819ZM160.924 319.627C161.212 320.227 162.388 322.027 164.884 322.027C167.644 322.027 169.852 319.771 169.852 315.523C169.852 311.275 167.812 309.019 164.908 309.019C162.34 309.019 161.188 310.915 160.924 311.563V303.547H158.788V321.739H160.924V319.627ZM164.404 320.083C162.388 320.083 160.876 318.163 160.876 315.523C160.876 312.835 162.364 310.963 164.404 310.963C166.324 310.963 167.644 312.643 167.644 315.523C167.644 318.355 166.3 320.083 164.404 320.083ZM173.109 321.739H175.245V303.547H173.109V321.739ZM178.364 318.211C178.364 320.587 180.092 321.979 182.492 321.979C184.628 321.979 185.78 320.731 186.284 319.795C186.476 320.899 187.364 321.739 188.876 321.739H189.212V319.747C188.588 319.651 188.204 319.267 188.204 318.403V312.787C188.204 310.675 186.716 309.019 183.548 309.019C180.164 309.019 178.916 311.155 178.916 312.571H181.148C181.22 311.971 181.892 310.867 183.548 310.867C185.204 310.867 186.116 311.707 186.116 312.835C186.116 313.675 185.66 314.083 184.412 314.251L182.18 314.539C179.516 314.899 178.364 316.267 178.364 318.211ZM180.524 318.259C180.524 317.251 181.172 316.579 182.66 316.339L184.628 316.027C185.54 315.859 186.02 315.547 186.164 315.355V316.579C186.164 318.643 184.604 320.083 182.684 320.083C181.364 320.083 180.524 319.339 180.524 318.259ZM191.445 315.499C191.445 319.507 193.605 322.051 197.013 322.051C200.109 322.051 201.597 319.987 201.741 318.283H199.605C199.461 318.883 198.741 320.083 197.013 320.083C194.925 320.083 193.653 318.163 193.653 315.499C193.653 312.811 194.853 310.939 196.941 310.939C198.741 310.939 199.461 312.379 199.605 313.051H201.789C201.669 311.059 200.253 308.995 196.941 308.995C193.581 308.995 191.445 311.515 191.445 315.499ZM204.937 321.739H207.073V318.595L209.185 316.027L213.001 321.739H215.353L210.649 314.323L214.897 309.307H212.329L207.073 315.787V303.547H204.937V321.739ZM223.036 318.211C223.036 320.587 224.764 321.979 227.164 321.979C229.3 321.979 230.452 320.731 230.956 319.795C231.148 320.899 232.036 321.739 233.548 321.739H233.884V319.747C233.26 319.651 232.876 319.267 232.876 318.403V312.787C232.876 310.675 231.388 309.019 228.22 309.019C224.836 309.019 223.588 311.155 223.588 312.571H225.82C225.892 311.971 226.564 310.867 228.22 310.867C229.876 310.867 230.788 311.707 230.788 312.835C230.788 313.675 230.332 314.083 229.084 314.251L226.852 314.539C224.188 314.899 223.036 316.267 223.036 318.211ZM225.196 318.259C225.196 317.251 225.844 316.579 227.332 316.339L229.3 316.027C230.212 315.859 230.692 315.547 230.836 315.355V316.579C230.836 318.643 229.276 320.083 227.356 320.083C226.036 320.083 225.196 319.339 225.196 318.259ZM236.765 321.739H238.901V314.347C238.901 312.619 240.053 310.963 241.925 310.963C243.629 310.963 244.565 312.259 244.565 314.203V321.739H246.701V313.771C246.701 310.963 245.261 309.019 242.621 309.019C240.053 309.019 239.069 310.915 238.901 311.275V309.307H236.765V321.739ZM258.804 319.483V321.739H260.94V303.547H258.804V311.347C258.492 310.651 257.484 309.019 255.036 309.019C252.108 309.019 249.876 311.371 249.876 315.523C249.876 319.699 252.108 322.027 255.036 322.027C257.436 322.027 258.54 320.179 258.804 319.483ZM255.324 310.963C257.388 310.963 258.852 312.835 258.852 315.523C258.852 318.163 257.34 320.083 255.372 320.083C253.476 320.083 252.084 318.283 252.084 315.523C252.084 312.715 253.428 310.963 255.324 310.963ZM273.317 321.739H275.477L277.997 312.595L280.493 321.739H282.701L286.277 309.307H284.189L281.645 318.691L279.173 309.307H276.893L274.445 318.715L271.901 309.307H269.645L273.317 321.739ZM288.983 321.739H291.119V314.347C291.119 312.619 292.271 310.963 294.143 310.963C295.847 310.963 296.783 312.259 296.783 314.203V321.739H298.919V313.771C298.919 310.963 297.479 309.019 294.839 309.019C292.271 309.019 291.287 310.915 291.119 311.275V303.547H288.983V321.739ZM302.574 306.811H304.998V304.075H302.574V306.811ZM302.718 321.739H304.854V309.307H302.718V321.739ZM307.758 309.307V311.131H309.726V317.995C309.726 320.635 311.214 321.739 313.878 321.739H314.358V319.675C312.534 319.651 311.862 319.051 311.862 317.395V311.131H314.286V309.307H311.862V305.179H309.726V309.307H307.758ZM322.117 309.019C318.997 309.019 316.765 311.395 316.765 315.427C316.765 319.603 319.045 322.027 322.477 322.027C325.741 322.027 327.133 319.843 327.277 318.451H325.165C324.949 319.051 324.157 320.059 322.525 320.059C320.413 320.059 319.021 318.427 318.901 315.883H327.325V315.019C327.325 311.371 325.453 309.019 322.117 309.019ZM322.117 310.819C324.013 310.819 325.021 312.235 325.213 314.035H318.997C319.285 312.091 320.389 310.819 322.117 310.819ZM338.604 319.627C338.892 320.227 340.068 322.027 342.564 322.027C345.348 322.027 347.532 319.795 347.532 315.523C347.532 311.275 345.492 309.019 342.588 309.019C340.02 309.019 338.868 310.915 338.604 311.563V309.307H336.468V326.515H338.604V319.627ZM342.084 320.083C340.068 320.083 338.556 318.163 338.556 315.523C338.556 312.835 340.044 310.963 342.084 310.963C344.004 310.963 345.324 312.643 345.324 315.523C345.324 318.355 344.004 320.083 342.084 320.083ZM350.765 321.739H352.901V315.835C352.901 313.147 354.029 311.683 356.693 311.683V309.211C354.389 309.211 353.261 311.059 352.901 311.971V309.307H350.765V321.739ZM364.499 308.995C361.043 308.995 358.835 311.587 358.835 315.523C358.835 319.459 361.043 322.051 364.499 322.051C367.907 322.051 370.139 319.459 370.139 315.523C370.139 311.587 367.931 308.995 364.499 308.995ZM361.043 315.523C361.043 312.883 362.291 310.939 364.499 310.939C366.683 310.939 367.931 312.883 367.931 315.523C367.931 318.163 366.683 320.107 364.499 320.107C362.291 320.107 361.043 318.163 361.043 315.523ZM375.471 314.227C375.471 312.499 376.575 310.939 378.327 310.939C379.935 310.939 380.655 312.235 380.655 314.083V321.739H382.815V314.227C382.815 312.499 383.919 310.939 385.671 310.939C387.279 310.939 387.999 312.235 387.999 314.083V321.739H390.159V313.603C390.159 310.939 388.959 309.019 386.151 309.019C384.111 309.019 382.935 310.315 382.407 311.251C381.855 309.883 380.751 309.019 378.975 309.019C376.719 309.019 375.687 310.747 375.471 311.179V309.307H373.335V321.739H375.471V314.227ZM393.84 306.811H396.264V304.075H393.84V306.811ZM393.984 321.739H396.12V309.307H393.984V321.739ZM400.007 321.739H402.143V314.347C402.143 312.619 403.295 310.963 405.167 310.963C406.871 310.963 407.807 312.259 407.807 314.203V321.739H409.943V313.771C409.943 310.963 408.503 309.019 405.863 309.019C403.295 309.019 402.311 310.915 402.143 311.275V309.307H400.007V321.739ZM418.422 309.019C415.302 309.019 413.07 311.395 413.07 315.427C413.07 319.603 415.35 322.027 418.782 322.027C422.046 322.027 423.438 319.843 423.582 318.451H421.47C421.254 319.051 420.462 320.059 418.83 320.059C416.718 320.059 415.326 318.427 415.206 315.883H423.63V315.019C423.63 311.371 421.758 309.019 418.422 309.019ZM418.422 310.819C420.318 310.819 421.326 312.235 421.518 314.035H415.302C415.59 312.091 416.694 310.819 418.422 310.819ZM426.796 321.739H428.932V314.347C428.932 312.619 430.084 310.963 431.956 310.963C433.66 310.963 434.596 312.259 434.596 314.203V321.739H436.732V313.771C436.732 310.963 435.292 309.019 432.652 309.019C430.084 309.019 429.1 310.915 428.932 311.275V309.307H426.796V321.739ZM439.406 309.307V311.131H441.374V317.995C441.374 320.635 442.862 321.739 445.526 321.739H446.006V319.675C444.182 319.651 443.51 319.051 443.51 317.395V311.131H445.934V309.307H443.51V305.179H441.374V309.307H439.406ZM449.226 321.739H451.362V303.547H449.226V321.739ZM458.346 322.147C457.722 323.899 456.906 324.403 455.49 324.451V326.515H455.754C457.722 326.515 459.114 325.819 460.266 322.555L464.922 309.307H462.69L459.57 318.547L456.45 309.307H454.05L458.49 321.667L458.346 322.147Z" fill="white"/>
<g clip-path="url(#clip1_9_1958)">
<path d="M48 28C36.96 28 28 36.96 28 48C28 59.04 36.96 68 48 68C59.04 68 68 59.04 68 48C68 36.96 59.04 28 48 28ZM44 58L34 48L36.82 45.18L44 52.34L59.18 37.16L62 40L44 58Z" fill="#469C60"/>
</g>
<rect width="600" height="346.425" transform="translate(660)" fill="black"/>
<rect x="660" width="600" height="173" fill="url(#paint1_linear_9_1958)"/>
<path d="M695.687 319.963C692.255 319.963 690.599 317.731 690.599 314.683V303.547H688.319V314.875C688.319 319.003 690.647 322.099 695.687 322.099C700.583 322.099 702.959 318.931 702.959 314.875V303.547H700.751V314.683C700.751 317.731 699.071 319.963 695.687 319.963ZM714.044 318.307C714.044 319.387 713.012 320.203 711.356 320.203C709.412 320.203 708.572 319.123 708.404 318.427H706.148C706.34 320.251 708.02 322.099 711.356 322.099C714.428 322.099 716.228 320.419 716.228 318.187C716.228 316.027 714.98 315.019 712.268 314.563L710.684 314.299C709.268 314.059 708.692 313.555 708.692 312.691C708.692 311.707 709.58 310.795 711.212 310.795C712.892 310.795 713.66 311.875 713.756 312.427H715.868C715.748 310.723 714.428 308.947 711.236 308.947C708.332 308.947 706.556 310.651 706.556 312.763C706.556 314.755 707.636 315.979 710.42 316.435L711.956 316.675C713.444 316.915 714.044 317.347 714.044 318.307ZM723.977 309.019C720.857 309.019 718.625 311.395 718.625 315.427C718.625 319.603 720.905 322.027 724.337 322.027C727.601 322.027 728.993 319.843 729.137 318.451H727.025C726.809 319.051 726.017 320.059 724.385 320.059C722.273 320.059 720.881 318.427 720.761 315.883H729.185V315.019C729.185 311.371 727.313 309.019 723.977 309.019ZM723.977 310.819C725.873 310.819 726.881 312.235 727.073 314.035H720.857C721.145 312.091 722.249 310.819 723.977 310.819ZM753.615 316.915H751.311C750.903 317.851 749.751 319.915 746.559 319.915C742.839 319.915 740.415 316.771 740.415 312.619C740.415 308.587 742.647 305.347 746.367 305.347C749.727 305.347 750.975 307.651 751.311 308.659H753.663C753.447 306.451 751.407 303.187 746.367 303.187C741.303 303.187 738.039 307.027 738.039 312.619C738.039 318.283 741.303 322.099 746.535 322.099C751.287 322.099 753.303 318.931 753.615 316.915ZM762.07 308.995C758.614 308.995 756.406 311.587 756.406 315.523C756.406 319.459 758.614 322.051 762.07 322.051C765.478 322.051 767.71 319.459 767.71 315.523C767.71 311.587 765.502 308.995 762.07 308.995ZM758.614 315.523C758.614 312.883 759.862 310.939 762.07 310.939C764.254 310.939 765.502 312.883 765.502 315.523C765.502 318.163 764.254 320.107 762.07 320.107C759.862 320.107 758.614 318.163 758.614 315.523ZM777.841 318.307C777.841 319.387 776.809 320.203 775.153 320.203C773.209 320.203 772.369 319.123 772.201 318.427H769.945C770.137 320.251 771.817 322.099 775.153 322.099C778.225 322.099 780.025 320.419 780.025 318.187C780.025 316.027 778.777 315.019 776.065 314.563L774.481 314.299C773.065 314.059 772.489 313.555 772.489 312.691C772.489 311.707 773.377 310.795 775.009 310.795C776.689 310.795 777.457 311.875 777.553 312.427H779.665C779.545 310.723 778.225 308.947 775.033 308.947C772.129 308.947 770.353 310.651 770.353 312.763C770.353 314.755 771.433 315.979 774.217 316.435L775.753 316.675C777.241 316.915 777.841 317.347 777.841 318.307ZM785.205 314.227C785.205 312.499 786.309 310.939 788.061 310.939C789.669 310.939 790.389 312.235 790.389 314.083V321.739H792.549V314.227C792.549 312.499 793.653 310.939 795.405 310.939C797.013 310.939 797.733 312.235 797.733 314.083V321.739H799.893V313.603C799.893 310.939 798.693 309.019 795.885 309.019C793.845 309.019 792.669 310.315 792.141 311.251C791.589 309.883 790.485 309.019 788.709 309.019C786.453 309.019 785.421 310.747 785.205 311.179V309.307H783.069V321.739H785.205V314.227ZM808.71 308.995C805.254 308.995 803.046 311.587 803.046 315.523C803.046 319.459 805.254 322.051 808.71 322.051C812.118 322.051 814.35 319.459 814.35 315.523C814.35 311.587 812.142 308.995 808.71 308.995ZM805.254 315.523C805.254 312.883 806.502 310.939 808.71 310.939C810.894 310.939 812.142 312.883 812.142 315.523C812.142 318.163 810.894 320.107 808.71 320.107C806.502 320.107 805.254 318.163 805.254 315.523ZM824.482 318.307C824.482 319.387 823.45 320.203 821.794 320.203C819.85 320.203 819.01 319.123 818.842 318.427H816.586C816.778 320.251 818.458 322.099 821.794 322.099C824.866 322.099 826.666 320.419 826.666 318.187C826.666 316.027 825.418 315.019 822.706 314.563L821.122 314.299C819.706 314.059 819.13 313.555 819.13 312.691C819.13 311.707 820.018 310.795 821.65 310.795C823.33 310.795 824.098 311.875 824.194 312.427H826.306C826.186 310.723 824.866 308.947 821.674 308.947C818.77 308.947 816.994 310.651 816.994 312.763C816.994 314.755 818.074 315.979 820.858 316.435L822.394 316.675C823.882 316.915 824.482 317.347 824.482 318.307ZM834.703 303.547L841.855 321.739H844.255L851.287 303.547H848.887L843.103 318.835L837.295 303.547H834.703ZM853.988 306.811H856.412V304.075H853.988V306.811ZM854.132 321.739H856.268V309.307H854.132V321.739ZM865.148 308.995C861.692 308.995 859.484 311.587 859.484 315.523C859.484 319.459 861.692 322.051 865.148 322.051C868.556 322.051 870.788 319.459 870.788 315.523C870.788 311.587 868.58 308.995 865.148 308.995ZM861.692 315.523C861.692 312.883 862.94 310.939 865.148 310.939C867.332 310.939 868.58 312.883 868.58 315.523C868.58 318.163 867.332 320.107 865.148 320.107C862.94 320.107 861.692 318.163 861.692 315.523ZM874.007 321.739H876.143V303.547H874.007V321.739ZM884.711 309.019C881.591 309.019 879.359 311.395 879.359 315.427C879.359 319.603 881.639 322.027 885.071 322.027C888.335 322.027 889.727 319.843 889.871 318.451H887.759C887.543 319.051 886.751 320.059 885.119 320.059C883.007 320.059 881.615 318.427 881.495 315.883H889.919V315.019C889.919 311.371 888.047 309.019 884.711 309.019ZM884.711 310.819C886.607 310.819 887.615 312.235 887.807 314.035H881.591C881.879 312.091 882.983 310.819 884.711 310.819ZM892.102 309.307V311.131H894.07V317.995C894.07 320.635 895.558 321.739 898.222 321.739H898.702V319.675C896.878 319.651 896.206 319.051 896.206 317.395V311.131H898.63V309.307H896.206V305.179H894.07V309.307H892.102ZM907.154 318.211C907.154 320.587 908.882 321.979 911.282 321.979C913.418 321.979 914.57 320.731 915.074 319.795C915.266 320.899 916.154 321.739 917.666 321.739H918.002V319.747C917.378 319.651 916.994 319.267 916.994 318.403V312.787C916.994 310.675 915.506 309.019 912.338 309.019C908.954 309.019 907.706 311.155 907.706 312.571H909.938C910.01 311.971 910.682 310.867 912.338 310.867C913.994 310.867 914.906 311.707 914.906 312.835C914.906 313.675 914.45 314.083 913.202 314.251L910.97 314.539C908.306 314.899 907.154 316.267 907.154 318.211ZM909.314 318.259C909.314 317.251 909.962 316.579 911.45 316.339L913.418 316.027C914.33 315.859 914.81 315.547 914.954 315.355V316.579C914.954 318.643 913.394 320.083 911.474 320.083C910.154 320.083 909.314 319.339 909.314 318.259ZM927.818 318.307C927.818 319.387 926.786 320.203 925.13 320.203C923.186 320.203 922.346 319.123 922.178 318.427H919.922C920.114 320.251 921.794 322.099 925.13 322.099C928.202 322.099 930.002 320.419 930.002 318.187C930.002 316.027 928.754 315.019 926.042 314.563L924.458 314.299C923.042 314.059 922.466 313.555 922.466 312.691C922.466 311.707 923.354 310.795 924.986 310.795C926.666 310.795 927.434 311.875 927.53 312.427H929.642C929.522 310.723 928.202 308.947 925.01 308.947C922.106 308.947 920.33 310.651 920.33 312.763C920.33 314.755 921.41 315.979 924.194 316.435L925.73 316.675C927.218 316.915 927.818 317.347 927.818 318.307ZM938.279 318.211C938.279 320.587 940.007 321.979 942.407 321.979C944.543 321.979 945.695 320.731 946.199 319.795C946.391 320.899 947.279 321.739 948.791 321.739H949.127V319.747C948.503 319.651 948.119 319.267 948.119 318.403V312.787C948.119 310.675 946.631 309.019 943.463 309.019C940.079 309.019 938.831 311.155 938.831 312.571H941.063C941.135 311.971 941.807 310.867 943.463 310.867C945.119 310.867 946.031 311.707 946.031 312.835C946.031 313.675 945.575 314.083 944.327 314.251L942.095 314.539C939.431 314.899 938.279 316.267 938.279 318.211ZM940.439 318.259C940.439 317.251 941.087 316.579 942.575 316.339L944.543 316.027C945.455 315.859 945.935 315.547 946.079 315.355V316.579C946.079 318.643 944.519 320.083 942.599 320.083C941.279 320.083 940.439 319.339 940.439 318.259ZM951.359 315.499C951.359 319.507 953.519 322.051 956.927 322.051C960.023 322.051 961.511 319.987 961.655 318.283H959.519C959.375 318.883 958.655 320.083 956.927 320.083C954.839 320.083 953.567 318.163 953.567 315.499C953.567 312.811 954.767 310.939 956.855 310.939C958.655 310.939 959.375 312.379 959.519 313.051H961.703C961.583 311.059 960.167 308.995 956.855 308.995C953.495 308.995 951.359 311.515 951.359 315.499ZM964.085 315.499C964.085 319.507 966.245 322.051 969.653 322.051C972.749 322.051 974.237 319.987 974.381 318.283H972.245C972.101 318.883 971.381 320.083 969.653 320.083C967.565 320.083 966.293 318.163 966.293 315.499C966.293 312.811 967.493 310.939 969.581 310.939C971.381 310.939 972.101 312.379 972.245 313.051H974.429C974.309 311.059 972.893 308.995 969.581 308.995C966.221 308.995 964.085 311.515 964.085 315.499ZM982.164 309.019C979.044 309.019 976.812 311.395 976.812 315.427C976.812 319.603 979.092 322.027 982.524 322.027C985.788 322.027 987.18 319.843 987.324 318.451H985.212C984.996 319.051 984.204 320.059 982.572 320.059C980.46 320.059 979.068 318.427 978.948 315.883H987.372V315.019C987.372 311.371 985.5 309.019 982.164 309.019ZM982.164 310.819C984.06 310.819 985.068 312.235 985.26 314.035H979.044C979.332 312.091 980.436 310.819 982.164 310.819ZM990.538 321.739H992.674V314.347C992.674 312.619 993.826 310.963 995.698 310.963C997.402 310.963 998.338 312.259 998.338 314.203V321.739H1000.47V313.771C1000.47 310.963 999.034 309.019 996.394 309.019C993.826 309.019 992.842 310.915 992.674 311.275V309.307H990.538V321.739ZM1003.15 309.307V311.131H1005.12V317.995C1005.12 320.635 1006.6 321.739 1009.27 321.739H1009.75V319.675C1007.92 319.651 1007.25 319.051 1007.25 317.395V311.131H1009.68V309.307H1007.25V305.179H1005.12V309.307H1003.15Z" fill="white"/>
<circle cx="960" cy="173" r="39" transform="rotate(90 960 173)" fill="#6300FF"/>
<g clip-path="url(#clip2_9_1958)">
<path d="M708 28C696.96 28 688 36.96 688 48C688 59.04 696.96 68 708 68C719.04 68 728 59.04 728 48C728 36.96 719.04 28 708 28ZM704 58L694 48L696.82 45.18L704 52.34L719.18 37.16L722 40L704 58Z" fill="#469C60"/>
</g>
<rect width="600" height="346.425" transform="translate(1320)" fill="#FFF8E8"/>
<path d="M1348.39 321.739H1354.41C1359.93 321.739 1363.53 318.499 1363.53 312.619C1363.53 306.763 1359.96 303.547 1354.41 303.547H1348.39V321.739ZM1354.32 319.699H1350.67V305.563H1354.32C1358.4 305.563 1361.18 308.035 1361.18 312.619C1361.18 317.179 1358.4 319.699 1354.32 319.699ZM1371.94 308.995C1368.48 308.995 1366.27 311.587 1366.27 315.523C1366.27 319.459 1368.48 322.051 1371.94 322.051C1375.34 322.051 1377.58 319.459 1377.58 315.523C1377.58 311.587 1375.37 308.995 1371.94 308.995ZM1368.48 315.523C1368.48 312.883 1369.73 310.939 1371.94 310.939C1374.12 310.939 1375.37 312.883 1375.37 315.523C1375.37 318.163 1374.12 320.107 1371.94 320.107C1369.73 320.107 1368.48 318.163 1368.48 315.523ZM1380.77 321.739H1382.91V314.347C1382.91 312.619 1384.06 310.963 1385.93 310.963C1387.64 310.963 1388.57 312.259 1388.57 314.203V321.739H1390.71V313.771C1390.71 310.963 1389.27 309.019 1386.63 309.019C1384.06 309.019 1383.08 310.915 1382.91 311.275V309.307H1380.77V321.739ZM1393.87 309.235L1395.14 309.859C1396.1 308.827 1397.04 307.123 1397.04 305.107V303.547H1394.88V305.059C1394.88 306.715 1394.49 307.987 1393.87 309.235ZM1400.02 309.307V311.131H1401.98V317.995C1401.98 320.635 1403.47 321.739 1406.14 321.739H1406.62V319.675C1404.79 319.651 1404.12 319.051 1404.12 317.395V311.131H1406.54V309.307H1404.12V305.179H1401.98V309.307H1400.02ZM1422.72 318.307C1422.72 319.387 1421.69 320.203 1420.04 320.203C1418.09 320.203 1417.25 319.123 1417.08 318.427H1414.83C1415.02 320.251 1416.7 322.099 1420.04 322.099C1423.11 322.099 1424.91 320.419 1424.91 318.187C1424.91 316.027 1423.66 315.019 1420.95 314.563L1419.36 314.299C1417.95 314.059 1417.37 313.555 1417.37 312.691C1417.37 311.707 1418.26 310.795 1419.89 310.795C1421.57 310.795 1422.34 311.875 1422.44 312.427H1424.55C1424.43 310.723 1423.11 308.947 1419.92 308.947C1417.01 308.947 1415.24 310.651 1415.24 312.763C1415.24 314.755 1416.32 315.979 1419.1 316.435L1420.64 316.675C1422.12 316.915 1422.72 317.347 1422.72 318.307ZM1432.97 308.995C1429.51 308.995 1427.3 311.587 1427.3 315.523C1427.3 319.459 1429.51 322.051 1432.97 322.051C1436.38 322.051 1438.61 319.459 1438.61 315.523C1438.61 311.587 1436.4 308.995 1432.97 308.995ZM1429.51 315.523C1429.51 312.883 1430.76 310.939 1432.97 310.939C1435.15 310.939 1436.4 312.883 1436.4 315.523C1436.4 318.163 1435.15 320.107 1432.97 320.107C1430.76 320.107 1429.51 318.163 1429.51 315.523ZM1441.83 321.739H1443.96V303.547H1441.83V321.739ZM1452.53 309.019C1449.41 309.019 1447.18 311.395 1447.18 315.427C1447.18 319.603 1449.46 322.027 1452.89 322.027C1456.16 322.027 1457.55 319.843 1457.69 318.451H1455.58C1455.36 319.051 1454.57 320.059 1452.94 320.059C1450.83 320.059 1449.44 318.427 1449.32 315.883H1457.74V315.019C1457.74 311.371 1455.87 309.019 1452.53 309.019ZM1452.53 310.819C1454.43 310.819 1455.44 312.235 1455.63 314.035H1449.41C1449.7 312.091 1450.8 310.819 1452.53 310.819ZM1460.93 321.739H1463.07V303.547H1460.93V321.739ZM1470.05 322.147C1469.42 323.899 1468.61 324.403 1467.19 324.451V326.515H1467.46C1469.42 326.515 1470.82 325.819 1471.97 322.555L1476.62 309.307H1474.39L1471.27 318.547L1468.15 309.307H1465.75L1470.19 321.667L1470.05 322.147ZM1485.19 321.739H1487.32V315.835C1487.32 313.147 1488.45 311.683 1491.11 311.683V309.211C1488.81 309.211 1487.68 311.059 1487.32 311.971V309.307H1485.19V321.739ZM1498.61 309.019C1495.49 309.019 1493.26 311.395 1493.26 315.427C1493.26 319.603 1495.54 322.027 1498.97 322.027C1502.23 322.027 1503.63 319.843 1503.77 318.451H1501.66C1501.44 319.051 1500.65 320.059 1499.02 320.059C1496.91 320.059 1495.51 318.427 1495.39 315.883H1503.82V315.019C1503.82 311.371 1501.95 309.019 1498.61 309.019ZM1498.61 310.819C1500.51 310.819 1501.51 312.235 1501.71 314.035H1495.49C1495.78 312.091 1496.88 310.819 1498.61 310.819ZM1507.01 321.739H1509.14V303.547H1507.01V321.739ZM1516.13 322.147C1515.5 323.899 1514.69 324.403 1513.27 324.451V326.515H1513.53C1515.5 326.515 1516.89 325.819 1518.05 322.555L1522.7 309.307H1520.47L1517.35 318.547L1514.23 309.307H1511.83L1516.27 321.667L1516.13 322.147ZM1536.23 308.995C1532.78 308.995 1530.57 311.587 1530.57 315.523C1530.57 319.459 1532.78 322.051 1536.23 322.051C1539.64 322.051 1541.87 319.459 1541.87 315.523C1541.87 311.587 1539.67 308.995 1536.23 308.995ZM1532.78 315.523C1532.78 312.883 1534.03 310.939 1536.23 310.939C1538.42 310.939 1539.67 312.883 1539.67 315.523C1539.67 318.163 1538.42 320.107 1536.23 320.107C1534.03 320.107 1532.78 318.163 1532.78 315.523ZM1545.07 321.739H1547.21V314.347C1547.21 312.619 1548.36 310.963 1550.23 310.963C1551.93 310.963 1552.87 312.259 1552.87 314.203V321.739H1555.01V313.771C1555.01 310.963 1553.57 309.019 1550.93 309.019C1548.36 309.019 1547.37 310.915 1547.21 311.275V309.307H1545.07V321.739ZM1580.07 316.915H1577.76C1577.36 317.851 1576.2 319.915 1573.01 319.915C1569.29 319.915 1566.87 316.771 1566.87 312.619C1566.87 308.587 1569.1 305.347 1572.82 305.347C1576.18 305.347 1577.43 307.651 1577.76 308.659H1580.12C1579.9 306.451 1577.86 303.187 1572.82 303.187C1567.76 303.187 1564.49 307.027 1564.49 312.619C1564.49 318.283 1567.76 322.099 1572.99 322.099C1577.74 322.099 1579.76 318.931 1580.07 316.915ZM1588.52 308.995C1585.07 308.995 1582.86 311.587 1582.86 315.523C1582.86 319.459 1585.07 322.051 1588.52 322.051C1591.93 322.051 1594.16 319.459 1594.16 315.523C1594.16 311.587 1591.95 308.995 1588.52 308.995ZM1585.07 315.523C1585.07 312.883 1586.31 310.939 1588.52 310.939C1590.71 310.939 1591.95 312.883 1591.95 315.523C1591.95 318.163 1590.71 320.107 1588.52 320.107C1586.31 320.107 1585.07 318.163 1585.07 315.523ZM1599.49 314.227C1599.49 312.499 1600.6 310.939 1602.35 310.939C1603.96 310.939 1604.68 312.235 1604.68 314.083V321.739H1606.84V314.227C1606.84 312.499 1607.94 310.939 1609.69 310.939C1611.3 310.939 1612.02 312.235 1612.02 314.083V321.739H1614.18V313.603C1614.18 310.939 1612.98 309.019 1610.17 309.019C1608.13 309.019 1606.96 310.315 1606.43 311.251C1605.88 309.883 1604.77 309.019 1603 309.019C1600.74 309.019 1599.71 310.747 1599.49 311.179V309.307H1597.36V321.739H1599.49V314.227ZM1617.86 306.811H1620.29V304.075H1617.86V306.811ZM1618.01 321.739H1620.14V309.307H1618.01V321.739ZM1623.36 315.499C1623.36 319.507 1625.52 322.051 1628.93 322.051C1632.02 322.051 1633.51 319.987 1633.65 318.283H1631.52C1631.37 318.883 1630.65 320.083 1628.93 320.083C1626.84 320.083 1625.57 318.163 1625.57 315.499C1625.57 312.811 1626.77 310.939 1628.85 310.939C1630.65 310.939 1631.37 312.379 1631.52 313.051H1633.7C1633.58 311.059 1632.17 308.995 1628.85 308.995C1625.49 308.995 1623.36 311.515 1623.36 315.499ZM1643.23 321.739H1655.69V319.651H1645.51V303.547H1643.23V321.739ZM1657.88 318.211C1657.88 320.587 1659.61 321.979 1662.01 321.979C1664.14 321.979 1665.3 320.731 1665.8 319.795C1665.99 320.899 1666.88 321.739 1668.39 321.739H1668.73V319.747C1668.1 319.651 1667.72 319.267 1667.72 318.403V312.787C1667.72 310.675 1666.23 309.019 1663.06 309.019C1659.68 309.019 1658.43 311.155 1658.43 312.571H1660.66C1660.74 311.971 1661.41 310.867 1663.06 310.867C1664.72 310.867 1665.63 311.707 1665.63 312.835C1665.63 313.675 1665.18 314.083 1663.93 314.251L1661.7 314.539C1659.03 314.899 1657.88 316.267 1657.88 318.211ZM1660.04 318.259C1660.04 317.251 1660.69 316.579 1662.18 316.339L1664.14 316.027C1665.06 315.859 1665.54 315.547 1665.68 315.355V316.579C1665.68 318.643 1664.12 320.083 1662.2 320.083C1660.88 320.083 1660.04 319.339 1660.04 318.259ZM1670.58 309.307V311.131H1672.55V317.995C1672.55 320.635 1674.03 321.739 1676.7 321.739H1677.18V319.675C1675.35 319.651 1674.68 319.051 1674.68 317.395V311.131H1677.11V309.307H1674.68V305.179H1672.55V309.307H1670.58ZM1679.37 309.307V311.131H1681.34V317.995C1681.34 320.635 1682.82 321.739 1685.49 321.739H1685.97V319.675C1684.14 319.651 1683.47 319.051 1683.47 317.395V311.131H1685.9V309.307H1683.47V305.179H1681.34V309.307H1679.37ZM1693.73 309.019C1690.61 309.019 1688.37 311.395 1688.37 315.427C1688.37 319.603 1690.65 322.027 1694.09 322.027C1697.35 322.027 1698.74 319.843 1698.89 318.451H1696.77C1696.56 319.051 1695.77 320.059 1694.13 320.059C1692.02 320.059 1690.63 318.427 1690.51 315.883H1698.93V315.019C1698.93 311.371 1697.06 309.019 1693.73 309.019ZM1693.73 310.819C1695.62 310.819 1696.63 312.235 1696.82 314.035H1690.61C1690.89 312.091 1692 310.819 1693.73 310.819Z" fill="black"/>
<path d="M1368 28C1356.94 28 1348 36.94 1348 48C1348 59.06 1356.94 68 1368 68C1379.06 68 1388 59.06 1388 48C1388 36.94 1379.06 28 1368 28ZM1378 55.18L1375.18 58L1368 50.82L1360.82 58L1358 55.18L1365.18 48L1358 40.82L1360.82 38L1368 45.18L1375.18 38L1378 40.82L1370.82 48L1378 55.18Z" fill="#CC2C4A"/>
<path d="M1514.35 181.645H1503.5C1502.87 183.638 1500.06 188.007 1493.58 188.007C1485.66 188.007 1480.92 181.33 1480.92 173.035C1480.92 164.74 1485.29 158.131 1493.14 158.131C1500.12 158.131 1502.86 162.807 1503.37 164.995H1514.35C1513.91 157.51 1507.92 148.346 1493.14 148.346C1478.35 148.346 1470 158.761 1470 173.043C1470 187.326 1478.67 197.869 1493.51 197.869C1508.36 197.869 1513.72 188.518 1514.35 181.654V181.645Z" fill="#CCC0A5"/>
<path d="M1543.18 148.346C1528.96 148.346 1519.17 158.199 1519.17 173.103C1519.17 188.007 1528.9 197.861 1543.18 197.861C1557.46 197.861 1567.13 187.947 1567.13 173.103C1567.13 158.259 1557.4 148.346 1543.18 148.346ZM1543.18 188.016C1535.13 188.016 1530.02 181.526 1530.02 173.112C1530.02 164.698 1535.14 158.14 1543.18 158.14C1551.22 158.14 1556.28 164.629 1556.28 173.112C1556.28 181.594 1551.16 188.016 1543.18 188.016Z" fill="#CCC0A5"/>
<path d="M1587.51 177.66C1590.69 178.162 1591.44 178.281 1594.56 178.784C1598.05 179.346 1599.8 180.342 1599.8 183.153C1599.8 186.21 1596.37 188.518 1592.19 188.518C1586.08 188.518 1583.65 185.086 1583.46 183.34H1571.62C1571.75 189.08 1577.1 197.937 1592.2 197.937C1604.12 197.937 1610.67 190.826 1610.67 182.531C1610.67 174.236 1606.86 169.995 1595.82 168.189C1592.76 167.687 1591.83 167.499 1588.9 167.006C1585.28 166.384 1583.66 165.072 1583.66 162.824C1583.66 160.014 1586.47 157.527 1591.58 157.527C1596.69 157.527 1598.81 160.397 1599.37 162.27H1610.35C1609.79 155.968 1605.36 148.363 1591.64 148.363C1579.73 148.363 1572.87 155.1 1572.87 163.335C1572.87 170.634 1576.74 175.999 1587.53 177.677L1587.51 177.66Z" fill="#CCC0A5"/>
<path d="M1639.69 196.745H1648.98L1660.83 162.943V196.745H1671.18V149.47H1655.96L1644.86 180.904L1633.69 149.47H1618.04V196.745H1627.83V163.062L1639.68 196.745H1639.69Z" fill="#CCC0A5"/>
<path d="M1702.52 148.346C1688.29 148.346 1678.51 158.199 1678.51 173.103C1678.51 188.007 1688.23 197.861 1702.52 197.861C1716.8 197.861 1726.46 187.947 1726.46 173.103C1726.46 158.259 1716.74 148.346 1702.52 148.346ZM1702.52 188.016C1694.47 188.016 1689.36 181.526 1689.36 173.112C1689.36 164.698 1694.48 158.14 1702.52 158.14C1710.56 158.14 1715.61 164.629 1715.61 173.112C1715.61 181.594 1710.5 188.016 1702.52 188.016Z" fill="#CCC0A5"/>
<path d="M1746.84 177.66C1750.02 178.162 1750.77 178.281 1753.9 178.784C1757.39 179.346 1759.13 180.342 1759.13 183.153C1759.13 186.21 1755.7 188.518 1751.53 188.518C1745.41 188.518 1742.99 185.086 1742.8 183.34H1730.95C1731.08 189.08 1736.44 197.937 1751.54 197.937C1763.45 197.937 1770 190.826 1770 182.531C1770 174.236 1766.19 169.995 1755.16 168.189C1752.1 167.687 1751.16 167.499 1748.23 167.006C1744.61 166.384 1742.99 165.072 1742.99 162.824C1742.99 160.014 1745.8 157.527 1750.91 157.527C1756.02 157.527 1758.15 160.397 1758.71 162.27H1769.68C1769.12 155.968 1764.69 148.363 1750.97 148.363C1739.06 148.363 1732.2 155.1 1732.2 163.335C1732.2 170.634 1736.07 175.999 1746.86 177.677L1746.84 177.66Z" fill="#CCC0A5"/>
<path fill-rule="evenodd" clip-rule="evenodd" d="M1559.57 135.141C1560.43 135.514 1560.83 136.517 1560.46 137.38L1528.97 210.145C1528.6 211.008 1527.6 211.405 1526.73 211.031C1525.87 210.658 1525.47 209.655 1525.85 208.792L1557.33 136.027C1557.7 135.164 1558.71 134.767 1559.57 135.141Z" fill="#CCC0A5"/>
<rect width="600" height="346.425" transform="translate(0 410)" fill="url(#paint2_linear_9_1958)"/>
<path d="M36.7189 731.739H39.0229L45.2389 716.619V731.739H47.4709V713.547H44.3029L37.9669 729.075L31.6069 713.547H28.3909V731.739H30.5029V716.619L36.7189 731.739ZM50.9582 728.211C50.9582 730.587 52.6862 731.979 55.0862 731.979C57.2222 731.979 58.3742 730.731 58.8782 729.795C59.0702 730.899 59.9582 731.739 61.4702 731.739H61.8062V729.747C61.1822 729.651 60.7982 729.267 60.7982 728.403V722.787C60.7982 720.675 59.3102 719.019 56.1422 719.019C52.7582 719.019 51.5102 721.155 51.5102 722.571H53.7422C53.8142 721.971 54.4862 720.867 56.1422 720.867C57.7982 720.867 58.7102 721.707 58.7102 722.835C58.7102 723.675 58.2542 724.083 57.0062 724.251L54.7742 724.539C52.1102 724.899 50.9582 726.267 50.9582 728.211ZM53.1182 728.259C53.1182 727.251 53.7662 726.579 55.2542 726.339L57.2222 726.027C58.1342 725.859 58.6142 725.547 58.7582 725.355V726.579C58.7582 728.643 57.1982 730.083 55.2782 730.083C53.9582 730.083 53.1182 729.339 53.1182 728.259ZM64.6866 731.739H66.8226V728.595L68.9346 726.027L72.7506 731.739H75.1026L70.3986 724.323L74.6466 719.307H72.0786L66.8226 725.787V713.547H64.6866V731.739ZM81.8359 719.019C78.7159 719.019 76.4839 721.395 76.4839 725.427C76.4839 729.603 78.7639 732.027 82.1959 732.027C85.4599 732.027 86.8519 729.843 86.9959 728.451H84.8839C84.6679 729.051 83.8759 730.059 82.2439 730.059C80.1319 730.059 78.7399 728.427 78.6199 725.883H87.0439V725.019C87.0439 721.371 85.1719 719.019 81.8359 719.019ZM81.8359 720.819C83.7319 720.819 84.7399 722.235 84.9319 724.035H78.7159C79.0039 722.091 80.1079 720.819 81.8359 720.819ZM104.324 729.291V731.499C104.324 733.539 103.148 734.931 101.012 734.931C99.1157 734.931 98.4197 733.899 98.2997 733.395H95.9477C96.0197 734.691 97.3637 736.899 101.012 736.899C104.66 736.899 106.46 734.715 106.46 731.595V719.307H104.324V721.371C104.06 720.699 103.028 719.019 100.628 719.019C97.7237 719.019 95.5157 721.371 95.5157 725.379C95.5157 729.459 97.7717 731.787 100.652 731.787C103.028 731.787 104.036 730.011 104.324 729.291ZM100.988 720.963C103.004 720.963 104.372 722.859 104.372 725.355C104.372 727.947 102.98 729.819 100.964 729.819C99.0677 729.819 97.7477 727.971 97.7477 725.379C97.7477 722.739 99.0677 720.963 100.988 720.963ZM110.296 731.739H112.432V725.835C112.432 723.147 113.56 721.683 116.224 721.683V719.211C113.92 719.211 112.792 721.059 112.432 721.971V719.307H110.296V731.739ZM118.224 728.211C118.224 730.587 119.952 731.979 122.352 731.979C124.488 731.979 125.64 730.731 126.144 729.795C126.336 730.899 127.224 731.739 128.736 731.739H129.072V729.747C128.448 729.651 128.064 729.267 128.064 728.403V722.787C128.064 720.675 126.576 719.019 123.408 719.019C120.024 719.019 118.776 721.155 118.776 722.571H121.008C121.08 721.971 121.752 720.867 123.408 720.867C125.064 720.867 125.976 721.707 125.976 722.835C125.976 723.675 125.52 724.083 124.272 724.251L122.04 724.539C119.376 724.899 118.224 726.267 118.224 728.211ZM120.384 728.259C120.384 727.251 121.032 726.579 122.52 726.339L124.488 726.027C125.4 725.859 125.88 725.547 126.024 725.355V726.579C126.024 728.643 124.464 730.083 122.544 730.083C121.224 730.083 120.384 729.339 120.384 728.259ZM140.28 729.483V731.739H142.416V713.547H140.28V721.347C139.968 720.651 138.96 719.019 136.512 719.019C133.584 719.019 131.352 721.371 131.352 725.523C131.352 729.699 133.584 732.027 136.512 732.027C138.912 732.027 140.016 730.179 140.28 729.483ZM136.8 720.963C138.864 720.963 140.328 722.835 140.328 725.523C140.328 728.163 138.816 730.083 136.848 730.083C134.952 730.083 133.56 728.283 133.56 725.523C133.56 722.715 134.904 720.963 136.8 720.963ZM146.153 716.811H148.577V714.075H146.153V716.811ZM146.297 731.739H148.433V719.307H146.297V731.739ZM157 719.019C153.88 719.019 151.648 721.395 151.648 725.427C151.648 729.603 153.928 732.027 157.36 732.027C160.624 732.027 162.016 729.843 162.16 728.451H160.048C159.832 729.051 159.04 730.059 157.408 730.059C155.296 730.059 153.904 728.427 153.784 725.883H162.208V725.019C162.208 721.371 160.336 719.019 157 719.019ZM157 720.819C158.896 720.819 159.904 722.235 160.096 724.035H153.88C154.168 722.091 155.272 720.819 157 720.819ZM165.374 731.739H167.51V724.347C167.51 722.619 168.662 720.963 170.534 720.963C172.238 720.963 173.174 722.259 173.174 724.203V731.739H175.31V723.771C175.31 720.963 173.87 719.019 171.23 719.019C168.662 719.019 167.678 720.915 167.51 721.275V719.307H165.374V731.739ZM177.984 719.307V721.131H179.952V727.995C179.952 730.635 181.44 731.739 184.104 731.739H184.584V729.675C182.76 729.651 182.088 729.051 182.088 727.395V721.131H184.512V719.307H182.088V715.179H179.952V719.307H177.984ZM194.693 728.307C194.693 729.387 193.661 730.203 192.005 730.203C190.061 730.203 189.221 729.123 189.053 728.427H186.797C186.989 730.251 188.669 732.099 192.005 732.099C195.077 732.099 196.877 730.419 196.877 728.187C196.877 726.027 195.629 725.019 192.917 724.563L191.333 724.299C189.917 724.059 189.341 723.555 189.341 722.691C189.341 721.707 190.229 720.795 191.861 720.795C193.541 720.795 194.309 721.875 194.405 722.427H196.517C196.397 720.723 195.077 718.947 191.885 718.947C188.981 718.947 187.205 720.651 187.205 722.763C187.205 724.755 188.285 725.979 191.069 726.435L192.605 726.675C194.093 726.915 194.693 727.347 194.693 728.307ZM215.618 719.307H213.482V726.795C213.482 728.571 212.234 730.083 210.506 730.083C208.802 730.083 207.986 728.859 207.986 726.987V719.307H205.826V727.515C205.826 730.107 207.218 732.003 209.834 732.003C212.21 732.003 213.194 730.275 213.482 729.819V731.739H215.618V719.307ZM226.404 728.307C226.404 729.387 225.372 730.203 223.716 730.203C221.772 730.203 220.932 729.123 220.764 728.427H218.508C218.7 730.251 220.38 732.099 223.716 732.099C226.788 732.099 228.588 730.419 228.588 728.187C228.588 726.027 227.34 725.019 224.628 724.563L223.044 724.299C221.628 724.059 221.052 723.555 221.052 722.691C221.052 721.707 221.94 720.795 223.572 720.795C225.252 720.795 226.02 721.875 226.116 722.427H228.228C228.108 720.723 226.788 718.947 223.596 718.947C220.692 718.947 218.916 720.651 218.916 722.763C218.916 724.755 219.996 725.979 222.78 726.435L224.316 726.675C225.804 726.915 226.404 727.347 226.404 728.307ZM231.512 716.811H233.936V714.075H231.512V716.811ZM231.656 731.739H233.792V719.307H231.656V731.739ZM237.679 731.739H239.815V724.347C239.815 722.619 240.967 720.963 242.839 720.963C244.543 720.963 245.479 722.259 245.479 724.203V731.739H247.615V723.771C247.615 720.963 246.175 719.019 243.535 719.019C240.967 719.019 239.983 720.915 239.815 721.275V719.307H237.679V731.739ZM259.574 729.291V731.499C259.574 733.539 258.398 734.931 256.262 734.931C254.366 734.931 253.67 733.899 253.55 733.395H251.198C251.27 734.691 252.614 736.899 256.262 736.899C259.91 736.899 261.71 734.715 261.71 731.595V719.307H259.574V721.371C259.31 720.699 258.278 719.019 255.878 719.019C252.974 719.019 250.766 721.371 250.766 725.379C250.766 729.459 253.022 731.787 255.902 731.787C258.278 731.787 259.286 730.011 259.574 729.291ZM256.238 720.963C258.254 720.963 259.622 722.859 259.622 725.355C259.622 727.947 258.23 729.819 256.214 729.819C254.318 729.819 252.998 727.971 252.998 725.379C252.998 722.739 254.318 720.963 256.238 720.963ZM273.682 729.627C273.97 730.227 275.146 732.027 277.642 732.027C280.402 732.027 282.61 729.771 282.61 725.523C282.61 721.275 280.57 719.019 277.666 719.019C275.098 719.019 273.946 720.915 273.682 721.563V713.547H271.546V731.739H273.682V729.627ZM277.162 730.083C275.146 730.083 273.634 728.163 273.634 725.523C273.634 722.835 275.122 720.963 277.162 720.963C279.082 720.963 280.402 722.643 280.402 725.523C280.402 728.355 279.058 730.083 277.162 730.083ZM285.867 731.739H288.003V713.547H285.867V731.739ZM291.122 728.211C291.122 730.587 292.85 731.979 295.25 731.979C297.386 731.979 298.538 730.731 299.042 729.795C299.234 730.899 300.122 731.739 301.634 731.739H301.97V729.747C301.346 729.651 300.962 729.267 300.962 728.403V722.787C300.962 720.675 299.474 719.019 296.306 719.019C292.922 719.019 291.674 721.155 291.674 722.571H293.906C293.978 721.971 294.65 720.867 296.306 720.867C297.962 720.867 298.874 721.707 298.874 722.835C298.874 723.675 298.418 724.083 297.17 724.251L294.938 724.539C292.274 724.899 291.122 726.267 291.122 728.211ZM293.282 728.259C293.282 727.251 293.93 726.579 295.418 726.339L297.386 726.027C298.298 725.859 298.778 725.547 298.922 725.355V726.579C298.922 728.643 297.362 730.083 295.442 730.083C294.122 730.083 293.282 729.339 293.282 728.259ZM304.203 725.499C304.203 729.507 306.363 732.051 309.771 732.051C312.867 732.051 314.355 729.987 314.499 728.283H312.363C312.219 728.883 311.499 730.083 309.771 730.083C307.683 730.083 306.411 728.163 306.411 725.499C306.411 722.811 307.611 720.939 309.699 720.939C311.499 720.939 312.219 722.379 312.363 723.051H314.547C314.427 721.059 313.011 718.995 309.699 718.995C306.339 718.995 304.203 721.515 304.203 725.499ZM317.694 731.739H319.83V728.595L321.942 726.027L325.758 731.739H328.11L323.406 724.323L327.654 719.307H325.086L319.83 725.787V713.547H317.694V731.739ZM335.794 728.211C335.794 730.587 337.522 731.979 339.922 731.979C342.058 731.979 343.21 730.731 343.714 729.795C343.906 730.899 344.794 731.739 346.306 731.739H346.642V729.747C346.018 729.651 345.634 729.267 345.634 728.403V722.787C345.634 720.675 344.146 719.019 340.978 719.019C337.594 719.019 336.346 721.155 336.346 722.571H338.578C338.65 721.971 339.322 720.867 340.978 720.867C342.634 720.867 343.546 721.707 343.546 722.835C343.546 723.675 343.09 724.083 341.842 724.251L339.61 724.539C336.946 724.899 335.794 726.267 335.794 728.211ZM337.954 728.259C337.954 727.251 338.602 726.579 340.09 726.339L342.058 726.027C342.97 725.859 343.45 725.547 343.594 725.355V726.579C343.594 728.643 342.034 730.083 340.114 730.083C338.794 730.083 337.954 729.339 337.954 728.259ZM349.523 731.739H351.659V724.347C351.659 722.619 352.811 720.963 354.683 720.963C356.387 720.963 357.323 722.259 357.323 724.203V731.739H359.459V723.771C359.459 720.963 358.019 719.019 355.379 719.019C352.811 719.019 351.827 720.915 351.659 721.275V719.307H349.523V731.739ZM371.561 729.483V731.739H373.697V713.547H371.561V721.347C371.249 720.651 370.241 719.019 367.793 719.019C364.865 719.019 362.633 721.371 362.633 725.523C362.633 729.699 364.865 732.027 367.793 732.027C370.193 732.027 371.297 730.179 371.561 729.483ZM368.081 720.963C370.145 720.963 371.609 722.835 371.609 725.523C371.609 728.163 370.097 730.083 368.129 730.083C366.233 730.083 364.841 728.283 364.841 725.523C364.841 722.715 366.185 720.963 368.081 720.963ZM386.074 731.739H388.234L390.754 722.595L393.25 731.739H395.458L399.034 719.307H396.946L394.402 728.691L391.93 719.307H389.65L387.202 728.715L384.658 719.307H382.402L386.074 731.739ZM401.741 731.739H403.877V724.347C403.877 722.619 405.029 720.963 406.901 720.963C408.605 720.963 409.541 722.259 409.541 724.203V731.739H411.677V723.771C411.677 720.963 410.237 719.019 407.597 719.019C405.029 719.019 404.045 720.915 403.877 721.275V713.547H401.741V731.739ZM415.332 716.811H417.756V714.075H415.332V716.811ZM415.476 731.739H417.612V719.307H415.476V731.739ZM420.516 719.307V721.131H422.484V727.995C422.484 730.635 423.972 731.739 426.636 731.739H427.116V729.675C425.292 729.651 424.62 729.051 424.62 727.395V721.131H427.044V719.307H424.62V715.179H422.484V719.307H420.516ZM434.875 719.019C431.755 719.019 429.523 721.395 429.523 725.427C429.523 729.603 431.803 732.027 435.235 732.027C438.499 732.027 439.891 729.843 440.035 728.451H437.923C437.707 729.051 436.915 730.059 435.283 730.059C433.171 730.059 431.779 728.427 431.659 725.883H440.083V725.019C440.083 721.371 438.211 719.019 434.875 719.019ZM434.875 720.819C436.771 720.819 437.779 722.235 437.971 724.035H431.755C432.043 722.091 433.147 720.819 434.875 720.819Z" fill="white"/>
<g clip-path="url(#clip3_9_1958)">
<path d="M48 438C36.96 438 28 446.96 28 458C28 469.04 36.96 478 48 478C59.04 478 68 469.04 68 458C68 446.96 59.04 438 48 438ZM44 468L34 458L36.82 455.18L44 462.34L59.18 447.16L62 450L44 468Z" fill="#469C60"/>
</g>
<rect width="600" height="346.425" transform="translate(660 410)" fill="url(#paint3_linear_9_1958)"/>
<path d="M688.391 731.739H694.415C699.935 731.739 703.535 728.499 703.535 722.619C703.535 716.763 699.959 713.547 694.415 713.547H688.391V731.739ZM694.319 729.699H690.671V715.563H694.319C698.399 715.563 701.183 718.035 701.183 722.619C701.183 727.179 698.399 729.699 694.319 729.699ZM711.937 718.995C708.481 718.995 706.273 721.587 706.273 725.523C706.273 729.459 708.481 732.051 711.937 732.051C715.345 732.051 717.577 729.459 717.577 725.523C717.577 721.587 715.369 718.995 711.937 718.995ZM708.481 725.523C708.481 722.883 709.729 720.939 711.937 720.939C714.121 720.939 715.369 722.883 715.369 725.523C715.369 728.163 714.121 730.107 711.937 730.107C709.729 730.107 708.481 728.163 708.481 725.523ZM720.773 731.739H722.909V724.347C722.909 722.619 724.061 720.963 725.933 720.963C727.637 720.963 728.573 722.259 728.573 724.203V731.739H730.709V723.771C730.709 720.963 729.269 719.019 726.629 719.019C724.061 719.019 723.077 720.915 722.909 721.275V719.307H720.773V731.739ZM733.869 719.235L735.141 719.859C736.101 718.827 737.037 717.123 737.037 715.107V713.547H734.877V715.059C734.877 716.715 734.493 717.987 733.869 719.235ZM740.016 719.307V721.131H741.984V727.995C741.984 730.635 743.472 731.739 746.136 731.739H746.616V729.675C744.792 729.651 744.12 729.051 744.12 727.395V721.131H746.544V719.307H744.12V715.179H741.984V719.307H740.016ZM757.948 724.227C757.948 722.499 759.052 720.939 760.804 720.939C762.412 720.939 763.132 722.235 763.132 724.083V731.739H765.292V724.227C765.292 722.499 766.396 720.939 768.148 720.939C769.756 720.939 770.476 722.235 770.476 724.083V731.739H772.636V723.603C772.636 720.939 771.436 719.019 768.628 719.019C766.588 719.019 765.412 720.315 764.884 721.251C764.332 719.883 763.228 719.019 761.452 719.019C759.196 719.019 758.164 720.747 757.948 721.179V719.307H755.812V731.739H757.948V724.227ZM775.693 728.211C775.693 730.587 777.421 731.979 779.821 731.979C781.957 731.979 783.109 730.731 783.613 729.795C783.805 730.899 784.693 731.739 786.205 731.739H786.541V729.747C785.917 729.651 785.533 729.267 785.533 728.403V722.787C785.533 720.675 784.045 719.019 780.877 719.019C777.493 719.019 776.245 721.155 776.245 722.571H778.477C778.549 721.971 779.221 720.867 780.877 720.867C782.533 720.867 783.445 721.707 783.445 722.835C783.445 723.675 782.989 724.083 781.741 724.251L779.509 724.539C776.845 724.899 775.693 726.267 775.693 728.211ZM777.853 728.259C777.853 727.251 778.501 726.579 779.989 726.339L781.957 726.027C782.869 725.859 783.349 725.547 783.493 725.355V726.579C783.493 728.643 781.933 730.083 780.013 730.083C778.693 730.083 777.853 729.339 777.853 728.259ZM789.421 731.739H791.557V728.595L793.669 726.027L797.485 731.739H799.837L795.133 724.323L799.381 719.307H796.813L791.557 725.787V713.547H789.421V731.739ZM806.57 719.019C803.45 719.019 801.218 721.395 801.218 725.427C801.218 729.603 803.498 732.027 806.93 732.027C810.194 732.027 811.586 729.843 811.73 728.451H809.618C809.402 729.051 808.61 730.059 806.978 730.059C804.866 730.059 803.474 728.427 803.354 725.883H811.778V725.019C811.778 721.371 809.906 719.019 806.57 719.019ZM806.57 720.819C808.466 720.819 809.474 722.235 809.666 724.035H803.45C803.738 722.091 804.842 720.819 806.57 720.819ZM829.058 729.291V731.499C829.058 733.539 827.882 734.931 825.746 734.931C823.85 734.931 823.154 733.899 823.034 733.395H820.682C820.754 734.691 822.098 736.899 825.746 736.899C829.394 736.899 831.194 734.715 831.194 731.595V719.307H829.058V721.371C828.794 720.699 827.762 719.019 825.362 719.019C822.458 719.019 820.25 721.371 820.25 725.379C820.25 729.459 822.506 731.787 825.386 731.787C827.762 731.787 828.77 730.011 829.058 729.291ZM825.722 720.963C827.738 720.963 829.106 722.859 829.106 725.355C829.106 727.947 827.714 729.819 825.698 729.819C823.802 729.819 822.482 727.971 822.482 725.379C822.482 722.739 823.802 720.963 825.722 720.963ZM835.03 731.739H837.166V725.835C837.166 723.147 838.294 721.683 840.958 721.683V719.211C838.654 719.211 837.526 721.059 837.166 721.971V719.307H835.03V731.739ZM842.958 728.211C842.958 730.587 844.686 731.979 847.086 731.979C849.222 731.979 850.374 730.731 850.878 729.795C851.07 730.899 851.958 731.739 853.47 731.739H853.806V729.747C853.182 729.651 852.798 729.267 852.798 728.403V722.787C852.798 720.675 851.31 719.019 848.142 719.019C844.758 719.019 843.51 721.155 843.51 722.571H845.742C845.814 721.971 846.486 720.867 848.142 720.867C849.798 720.867 850.71 721.707 850.71 722.835C850.71 723.675 850.254 724.083 849.006 724.251L846.774 724.539C844.11 724.899 842.958 726.267 842.958 728.211ZM845.118 728.259C845.118 727.251 845.766 726.579 847.254 726.339L849.222 726.027C850.134 725.859 850.614 725.547 850.758 725.355V726.579C850.758 728.643 849.198 730.083 847.278 730.083C845.958 730.083 845.118 729.339 845.118 728.259ZM865.015 729.483V731.739H867.151V713.547H865.015V721.347C864.703 720.651 863.695 719.019 861.247 719.019C858.319 719.019 856.087 721.371 856.087 725.523C856.087 729.699 858.319 732.027 861.247 732.027C863.647 732.027 864.751 730.179 865.015 729.483ZM861.535 720.963C863.599 720.963 865.063 722.835 865.063 725.523C865.063 728.163 863.551 730.083 861.583 730.083C859.687 730.083 858.295 728.283 858.295 725.523C858.295 722.715 859.639 720.963 861.535 720.963ZM870.887 716.811H873.311V714.075H870.887V716.811ZM871.031 731.739H873.167V719.307H871.031V731.739ZM881.734 719.019C878.614 719.019 876.382 721.395 876.382 725.427C876.382 729.603 878.662 732.027 882.094 732.027C885.358 732.027 886.75 729.843 886.894 728.451H884.782C884.566 729.051 883.774 730.059 882.142 730.059C880.03 730.059 878.638 728.427 878.518 725.883H886.942V725.019C886.942 721.371 885.07 719.019 881.734 719.019ZM881.734 720.819C883.63 720.819 884.638 722.235 884.83 724.035H878.614C878.902 722.091 880.006 720.819 881.734 720.819ZM890.108 731.739H892.244V724.347C892.244 722.619 893.396 720.963 895.268 720.963C896.972 720.963 897.908 722.259 897.908 724.203V731.739H900.044V723.771C900.044 720.963 898.604 719.019 895.964 719.019C893.396 719.019 892.412 720.915 892.244 721.275V719.307H890.108V731.739ZM902.719 719.307V721.131H904.687V727.995C904.687 730.635 906.175 731.739 908.839 731.739H909.319V729.675C907.495 729.651 906.823 729.051 906.823 727.395V721.131H909.247V719.307H906.823V715.179H904.687V719.307H902.719ZM919.427 728.307C919.427 729.387 918.395 730.203 916.739 730.203C914.795 730.203 913.955 729.123 913.787 728.427H911.531C911.723 730.251 913.403 732.099 916.739 732.099C919.811 732.099 921.611 730.419 921.611 728.187C921.611 726.027 920.363 725.019 917.651 724.563L916.067 724.299C914.651 724.059 914.075 723.555 914.075 722.691C914.075 721.707 914.963 720.795 916.595 720.795C918.275 720.795 919.043 721.875 919.139 722.427H921.251C921.131 720.723 919.811 718.947 916.619 718.947C913.715 718.947 911.939 720.651 911.939 722.763C911.939 724.755 913.019 725.979 915.803 726.435L917.339 726.675C918.827 726.915 919.427 727.347 919.427 728.307ZM940.352 719.307H938.216V726.795C938.216 728.571 936.968 730.083 935.24 730.083C933.536 730.083 932.72 728.859 932.72 726.987V719.307H930.56V727.515C930.56 730.107 931.952 732.003 934.568 732.003C936.944 732.003 937.928 730.275 938.216 729.819V731.739H940.352V719.307ZM951.138 728.307C951.138 729.387 950.106 730.203 948.45 730.203C946.506 730.203 945.666 729.123 945.498 728.427H943.242C943.434 730.251 945.114 732.099 948.45 732.099C951.522 732.099 953.322 730.419 953.322 728.187C953.322 726.027 952.074 725.019 949.362 724.563L947.778 724.299C946.362 724.059 945.786 723.555 945.786 722.691C945.786 721.707 946.674 720.795 948.306 720.795C949.986 720.795 950.754 721.875 950.85 722.427H952.962C952.842 720.723 951.522 718.947 948.33 718.947C945.426 718.947 943.65 720.651 943.65 722.763C943.65 724.755 944.73 725.979 947.514 726.435L949.05 726.675C950.538 726.915 951.138 727.347 951.138 728.307ZM956.246 716.811H958.67V714.075H956.246V716.811ZM956.39 731.739H958.526V719.307H956.39V731.739ZM962.413 731.739H964.549V724.347C964.549 722.619 965.701 720.963 967.573 720.963C969.277 720.963 970.213 722.259 970.213 724.203V731.739H972.349V723.771C972.349 720.963 970.909 719.019 968.269 719.019C965.701 719.019 964.717 720.915 964.549 721.275V719.307H962.413V731.739ZM984.308 729.291V731.499C984.308 733.539 983.132 734.931 980.996 734.931C979.1 734.931 978.404 733.899 978.284 733.395H975.932C976.004 734.691 977.348 736.899 980.996 736.899C984.644 736.899 986.444 734.715 986.444 731.595V719.307H984.308V721.371C984.044 720.699 983.012 719.019 980.612 719.019C977.708 719.019 975.5 721.371 975.5 725.379C975.5 729.459 977.756 731.787 980.636 731.787C983.012 731.787 984.02 730.011 984.308 729.291ZM980.972 720.963C982.988 720.963 984.356 722.859 984.356 725.355C984.356 727.947 982.964 729.819 980.948 729.819C979.052 729.819 977.732 727.971 977.732 725.379C977.732 722.739 979.052 720.963 980.972 720.963ZM1001.27 723.459L1004.15 723.987C1006.26 724.371 1007.39 725.067 1007.39 726.747C1007.39 728.571 1005.59 730.011 1002.95 730.011C999.304 730.011 997.984 727.947 997.792 727.011H995.344C995.488 728.907 997.504 732.123 1002.95 732.123C1007.3 732.123 1009.72 729.627 1009.72 726.675C1009.72 723.651 1008.06 722.379 1004.44 721.683L1001.58 721.131C999.472 720.723 998.368 719.955 998.368 718.443C998.368 716.787 999.88 715.227 1002.59 715.227C1005.42 715.227 1006.65 716.979 1006.86 717.867H1009.19C1009.02 716.019 1007.34 713.163 1002.59 713.163C998.416 713.163 996.04 715.587 996.04 718.491C996.04 721.179 997.576 722.787 1001.27 723.459ZM1017.84 719.019C1014.72 719.019 1012.48 721.395 1012.48 725.427C1012.48 729.603 1014.76 732.027 1018.2 732.027C1021.46 732.027 1022.85 729.843 1023 728.451H1020.88C1020.67 729.051 1019.88 730.059 1018.24 730.059C1016.13 730.059 1014.74 728.427 1014.62 725.883H1023.04V725.019C1023.04 721.371 1021.17 719.019 1017.84 719.019ZM1017.84 720.819C1019.73 720.819 1020.74 722.235 1020.93 724.035H1014.72C1015 722.091 1016.11 720.819 1017.84 720.819ZM1025.56 725.499C1025.56 729.507 1027.72 732.051 1031.13 732.051C1034.23 732.051 1035.71 729.987 1035.86 728.283H1033.72C1033.58 728.883 1032.86 730.083 1031.13 730.083C1029.04 730.083 1027.77 728.163 1027.77 725.499C1027.77 722.811 1028.97 720.939 1031.06 720.939C1032.86 720.939 1033.58 722.379 1033.72 723.051H1035.91C1035.79 721.059 1034.37 718.995 1031.06 718.995C1027.7 718.995 1025.56 721.515 1025.56 725.499ZM1043.95 718.995C1040.5 718.995 1038.29 721.587 1038.29 725.523C1038.29 729.459 1040.5 732.051 1043.95 732.051C1047.36 732.051 1049.59 729.459 1049.59 725.523C1049.59 721.587 1047.38 718.995 1043.95 718.995ZM1040.5 725.523C1040.5 722.883 1041.74 720.939 1043.95 720.939C1046.14 720.939 1047.38 722.883 1047.38 725.523C1047.38 728.163 1046.14 730.107 1043.95 730.107C1041.74 730.107 1040.5 728.163 1040.5 725.523ZM1052.79 731.739H1054.92V724.347C1054.92 722.619 1056.08 720.963 1057.95 720.963C1059.65 720.963 1060.59 722.259 1060.59 724.203V731.739H1062.72V723.771C1062.72 720.963 1061.28 719.019 1058.64 719.019C1056.08 719.019 1055.09 720.915 1054.92 721.275V719.307H1052.79V731.739ZM1074.83 729.483V731.739H1076.96V713.547H1074.83V721.347C1074.52 720.651 1073.51 719.019 1071.06 719.019C1068.13 719.019 1065.9 721.371 1065.9 725.523C1065.9 729.699 1068.13 732.027 1071.06 732.027C1073.46 732.027 1074.56 730.179 1074.83 729.483ZM1071.35 720.963C1073.41 720.963 1074.88 722.835 1074.88 725.523C1074.88 728.163 1073.36 730.083 1071.4 730.083C1069.5 730.083 1068.11 728.283 1068.11 725.523C1068.11 722.715 1069.45 720.963 1071.35 720.963ZM1080.05 728.211C1080.05 730.587 1081.78 731.979 1084.18 731.979C1086.32 731.979 1087.47 730.731 1087.97 729.795C1088.16 730.899 1089.05 731.739 1090.56 731.739H1090.9V729.747C1090.28 729.651 1089.89 729.267 1089.89 728.403V722.787C1089.89 720.675 1088.4 719.019 1085.24 719.019C1081.85 719.019 1080.6 721.155 1080.6 722.571H1082.84C1082.91 721.971 1083.58 720.867 1085.24 720.867C1086.89 720.867 1087.8 721.707 1087.8 722.835C1087.8 723.675 1087.35 724.083 1086.1 724.251L1083.87 724.539C1081.2 724.899 1080.05 726.267 1080.05 728.211ZM1082.21 728.259C1082.21 727.251 1082.86 726.579 1084.35 726.339L1086.32 726.027C1087.23 725.859 1087.71 725.547 1087.85 725.355V726.579C1087.85 728.643 1086.29 730.083 1084.37 730.083C1083.05 730.083 1082.21 729.339 1082.21 728.259ZM1093.78 731.739H1095.92V725.835C1095.92 723.147 1097.04 721.683 1099.71 721.683V719.211C1097.4 719.211 1096.28 721.059 1095.92 721.971V719.307H1093.78V731.739ZM1105.78 732.147C1105.16 733.899 1104.34 734.403 1102.93 734.451V736.515H1103.19C1105.16 736.515 1106.55 735.819 1107.7 732.555L1112.36 719.307H1110.13L1107.01 728.547L1103.89 719.307H1101.49L1105.93 731.667L1105.78 732.147ZM1136.21 726.915H1133.9C1133.5 727.851 1132.34 729.915 1129.15 729.915C1125.43 729.915 1123.01 726.771 1123.01 722.619C1123.01 718.587 1125.24 715.347 1128.96 715.347C1132.32 715.347 1133.57 717.651 1133.9 718.659H1136.26C1136.04 716.451 1134 713.187 1128.96 713.187C1123.9 713.187 1120.63 717.027 1120.63 722.619C1120.63 728.283 1123.9 732.099 1129.13 732.099C1133.88 732.099 1135.9 728.931 1136.21 726.915ZM1144.66 718.995C1141.21 718.995 1139 721.587 1139 725.523C1139 729.459 1141.21 732.051 1144.66 732.051C1148.07 732.051 1150.3 729.459 1150.3 725.523C1150.3 721.587 1148.1 718.995 1144.66 718.995ZM1141.21 725.523C1141.21 722.883 1142.46 720.939 1144.66 720.939C1146.85 720.939 1148.1 722.883 1148.1 725.523C1148.1 728.163 1146.85 730.107 1144.66 730.107C1142.46 730.107 1141.21 728.163 1141.21 725.523ZM1153.52 731.739H1155.66V713.547H1153.52V731.739ZM1164.54 718.995C1161.08 718.995 1158.87 721.587 1158.87 725.523C1158.87 729.459 1161.08 732.051 1164.54 732.051C1167.95 732.051 1170.18 729.459 1170.18 725.523C1170.18 721.587 1167.97 718.995 1164.54 718.995ZM1161.08 725.523C1161.08 722.883 1162.33 720.939 1164.54 720.939C1166.72 720.939 1167.97 722.883 1167.97 725.523C1167.97 728.163 1166.72 730.107 1164.54 730.107C1162.33 730.107 1161.08 728.163 1161.08 725.523ZM1173.37 731.739H1175.51V725.835C1175.51 723.147 1176.64 721.683 1179.3 721.683V719.211C1177 719.211 1175.87 721.059 1175.51 721.971V719.307H1173.37V731.739ZM1189.19 728.307C1189.19 729.387 1188.16 730.203 1186.5 730.203C1184.56 730.203 1183.72 729.123 1183.55 728.427H1181.3C1181.49 730.251 1183.17 732.099 1186.5 732.099C1189.58 732.099 1191.38 730.419 1191.38 728.187C1191.38 726.027 1190.13 725.019 1187.42 724.563L1185.83 724.299C1184.42 724.059 1183.84 723.555 1183.84 722.691C1183.84 721.707 1184.73 720.795 1186.36 720.795C1188.04 720.795 1188.81 721.875 1188.9 722.427H1191.02C1190.9 720.723 1189.58 718.947 1186.38 718.947C1183.48 718.947 1181.7 720.651 1181.7 722.763C1181.7 724.755 1182.78 725.979 1185.57 726.435L1187.1 726.675C1188.59 726.915 1189.19 727.347 1189.19 728.307Z" fill="black"/>
<path d="M708 438C696.94 438 688 446.94 688 458C688 469.06 696.94 478 708 478C719.06 478 728 469.06 728 458C728 446.94 719.06 438 708 438ZM718 465.18L715.18 468L708 460.82L700.82 468L698 465.18L705.18 458L698 450.82L700.82 448L708 455.18L715.18 448L718 450.82L710.82 458L718 465.18Z" fill="#CC2C4A"/>
<rect width="600" height="346.425" transform="translate(1320 410)" fill="url(#paint4_linear_9_1958)"/>
<path d="M1348.39 731.739H1354.41C1359.93 731.739 1363.53 728.499 1363.53 722.619C1363.53 716.763 1359.96 713.547 1354.41 713.547H1348.39V731.739ZM1354.32 729.699H1350.67V715.563H1354.32C1358.4 715.563 1361.18 718.035 1361.18 722.619C1361.18 727.179 1358.4 729.699 1354.32 729.699ZM1371.94 718.995C1368.48 718.995 1366.27 721.587 1366.27 725.523C1366.27 729.459 1368.48 732.051 1371.94 732.051C1375.34 732.051 1377.58 729.459 1377.58 725.523C1377.58 721.587 1375.37 718.995 1371.94 718.995ZM1368.48 725.523C1368.48 722.883 1369.73 720.939 1371.94 720.939C1374.12 720.939 1375.37 722.883 1375.37 725.523C1375.37 728.163 1374.12 730.107 1371.94 730.107C1369.73 730.107 1368.48 728.163 1368.48 725.523ZM1380.77 731.739H1382.91V724.347C1382.91 722.619 1384.06 720.963 1385.93 720.963C1387.64 720.963 1388.57 722.259 1388.57 724.203V731.739H1390.71V723.771C1390.71 720.963 1389.27 719.019 1386.63 719.019C1384.06 719.019 1383.08 720.915 1382.91 721.275V719.307H1380.77V731.739ZM1393.87 719.235L1395.14 719.859C1396.1 718.827 1397.04 717.123 1397.04 715.107V713.547H1394.88V715.059C1394.88 716.715 1394.49 717.987 1393.87 719.235ZM1400.02 719.307V721.131H1401.98V727.995C1401.98 730.635 1403.47 731.739 1406.14 731.739H1406.62V729.675C1404.79 729.651 1404.12 729.051 1404.12 727.395V721.131H1406.54V719.307H1404.12V715.179H1401.98V719.307H1400.02ZM1417.95 724.227C1417.95 722.499 1419.05 720.939 1420.8 720.939C1422.41 720.939 1423.13 722.235 1423.13 724.083V731.739H1425.29V724.227C1425.29 722.499 1426.4 720.939 1428.15 720.939C1429.76 720.939 1430.48 722.235 1430.48 724.083V731.739H1432.64V723.603C1432.64 720.939 1431.44 719.019 1428.63 719.019C1426.59 719.019 1425.41 720.315 1424.88 721.251C1424.33 719.883 1423.23 719.019 1421.45 719.019C1419.2 719.019 1418.16 720.747 1417.95 721.179V719.307H1415.81V731.739H1417.95V724.227ZM1435.69 728.211C1435.69 730.587 1437.42 731.979 1439.82 731.979C1441.96 731.979 1443.11 730.731 1443.61 729.795C1443.8 730.899 1444.69 731.739 1446.2 731.739H1446.54V729.747C1445.92 729.651 1445.53 729.267 1445.53 728.403V722.787C1445.53 720.675 1444.04 719.019 1440.88 719.019C1437.49 719.019 1436.24 721.155 1436.24 722.571H1438.48C1438.55 721.971 1439.22 720.867 1440.88 720.867C1442.53 720.867 1443.44 721.707 1443.44 722.835C1443.44 723.675 1442.99 724.083 1441.74 724.251L1439.51 724.539C1436.84 724.899 1435.69 726.267 1435.69 728.211ZM1437.85 728.259C1437.85 727.251 1438.5 726.579 1439.99 726.339L1441.96 726.027C1442.87 725.859 1443.35 725.547 1443.49 725.355V726.579C1443.49 728.643 1441.93 730.083 1440.01 730.083C1438.69 730.083 1437.85 729.339 1437.85 728.259ZM1449.42 731.739H1451.56V728.595L1453.67 726.027L1457.48 731.739H1459.84L1455.13 724.323L1459.38 719.307H1456.81L1451.56 725.787V713.547H1449.42V731.739ZM1466.57 719.019C1463.45 719.019 1461.22 721.395 1461.22 725.427C1461.22 729.603 1463.5 732.027 1466.93 732.027C1470.19 732.027 1471.59 729.843 1471.73 728.451H1469.62C1469.4 729.051 1468.61 730.059 1466.98 730.059C1464.87 730.059 1463.47 728.427 1463.35 725.883H1471.78V725.019C1471.78 721.371 1469.91 719.019 1466.57 719.019ZM1466.57 720.819C1468.47 720.819 1469.47 722.235 1469.67 724.035H1463.45C1463.74 722.091 1464.84 720.819 1466.57 720.819ZM1489.06 729.291V731.499C1489.06 733.539 1487.88 734.931 1485.75 734.931C1483.85 734.931 1483.15 733.899 1483.03 733.395H1480.68C1480.75 734.691 1482.1 736.899 1485.75 736.899C1489.39 736.899 1491.19 734.715 1491.19 731.595V719.307H1489.06V721.371C1488.79 720.699 1487.76 719.019 1485.36 719.019C1482.46 719.019 1480.25 721.371 1480.25 725.379C1480.25 729.459 1482.51 731.787 1485.39 731.787C1487.76 731.787 1488.77 730.011 1489.06 729.291ZM1485.72 720.963C1487.74 720.963 1489.11 722.859 1489.11 725.355C1489.11 727.947 1487.71 729.819 1485.7 729.819C1483.8 729.819 1482.48 727.971 1482.48 725.379C1482.48 722.739 1483.8 720.963 1485.72 720.963ZM1495.03 731.739H1497.17V725.835C1497.17 723.147 1498.29 721.683 1500.96 721.683V719.211C1498.65 719.211 1497.53 721.059 1497.17 721.971V719.307H1495.03V731.739ZM1502.96 728.211C1502.96 730.587 1504.69 731.979 1507.09 731.979C1509.22 731.979 1510.37 730.731 1510.88 729.795C1511.07 730.899 1511.96 731.739 1513.47 731.739H1513.81V729.747C1513.18 729.651 1512.8 729.267 1512.8 728.403V722.787C1512.8 720.675 1511.31 719.019 1508.14 719.019C1504.76 719.019 1503.51 721.155 1503.51 722.571H1505.74C1505.81 721.971 1506.49 720.867 1508.14 720.867C1509.8 720.867 1510.71 721.707 1510.71 722.835C1510.71 723.675 1510.25 724.083 1509.01 724.251L1506.77 724.539C1504.11 724.899 1502.96 726.267 1502.96 728.211ZM1505.12 728.259C1505.12 727.251 1505.77 726.579 1507.25 726.339L1509.22 726.027C1510.13 725.859 1510.61 725.547 1510.76 725.355V726.579C1510.76 728.643 1509.2 730.083 1507.28 730.083C1505.96 730.083 1505.12 729.339 1505.12 728.259ZM1525.01 729.483V731.739H1527.15V713.547H1525.01V721.347C1524.7 720.651 1523.69 719.019 1521.25 719.019C1518.32 719.019 1516.09 721.371 1516.09 725.523C1516.09 729.699 1518.32 732.027 1521.25 732.027C1523.65 732.027 1524.75 730.179 1525.01 729.483ZM1521.53 720.963C1523.6 720.963 1525.06 722.835 1525.06 725.523C1525.06 728.163 1523.55 730.083 1521.58 730.083C1519.69 730.083 1518.29 728.283 1518.29 725.523C1518.29 722.715 1519.64 720.963 1521.53 720.963ZM1530.89 716.811H1533.31V714.075H1530.89V716.811ZM1531.03 731.739H1533.17V719.307H1531.03V731.739ZM1541.73 719.019C1538.61 719.019 1536.38 721.395 1536.38 725.427C1536.38 729.603 1538.66 732.027 1542.09 732.027C1545.36 732.027 1546.75 729.843 1546.89 728.451H1544.78C1544.57 729.051 1543.77 730.059 1542.14 730.059C1540.03 730.059 1538.64 728.427 1538.52 725.883H1546.94V725.019C1546.94 721.371 1545.07 719.019 1541.73 719.019ZM1541.73 720.819C1543.63 720.819 1544.64 722.235 1544.83 724.035H1538.61C1538.9 722.091 1540.01 720.819 1541.73 720.819ZM1550.11 731.739H1552.24V724.347C1552.24 722.619 1553.4 720.963 1555.27 720.963C1556.97 720.963 1557.91 722.259 1557.91 724.203V731.739H1560.04V723.771C1560.04 720.963 1558.6 719.019 1555.96 719.019C1553.4 719.019 1552.41 720.915 1552.24 721.275V719.307H1550.11V731.739ZM1562.72 719.307V721.131H1564.69V727.995C1564.69 730.635 1566.17 731.739 1568.84 731.739H1569.32V729.675C1567.49 729.651 1566.82 729.051 1566.82 727.395V721.131H1569.25V719.307H1566.82V715.179H1564.69V719.307H1562.72ZM1579.43 728.307C1579.43 729.387 1578.4 730.203 1576.74 730.203C1574.8 730.203 1573.96 729.123 1573.79 728.427H1571.53C1571.72 730.251 1573.4 732.099 1576.74 732.099C1579.81 732.099 1581.61 730.419 1581.61 728.187C1581.61 726.027 1580.36 725.019 1577.65 724.563L1576.07 724.299C1574.65 724.059 1574.08 723.555 1574.08 722.691C1574.08 721.707 1574.96 720.795 1576.6 720.795C1578.28 720.795 1579.04 721.875 1579.14 722.427H1581.25C1581.13 720.723 1579.81 718.947 1576.62 718.947C1573.72 718.947 1571.94 720.651 1571.94 722.763C1571.94 724.755 1573.02 725.979 1575.8 726.435L1577.34 726.675C1578.83 726.915 1579.43 727.347 1579.43 728.307ZM1600.35 719.307H1598.22V726.795C1598.22 728.571 1596.97 730.083 1595.24 730.083C1593.54 730.083 1592.72 728.859 1592.72 726.987V719.307H1590.56V727.515C1590.56 730.107 1591.95 732.003 1594.57 732.003C1596.94 732.003 1597.93 730.275 1598.22 729.819V731.739H1600.35V719.307ZM1611.14 728.307C1611.14 729.387 1610.11 730.203 1608.45 730.203C1606.51 730.203 1605.67 729.123 1605.5 728.427H1603.24C1603.43 730.251 1605.11 732.099 1608.45 732.099C1611.52 732.099 1613.32 730.419 1613.32 728.187C1613.32 726.027 1612.07 725.019 1609.36 724.563L1607.78 724.299C1606.36 724.059 1605.79 723.555 1605.79 722.691C1605.79 721.707 1606.67 720.795 1608.31 720.795C1609.99 720.795 1610.75 721.875 1610.85 722.427H1612.96C1612.84 720.723 1611.52 718.947 1608.33 718.947C1605.43 718.947 1603.65 720.651 1603.65 722.763C1603.65 724.755 1604.73 725.979 1607.51 726.435L1609.05 726.675C1610.54 726.915 1611.14 727.347 1611.14 728.307ZM1616.25 716.811H1618.67V714.075H1616.25V716.811ZM1616.39 731.739H1618.53V719.307H1616.39V731.739ZM1622.41 731.739H1624.55V724.347C1624.55 722.619 1625.7 720.963 1627.57 720.963C1629.28 720.963 1630.21 722.259 1630.21 724.203V731.739H1632.35V723.771C1632.35 720.963 1630.91 719.019 1628.27 719.019C1625.7 719.019 1624.72 720.915 1624.55 721.275V719.307H1622.41V731.739ZM1644.31 729.291V731.499C1644.31 733.539 1643.13 734.931 1641 734.931C1639.1 734.931 1638.4 733.899 1638.28 733.395H1635.93C1636 734.691 1637.35 736.899 1641 736.899C1644.64 736.899 1646.44 734.715 1646.44 731.595V719.307H1644.31V721.371C1644.04 720.699 1643.01 719.019 1640.61 719.019C1637.71 719.019 1635.5 721.371 1635.5 725.379C1635.5 729.459 1637.76 731.787 1640.64 731.787C1643.01 731.787 1644.02 730.011 1644.31 729.291ZM1640.97 720.963C1642.99 720.963 1644.36 722.859 1644.36 725.355C1644.36 727.947 1642.96 729.819 1640.95 729.819C1639.05 729.819 1637.73 727.971 1637.73 725.379C1637.73 722.739 1639.05 720.963 1640.97 720.963ZM1655.3 715.611H1661.92V731.739H1664.23V715.611H1670.85V713.547H1655.3V715.611ZM1676.15 719.019C1673.03 719.019 1670.8 721.395 1670.8 725.427C1670.8 729.603 1673.08 732.027 1676.51 732.027C1679.77 732.027 1681.16 729.843 1681.31 728.451H1679.2C1678.98 729.051 1678.19 730.059 1676.56 730.059C1674.44 730.059 1673.05 728.427 1672.93 725.883H1681.36V725.019C1681.36 721.371 1679.48 719.019 1676.15 719.019ZM1676.15 720.819C1678.04 720.819 1679.05 722.235 1679.24 724.035H1673.03C1673.32 722.091 1674.42 720.819 1676.15 720.819ZM1684.52 731.739H1686.66V725.835C1686.66 723.147 1687.79 721.683 1690.45 721.683V719.211C1688.15 719.211 1687.02 721.059 1686.66 721.971V719.307H1684.52V731.739ZM1692.45 719.307V721.131H1694.41V727.995C1694.41 730.635 1695.9 731.739 1698.57 731.739H1699.05V729.675C1697.22 729.651 1696.55 729.051 1696.55 727.395V721.131H1698.97V719.307H1696.55V715.179H1694.41V719.307H1692.45ZM1702.12 716.811H1704.55V714.075H1702.12V716.811ZM1702.27 731.739H1704.4V719.307H1702.27V731.739ZM1707.52 728.211C1707.52 730.587 1709.25 731.979 1711.65 731.979C1713.78 731.979 1714.94 730.731 1715.44 729.795C1715.63 730.899 1716.52 731.739 1718.03 731.739H1718.37V729.747C1717.74 729.651 1717.36 729.267 1717.36 728.403V722.787C1717.36 720.675 1715.87 719.019 1712.7 719.019C1709.32 719.019 1708.07 721.155 1708.07 722.571H1710.3C1710.38 721.971 1711.05 720.867 1712.7 720.867C1714.36 720.867 1715.27 721.707 1715.27 722.835C1715.27 723.675 1714.82 724.083 1713.57 724.251L1711.34 724.539C1708.67 724.899 1707.52 726.267 1707.52 728.211ZM1709.68 728.259C1709.68 727.251 1710.33 726.579 1711.82 726.339L1713.78 726.027C1714.7 725.859 1715.18 725.547 1715.32 725.355V726.579C1715.32 728.643 1713.76 730.083 1711.84 730.083C1710.52 730.083 1709.68 729.339 1709.68 728.259ZM1721.25 731.739H1723.39V725.835C1723.39 723.147 1724.51 721.683 1727.18 721.683V719.211C1724.87 719.211 1723.75 721.059 1723.39 721.971V719.307H1721.25V731.739ZM1733.25 732.147C1732.63 733.899 1731.81 734.403 1730.4 734.451V736.515H1730.66C1732.63 736.515 1734.02 735.819 1735.17 732.555L1739.83 719.307H1737.6L1734.48 728.547L1731.36 719.307H1728.96L1733.4 731.667L1733.25 732.147ZM1763.68 726.915H1761.37C1760.97 727.851 1759.81 729.915 1756.62 729.915C1752.9 729.915 1750.48 726.771 1750.48 722.619C1750.48 718.587 1752.71 715.347 1756.43 715.347C1759.79 715.347 1761.04 717.651 1761.37 718.659H1763.73C1763.51 716.451 1761.47 713.187 1756.43 713.187C1751.37 713.187 1748.1 717.027 1748.1 722.619C1748.1 728.283 1751.37 732.099 1756.6 732.099C1761.35 732.099 1763.37 728.931 1763.68 726.915ZM1772.13 718.995C1768.68 718.995 1766.47 721.587 1766.47 725.523C1766.47 729.459 1768.68 732.051 1772.13 732.051C1775.54 732.051 1777.77 729.459 1777.77 725.523C1777.77 721.587 1775.56 718.995 1772.13 718.995ZM1768.68 725.523C1768.68 722.883 1769.92 720.939 1772.13 720.939C1774.32 720.939 1775.56 722.883 1775.56 725.523C1775.56 728.163 1774.32 730.107 1772.13 730.107C1769.92 730.107 1768.68 728.163 1768.68 725.523ZM1780.99 731.739H1783.13V713.547H1780.99V731.739ZM1792.01 718.995C1788.55 718.995 1786.34 721.587 1786.34 725.523C1786.34 729.459 1788.55 732.051 1792.01 732.051C1795.42 732.051 1797.65 729.459 1797.65 725.523C1797.65 721.587 1795.44 718.995 1792.01 718.995ZM1788.55 725.523C1788.55 722.883 1789.8 720.939 1792.01 720.939C1794.19 720.939 1795.44 722.883 1795.44 725.523C1795.44 728.163 1794.19 730.107 1792.01 730.107C1789.8 730.107 1788.55 728.163 1788.55 725.523ZM1800.84 731.739H1802.98V725.835C1802.98 723.147 1804.11 721.683 1806.77 721.683V719.211C1804.47 719.211 1803.34 721.059 1802.98 721.971V719.307H1800.84V731.739ZM1816.66 728.307C1816.66 729.387 1815.63 730.203 1813.97 730.203C1812.03 730.203 1811.19 729.123 1811.02 728.427H1808.77C1808.96 730.251 1810.64 732.099 1813.97 732.099C1817.05 732.099 1818.85 730.419 1818.85 728.187C1818.85 726.027 1817.6 725.019 1814.89 724.563L1813.3 724.299C1811.89 724.059 1811.31 723.555 1811.31 722.691C1811.31 721.707 1812.2 720.795 1813.83 720.795C1815.51 720.795 1816.28 721.875 1816.37 722.427H1818.49C1818.37 720.723 1817.05 718.947 1813.85 718.947C1810.95 718.947 1809.17 720.651 1809.17 722.763C1809.17 724.755 1810.25 725.979 1813.04 726.435L1814.57 726.675C1816.06 726.915 1816.66 727.347 1816.66 728.307Z" fill="black"/>
<path d="M1368 438C1356.94 438 1348 446.94 1348 458C1348 469.06 1356.94 478 1368 478C1379.06 478 1388 469.06 1388 458C1388 446.94 1379.06 438 1368 438ZM1378 465.18L1375.18 468L1368 460.82L1360.82 468L1358 465.18L1365.18 458L1358 450.82L1360.82 448L1368 455.18L1375.18 448L1378 450.82L1370.82 458L1378 465.18Z" fill="#CC2C4A"/>
</g>
<defs>
<linearGradient id="paint0_linear_9_1958" x1="0" y1="0" x2="600" y2="0" gradientUnits="userSpaceOnUse">
<stop stop-color="white"/>
<stop offset="1"/>
</linearGradient>
<linearGradient id="paint1_linear_9_1958" x1="660" y1="0" x2="1260" y2="0" gradientUnits="userSpaceOnUse">
<stop stop-color="white"/>
<stop offset="1"/>
</linearGradient>
<linearGradient id="paint2_linear_9_1958" x1="0" y1="0" x2="600" y2="346" gradientUnits="userSpaceOnUse">
<stop stop-color="white"/>
<stop offset="1"/>
</linearGradient>
<linearGradient id="paint3_linear_9_1958" x1="600" y1="346" x2="9.5" y2="-9.18914e-06" gradientUnits="userSpaceOnUse">
<stop stop-color="#6300FF"/>
<stop offset="1" stop-color="#6300FF" stop-opacity="0"/>
</linearGradient>
<linearGradient id="paint4_linear_9_1958" x1="0" y1="0" x2="600" y2="346" gradientUnits="userSpaceOnUse">
<stop stop-color="#CCC0A5" stop-opacity="0"/>
<stop offset="1" stop-color="#CCC0A5"/>
</linearGradient>
<clipPath id="clip0_9_1958">
<rect width="1920" height="756" fill="white"/>
</clipPath>
<clipPath id="clip1_9_1958">
<rect width="48" height="48" fill="white" transform="translate(24 24)"/>
</clipPath>
<clipPath id="clip2_9_1958">
<rect width="48" height="48" fill="white" transform="translate(684 24)"/>
</clipPath>
<clipPath id="clip3_9_1958">
<rect width="48" height="48" fill="white" transform="translate(24 434)"/>
</clipPath>
</defs>
</svg>
