<svg width="1920" height="1080" viewBox="0 0 1920 1080" fill="none" xmlns="http://www.w3.org/2000/svg">
<g clip-path="url(#clip0_1_4)">
<rect width="1920" height="1080" fill="#F1F1F1"/>
<line x1="707.481" y1="-12.0501" x2="228.918" y2="1093.84" stroke="#0094FF" stroke-width="2"/>
<line x1="470" y1="-4.37114e-08" x2="470" y2="1081" stroke="#0094FF" stroke-width="2"/>
<path d="M388.76 561.08H358.373C356.632 566.661 348.761 578.897 330.61 578.897C308.428 578.897 295.143 560.197 295.143 536.966C295.143 513.735 307.379 495.226 329.37 495.226C348.928 495.226 356.608 508.32 358.015 514.45H388.76C387.543 493.485 370.776 467.821 329.37 467.821C287.964 467.821 264.565 496.967 264.565 536.966C264.565 576.965 288.846 606.493 330.419 606.493C371.992 606.493 387.019 580.304 388.76 561.08Z" fill="black"/>
<path d="M469.52 467.797C429.688 467.797 402.283 495.393 402.283 537.133C402.283 578.873 429.522 606.469 469.52 606.469C509.519 606.469 536.591 578.706 536.591 537.133C536.591 495.56 509.352 467.797 469.52 467.797V467.797ZM469.52 578.897C446.981 578.897 432.67 560.722 432.67 537.157C432.67 513.592 447.005 495.226 469.52 495.226C492.036 495.226 506.204 513.401 506.204 537.157C506.204 560.913 491.869 578.897 469.52 578.897Z" fill="black"/>
<path d="M593.667 549.894C602.563 551.301 604.662 551.635 613.416 553.042C623.195 554.616 628.084 557.407 628.084 565.278C628.084 573.84 618.472 580.304 606.785 580.304C589.66 580.304 582.862 570.692 582.337 565.802H549.16C549.518 581.878 564.52 606.684 606.809 606.684C640.177 606.684 658.519 586.768 658.519 563.537C658.519 540.305 647.857 528.427 616.946 523.371C608.383 521.964 605.76 521.439 597.555 520.055C587.418 518.314 582.886 514.641 582.886 508.344C582.886 500.473 590.757 493.509 605.068 493.509C619.379 493.509 625.318 501.547 626.892 506.794H657.636C656.062 489.144 643.659 467.845 605.235 467.845C571.867 467.845 552.666 486.711 552.666 509.776C552.666 530.216 563.495 545.243 593.715 549.941L593.667 549.894Z" fill="black"/>
<path d="M739.805 603.344H765.827L799.004 508.678V603.344H828.008V470.945H785.385L754.283 558.981L723.014 470.945H679.175V603.344H706.604V509.036L739.781 603.368L739.805 603.344Z" fill="black"/>
<path d="M915.757 467.797C875.925 467.797 848.52 495.393 848.52 537.133C848.52 578.873 875.758 606.469 915.757 606.469C955.755 606.469 982.827 578.706 982.827 537.133C982.827 495.56 955.588 467.797 915.757 467.797V467.797ZM915.757 578.897C893.217 578.897 878.906 560.722 878.906 537.157C878.906 513.592 893.241 495.226 915.757 495.226C938.272 495.226 952.44 513.401 952.44 537.157C952.44 560.913 938.105 578.897 915.757 578.897Z" fill="black"/>
<path d="M1039.9 549.894C1048.8 551.301 1050.9 551.635 1059.65 553.042C1069.43 554.616 1074.32 557.407 1074.32 565.278C1074.32 573.84 1064.71 580.304 1053.02 580.304C1035.9 580.304 1029.1 570.692 1028.57 565.802H995.396C995.754 581.878 1010.76 606.684 1053.05 606.684C1086.41 606.684 1104.76 586.768 1104.76 563.537C1104.76 540.305 1094.09 528.427 1063.18 523.371C1054.62 521.964 1052 521.439 1043.79 520.055C1033.65 518.314 1029.12 514.641 1029.12 508.344C1029.12 500.473 1036.99 493.509 1051.3 493.509C1065.62 493.509 1071.55 501.547 1073.13 506.794H1103.87C1102.3 489.144 1089.9 467.845 1051.47 467.845C1018.1 467.845 998.903 486.711 998.903 509.776C998.903 530.216 1009.73 545.243 1039.95 549.941L1039.9 549.894Z" fill="black"/>
<path d="M425.348 643.749C424.704 643.749 424.084 643.63 423.463 643.343C421.054 642.294 419.933 639.48 420.983 637.071L509.138 433.308C510.187 430.899 513.002 429.778 515.411 430.827C517.82 431.877 518.941 434.691 517.891 437.1L429.713 640.887C428.925 642.676 427.184 643.773 425.324 643.773L425.348 643.749Z" fill="black"/>
<path d="M1205.55 604.204H1235.25V551.444H1293.59V604.204H1323.28V471.804H1293.59V523.514H1235.25V471.804H1205.55V604.204Z" fill="black"/>
<path d="M1406.36 579.565C1386.61 579.565 1378.07 565.946 1378.07 549.87V471.804H1348.37V553.543C1348.37 584.121 1366.88 607.352 1406.36 607.352C1445.83 607.352 1463.65 583.954 1463.65 553.543V471.804H1434.64V549.894C1434.64 565.97 1426.08 579.589 1406.36 579.589V579.565Z" fill="black"/>
<path d="M1488.67 604.204H1559.58C1588.22 604.204 1604.3 590.227 1604.3 564.73C1604.3 548.32 1595.9 538.016 1583.86 533.627C1593.11 528.905 1599.58 519.817 1599.58 507.438C1599.58 484.374 1585.08 471.804 1557.84 471.804H1488.67V604.204ZM1551.73 523.848H1518.2V496.777H1551.73C1562.39 496.777 1567.97 501.309 1567.97 510.229C1567.97 519.149 1562.39 523.848 1551.73 523.848ZM1553.83 550.037C1565.88 550.037 1572.34 554.235 1572.34 564.181C1572.34 574.127 1565.88 578.516 1553.83 578.516H1518.2V550.037H1553.83Z" fill="black"/>
<path d="M1398.41 416.541C1558.24 416.541 1645.13 460.236 1645.13 539.566C1645.13 618.896 1558.24 662.592 1398.41 662.592C1238.59 662.592 1151.7 616.606 1151.7 539.566C1151.7 462.526 1243.21 416.541 1398.41 416.541ZM1398.41 407C1320.8 407 1256.36 418.616 1212.04 440.63C1165.58 463.695 1141.01 497.922 1141.01 539.59C1141.01 581.258 1165.58 615.485 1212.04 638.55C1256.36 660.541 1320.8 672.18 1398.41 672.18C1564.4 672.18 1655.79 625.097 1655.79 539.614C1655.79 454.13 1564.4 407 1398.41 407Z" fill="black"/>
<line x1="266" y1="275" x2="266" y2="804" stroke="#0094FF" stroke-width="2"/>
<line x1="134" y1="275" x2="134" y2="804" stroke="#0094FF" stroke-width="2"/>
<line x1="1657" y1="275" x2="1657" y2="804" stroke="#0094FF" stroke-width="2"/>
<line x1="1789" y1="275" x2="1789" y2="804" stroke="#0094FF" stroke-width="2"/>
<line x1="133.972" y1="470" x2="1788" y2="470" stroke="#0094FF" stroke-width="2"/>
<line x1="133.972" y1="406" x2="1788" y2="406" stroke="#0094FF" stroke-width="2"/>
<line x1="133" y1="274" x2="1787.03" y2="274" stroke="#0094FF" stroke-width="2"/>
<line x1="133" y1="803" x2="1787.03" y2="803" stroke="#0094FF" stroke-width="2"/>
<line x1="133.972" y1="671" x2="1788" y2="671" stroke="#0094FF" stroke-width="2"/>
<line x1="133.972" y1="602" x2="1788" y2="602" stroke="#0094FF" stroke-width="2"/>
<path d="M101.056 526.424L106.72 534.648L101.056 543H104.16L108.32 536.856L112.448 543H115.68L110.08 534.584L115.68 526.424H112.544L108.544 532.376L104.544 526.424H101.056Z" fill="#0094FF"/>
<path d="M101.056 339.424L106.72 347.648L101.056 356H104.16L108.32 349.856L112.448 356H115.68L110.08 347.584L115.68 339.424H112.544L108.544 345.376L104.544 339.424H101.056Z" fill="#0094FF"/>
<path d="M191.056 241.424L196.72 249.648L191.056 258H194.16L198.32 251.856L202.448 258H205.68L200.08 249.584L205.68 241.424H202.544L198.544 247.376L194.544 241.424H191.056Z" fill="#0094FF"/>
<path d="M1713.06 241.424L1718.72 249.648L1713.06 258H1716.16L1720.32 251.856L1724.45 258H1727.68L1722.08 249.584L1727.68 241.424H1724.54L1720.54 247.376L1716.54 241.424H1713.06Z" fill="#0094FF"/>
<path d="M101.056 727.424L106.72 735.648L101.056 744H104.16L108.32 737.856L112.448 744H115.68L110.08 735.584L115.68 727.424H112.544L108.544 733.376L104.544 727.424H101.056Z" fill="#0094FF"/>
<path d="M197.293 603.707C197.683 604.098 198.317 604.098 198.707 603.707L205.071 597.343C205.462 596.953 205.462 596.319 205.071 595.929C204.681 595.538 204.047 595.538 203.657 595.929L198 601.586L192.343 595.929C191.953 595.538 191.319 595.538 190.929 595.929C190.538 596.319 190.538 596.953 190.929 597.343L197.293 603.707ZM198.707 470.293C198.317 469.902 197.683 469.902 197.293 470.293L190.929 476.657C190.538 477.047 190.538 477.681 190.929 478.071C191.319 478.462 191.953 478.462 192.343 478.071L198 472.414L203.657 478.071C204.047 478.462 204.681 478.462 205.071 478.071C205.462 477.681 205.462 477.047 205.071 476.657L198.707 470.293ZM199 603L199 471L197 471L197 603L199 603Z" fill="#0094FF"/>
<path d="M150.208 837.176H147.904C147.496 838.112 146.344 840.176 143.152 840.176C139.432 840.176 137.008 837.032 137.008 832.88C137.008 828.848 139.24 825.608 142.96 825.608C146.32 825.608 147.568 827.912 147.904 828.92H150.256C150.04 826.712 148 823.448 142.96 823.448C137.896 823.448 134.632 827.288 134.632 832.88C134.632 838.544 137.896 842.36 143.128 842.36C147.88 842.36 149.896 839.192 150.208 837.176ZM153.671 842H155.807V823.808H153.671V842ZM164.374 829.28C161.254 829.28 159.022 831.656 159.022 835.688C159.022 839.864 161.302 842.288 164.734 842.288C167.998 842.288 169.39 840.104 169.534 838.712H167.422C167.206 839.312 166.414 840.32 164.782 840.32C162.67 840.32 161.278 838.688 161.158 836.144H169.582V835.28C169.582 831.632 167.71 829.28 164.374 829.28ZM164.374 831.08C166.27 831.08 167.278 832.496 167.47 834.296H161.254C161.542 832.352 162.646 831.08 164.374 831.08ZM172.004 838.472C172.004 840.848 173.732 842.24 176.132 842.24C178.268 842.24 179.42 840.992 179.924 840.056C180.116 841.16 181.004 842 182.516 842H182.852V840.008C182.228 839.912 181.844 839.528 181.844 838.664V833.048C181.844 830.936 180.356 829.28 177.188 829.28C173.804 829.28 172.556 831.416 172.556 832.832H174.788C174.86 832.232 175.532 831.128 177.188 831.128C178.844 831.128 179.756 831.968 179.756 833.096C179.756 833.936 179.3 834.344 178.052 834.512L175.82 834.8C173.156 835.16 172.004 836.528 172.004 838.472ZM174.164 838.52C174.164 837.512 174.812 836.84 176.3 836.6L178.268 836.288C179.18 836.12 179.66 835.808 179.804 835.616V836.84C179.804 838.904 178.244 840.344 176.324 840.344C175.004 840.344 174.164 839.6 174.164 838.52ZM185.733 842H187.869V836.096C187.869 833.408 188.997 831.944 191.661 831.944V829.472C189.357 829.472 188.229 831.32 187.869 832.232V829.568H185.733V842ZM207.364 838.568C207.364 839.648 206.332 840.464 204.676 840.464C202.732 840.464 201.892 839.384 201.724 838.688H199.468C199.66 840.512 201.34 842.36 204.676 842.36C207.748 842.36 209.548 840.68 209.548 838.448C209.548 836.288 208.3 835.28 205.588 834.824L204.004 834.56C202.588 834.32 202.012 833.816 202.012 832.952C202.012 831.968 202.9 831.056 204.532 831.056C206.212 831.056 206.98 832.136 207.076 832.688H209.188C209.068 830.984 207.748 829.208 204.556 829.208C201.652 829.208 199.876 830.912 199.876 833.024C199.876 835.016 200.956 836.24 203.74 836.696L205.276 836.936C206.764 837.176 207.364 837.608 207.364 838.568ZM214.728 839.888C215.016 840.488 216.192 842.288 218.688 842.288C221.472 842.288 223.656 840.056 223.656 835.784C223.656 831.536 221.616 829.28 218.712 829.28C216.144 829.28 214.992 831.176 214.728 831.824V829.568H212.592V846.776H214.728V839.888ZM218.208 840.344C216.192 840.344 214.68 838.424 214.68 835.784C214.68 833.096 216.168 831.224 218.208 831.224C220.128 831.224 221.448 832.904 221.448 835.784C221.448 838.616 220.128 840.344 218.208 840.344ZM226.145 838.472C226.145 840.848 227.873 842.24 230.273 842.24C232.409 842.24 233.561 840.992 234.065 840.056C234.257 841.16 235.145 842 236.657 842H236.993V840.008C236.369 839.912 235.985 839.528 235.985 838.664V833.048C235.985 830.936 234.497 829.28 231.329 829.28C227.945 829.28 226.697 831.416 226.697 832.832H228.929C229.001 832.232 229.673 831.128 231.329 831.128C232.985 831.128 233.897 831.968 233.897 833.096C233.897 833.936 233.441 834.344 232.193 834.512L229.961 834.8C227.297 835.16 226.145 836.528 226.145 838.472ZM228.305 838.52C228.305 837.512 228.953 836.84 230.441 836.6L232.409 836.288C233.321 836.12 233.801 835.808 233.945 835.616V836.84C233.945 838.904 232.385 840.344 230.465 840.344C229.145 840.344 228.305 839.6 228.305 838.52ZM239.225 835.76C239.225 839.768 241.385 842.312 244.793 842.312C247.889 842.312 249.377 840.248 249.521 838.544H247.385C247.241 839.144 246.521 840.344 244.793 840.344C242.705 840.344 241.433 838.424 241.433 835.76C241.433 833.072 242.633 831.2 244.721 831.2C246.521 831.2 247.241 832.64 247.385 833.312H249.569C249.449 831.32 248.033 829.256 244.721 829.256C241.361 829.256 239.225 831.776 239.225 835.76ZM257.304 829.28C254.184 829.28 251.952 831.656 251.952 835.688C251.952 839.864 254.232 842.288 257.664 842.288C260.928 842.288 262.32 840.104 262.464 838.712H260.352C260.136 839.312 259.344 840.32 257.712 840.32C255.6 840.32 254.208 838.688 254.088 836.144H262.512V835.28C262.512 831.632 260.64 829.28 257.304 829.28ZM257.304 831.08C259.2 831.08 260.208 832.496 260.4 834.296H254.184C254.472 832.352 255.576 831.08 257.304 831.08Z" fill="#0094FF"/>
</g>
<defs>
<clipPath id="clip0_1_4">
<rect width="1920" height="1080" fill="white"/>
</clipPath>
</defs>
</svg>
