<svg width="1920" height="1080" viewBox="0 0 1920 1080" fill="none" xmlns="http://www.w3.org/2000/svg">
<g clip-path="url(#clip0_1_3)">
<rect width="1920" height="1080" fill="black"/>
<line x1="180" y1="446" x2="1740" y2="446" stroke="#0094FF" stroke-width="2"/>
<line x1="180" y1="820" x2="1740" y2="820" stroke="#0094FF" stroke-width="2"/>
<line x1="180" y1="259" x2="1740" y2="259" stroke="#0094FF" stroke-width="2"/>
<line x1="180" y1="633" x2="1740" y2="633" stroke="#0094FF" stroke-width="2"/>
<line x1="181" y1="260" x2="181" y2="821" stroke="#0094FF" stroke-width="2"/>
<line x1="1741" y1="260" x2="1741" y2="821" stroke="#0094FF" stroke-width="2"/>
<line x1="1553" y1="260" x2="1553" y2="821" stroke="#0094FF" stroke-width="2"/>
<line x1="369" y1="260" x2="369" y2="821" stroke="#0094FF" stroke-width="2"/>
<line x1="657" y1="-4.37114e-08" x2="657" y2="1081" stroke="#0094FF" stroke-width="2"/>
<line x1="896.199" y1="-12.0501" x2="417.636" y2="1093.84" stroke="#0094FF" stroke-width="2"/>
<path d="M146.056 344.424L151.72 352.648L146.056 361H149.16L153.32 354.856L157.448 361H160.68L155.08 352.584L160.68 344.424H157.544L153.544 350.376L149.544 344.424H146.056Z" fill="#0094FF"/>
<path d="M265.056 217.424L270.72 225.648L265.056 234H268.16L272.32 227.856L276.448 234H279.68L274.08 225.584L279.68 217.424H276.544L272.544 223.376L268.544 217.424H265.056Z" fill="#0094FF"/>
<path d="M1644.06 217.424L1649.72 225.648L1644.06 234H1647.16L1651.32 227.856L1655.45 234H1658.68L1653.08 225.584L1658.68 217.424H1655.54L1651.54 223.376L1647.54 217.424H1644.06Z" fill="#0094FF"/>
<path d="M146.056 719.424L151.72 727.648L146.056 736H149.16L153.32 729.856L157.448 736H160.68L155.08 727.584L160.68 719.424H157.544L153.544 725.376L149.544 719.424H146.056Z" fill="#0094FF"/>
<path d="M146.056 532.424L151.72 540.648L146.056 549H149.16L153.32 542.856L157.448 549H160.68L155.08 540.584L160.68 532.424H157.544L153.544 538.376L149.544 532.424H146.056Z" fill="#0094FF"/>
<path d="M280.293 633.707C280.683 634.098 281.317 634.098 281.707 633.707L288.071 627.343C288.462 626.953 288.462 626.319 288.071 625.929C287.681 625.538 287.047 625.538 286.657 625.929L281 631.586L275.343 625.929C274.953 625.538 274.319 625.538 273.929 625.929C273.538 626.319 273.538 626.953 273.929 627.343L280.293 633.707ZM281.707 446.293C281.317 445.902 280.683 445.902 280.293 446.293L273.929 452.657C273.538 453.047 273.538 453.681 273.929 454.071C274.319 454.462 274.953 454.462 275.343 454.071L281 448.414L286.657 454.071C287.047 454.462 287.681 454.462 288.071 454.071C288.462 453.681 288.462 453.047 288.071 452.657L281.707 446.293ZM282 633L282 447L280 447L280 633L282 633Z" fill="#0094FF"/>
<path d="M542.737 573.14H499.905C497.451 581.007 486.356 598.255 460.771 598.255C429.504 598.255 410.778 571.896 410.778 539.15C410.778 506.404 428.025 480.315 459.023 480.315C486.592 480.315 497.417 498.772 499.401 507.413H542.737C541.023 477.861 517.388 441.685 459.023 441.685C400.658 441.685 367.677 482.803 367.677 539.184C367.677 595.565 401.902 637.187 460.502 637.187C519.102 637.187 540.283 600.272 542.737 573.174V573.14Z" fill="white"/>
<path d="M656.575 441.685C600.429 441.685 561.8 480.583 561.8 539.419C561.8 598.254 600.194 637.153 656.575 637.153C712.956 637.153 751.115 598.019 751.115 539.419C751.115 480.819 712.721 441.685 656.575 441.685ZM656.575 598.288C624.804 598.288 604.632 572.669 604.632 539.452C604.632 506.236 624.838 480.348 656.575 480.348C688.313 480.348 708.283 505.967 708.283 539.452C708.283 572.938 688.077 598.288 656.575 598.288Z" fill="white"/>
<path d="M831.569 557.406C844.11 559.39 847.068 559.86 859.407 561.844C873.191 564.063 880.083 567.996 880.083 579.091C880.083 591.161 866.534 600.272 850.061 600.272C825.921 600.272 816.339 586.723 815.6 579.831H768.834C769.338 602.491 790.485 637.456 850.094 637.456C897.129 637.456 922.983 609.383 922.983 576.637C922.983 543.891 907.955 527.148 864.383 520.02C852.313 518.037 848.615 517.297 837.049 515.347C822.761 512.893 816.373 507.715 816.373 498.84C816.373 487.745 827.468 477.928 847.64 477.928C867.812 477.928 876.183 489.258 878.402 496.654H921.739C919.52 471.775 902.037 441.752 847.875 441.752C800.84 441.752 773.776 468.346 773.776 500.857C773.776 529.669 789.04 550.85 831.637 557.473L831.569 557.406Z" fill="white"/>
<path d="M1037.56 632.749H1074.24L1121.01 499.31V632.749H1161.89V446.123H1101.81L1057.97 570.215L1013.89 446.123H952.098V632.749H990.761V499.78L1037.53 632.749H1037.56Z" fill="white"/>
<path d="M1285.58 441.685C1229.43 441.685 1190.8 480.583 1190.8 539.419C1190.8 598.254 1229.2 637.153 1285.58 637.153C1341.96 637.153 1380.12 598.019 1380.12 539.419C1380.12 480.819 1341.72 441.685 1285.58 441.685ZM1285.58 598.288C1253.81 598.288 1233.63 572.669 1233.63 539.452C1233.63 506.236 1253.84 480.348 1285.58 480.348C1317.31 480.348 1337.29 505.967 1337.29 539.452C1337.29 572.938 1317.08 598.288 1285.58 598.288Z" fill="white"/>
<path d="M1460.57 557.406C1473.11 559.39 1476.07 559.86 1488.41 561.844C1502.19 564.063 1509.08 567.996 1509.08 579.091C1509.08 591.161 1495.54 600.272 1479.06 600.272C1454.92 600.272 1445.34 586.723 1444.6 579.831H1397.83C1398.34 602.491 1419.49 637.456 1479.1 637.456C1526.13 637.456 1551.98 609.383 1551.98 576.637C1551.98 543.891 1536.96 527.148 1493.38 520.02C1481.31 518.037 1477.62 517.297 1466.05 515.347C1451.76 512.893 1445.37 507.715 1445.37 498.84C1445.37 487.745 1456.47 477.928 1476.64 477.928C1496.81 477.928 1505.18 489.258 1507.4 496.654H1550.74C1548.52 471.775 1531.04 441.752 1476.88 441.752C1429.84 441.752 1402.78 468.346 1402.78 500.857C1402.78 529.669 1418.04 550.85 1460.64 557.473L1460.57 557.406Z" fill="white"/>
<path fill-rule="evenodd" clip-rule="evenodd" d="M721.275 389.555C724.683 391.029 726.251 394.988 724.776 398.396L600.482 685.648C599.007 689.056 595.049 690.623 591.64 689.148C588.232 687.674 586.665 683.715 588.14 680.307L712.434 393.056C713.908 389.647 717.867 388.08 721.275 389.555Z" fill="white"/>
<path d="M197.208 863.176H194.904C194.496 864.112 193.344 866.176 190.152 866.176C186.432 866.176 184.008 863.032 184.008 858.88C184.008 854.848 186.24 851.608 189.96 851.608C193.32 851.608 194.568 853.912 194.904 854.92H197.256C197.04 852.712 195 849.448 189.96 849.448C184.896 849.448 181.632 853.288 181.632 858.88C181.632 864.544 184.896 868.36 190.128 868.36C194.88 868.36 196.896 865.192 197.208 863.176ZM200.671 868H202.807V849.808H200.671V868ZM211.374 855.28C208.254 855.28 206.022 857.656 206.022 861.688C206.022 865.864 208.302 868.288 211.734 868.288C214.998 868.288 216.39 866.104 216.534 864.712H214.422C214.206 865.312 213.414 866.32 211.782 866.32C209.67 866.32 208.278 864.688 208.158 862.144H216.582V861.28C216.582 857.632 214.71 855.28 211.374 855.28ZM211.374 857.08C213.27 857.08 214.278 858.496 214.47 860.296H208.254C208.542 858.352 209.646 857.08 211.374 857.08ZM219.004 864.472C219.004 866.848 220.732 868.24 223.132 868.24C225.268 868.24 226.42 866.992 226.924 866.056C227.116 867.16 228.004 868 229.516 868H229.852V866.008C229.228 865.912 228.844 865.528 228.844 864.664V859.048C228.844 856.936 227.356 855.28 224.188 855.28C220.804 855.28 219.556 857.416 219.556 858.832H221.788C221.86 858.232 222.532 857.128 224.188 857.128C225.844 857.128 226.756 857.968 226.756 859.096C226.756 859.936 226.3 860.344 225.052 860.512L222.82 860.8C220.156 861.16 219.004 862.528 219.004 864.472ZM221.164 864.52C221.164 863.512 221.812 862.84 223.3 862.6L225.268 862.288C226.18 862.12 226.66 861.808 226.804 861.616V862.84C226.804 864.904 225.244 866.344 223.324 866.344C222.004 866.344 221.164 865.6 221.164 864.52ZM232.733 868H234.869V862.096C234.869 859.408 235.997 857.944 238.661 857.944V855.472C236.357 855.472 235.229 857.32 234.869 858.232V855.568H232.733V868ZM254.364 864.568C254.364 865.648 253.332 866.464 251.676 866.464C249.732 866.464 248.892 865.384 248.724 864.688H246.468C246.66 866.512 248.34 868.36 251.676 868.36C254.748 868.36 256.548 866.68 256.548 864.448C256.548 862.288 255.3 861.28 252.588 860.824L251.004 860.56C249.588 860.32 249.012 859.816 249.012 858.952C249.012 857.968 249.9 857.056 251.532 857.056C253.212 857.056 253.98 858.136 254.076 858.688H256.188C256.068 856.984 254.748 855.208 251.556 855.208C248.652 855.208 246.876 856.912 246.876 859.024C246.876 861.016 247.956 862.24 250.74 862.696L252.276 862.936C253.764 863.176 254.364 863.608 254.364 864.568ZM261.728 865.888C262.016 866.488 263.192 868.288 265.688 868.288C268.472 868.288 270.656 866.056 270.656 861.784C270.656 857.536 268.616 855.28 265.712 855.28C263.144 855.28 261.992 857.176 261.728 857.824V855.568H259.592V872.776H261.728V865.888ZM265.208 866.344C263.192 866.344 261.68 864.424 261.68 861.784C261.68 859.096 263.168 857.224 265.208 857.224C267.128 857.224 268.448 858.904 268.448 861.784C268.448 864.616 267.128 866.344 265.208 866.344ZM273.145 864.472C273.145 866.848 274.873 868.24 277.273 868.24C279.409 868.24 280.561 866.992 281.065 866.056C281.257 867.16 282.145 868 283.657 868H283.993V866.008C283.369 865.912 282.985 865.528 282.985 864.664V859.048C282.985 856.936 281.497 855.28 278.329 855.28C274.945 855.28 273.697 857.416 273.697 858.832H275.929C276.001 858.232 276.673 857.128 278.329 857.128C279.985 857.128 280.897 857.968 280.897 859.096C280.897 859.936 280.441 860.344 279.193 860.512L276.961 860.8C274.297 861.16 273.145 862.528 273.145 864.472ZM275.305 864.52C275.305 863.512 275.953 862.84 277.441 862.6L279.409 862.288C280.321 862.12 280.801 861.808 280.945 861.616V862.84C280.945 864.904 279.385 866.344 277.465 866.344C276.145 866.344 275.305 865.6 275.305 864.52ZM286.225 861.76C286.225 865.768 288.385 868.312 291.793 868.312C294.889 868.312 296.377 866.248 296.521 864.544H294.385C294.241 865.144 293.521 866.344 291.793 866.344C289.705 866.344 288.433 864.424 288.433 861.76C288.433 859.072 289.633 857.2 291.721 857.2C293.521 857.2 294.241 858.64 294.385 859.312H296.569C296.449 857.32 295.033 855.256 291.721 855.256C288.361 855.256 286.225 857.776 286.225 861.76ZM304.304 855.28C301.184 855.28 298.952 857.656 298.952 861.688C298.952 865.864 301.232 868.288 304.664 868.288C307.928 868.288 309.32 866.104 309.464 864.712H307.352C307.136 865.312 306.344 866.32 304.712 866.32C302.6 866.32 301.208 864.688 301.088 862.144H309.512V861.28C309.512 857.632 307.64 855.28 304.304 855.28ZM304.304 857.08C306.2 857.08 307.208 858.496 307.4 860.296H301.184C301.472 858.352 302.576 857.08 304.304 857.08Z" fill="#0094FF"/>
<path d="M688.016 233.36V234H703.376V231.216H691.152C691.44 230.224 692.336 229.008 694.128 227.664L698.384 224.464C701.168 222.352 702.992 220.048 702.992 216.56C702.992 212.464 700.496 209.296 695.6 209.296C690.64 209.296 688.336 212.816 688.336 216.24H691.344C691.408 214.192 692.784 212.016 695.6 212.016C698.288 212.016 699.952 213.904 699.952 216.496C699.952 218.896 698.608 220.624 696.624 222.16L692.176 225.648C689.008 228.112 688.016 230.384 688.016 233.36ZM707.524 215.536H710.468C710.596 214.032 711.78 211.984 714.5 211.984C717.124 211.984 718.66 213.648 718.66 216.048C718.66 218.768 716.452 220.304 713.988 220.304V223.088H714.532C717.764 223.088 719.716 224.528 719.716 227.28C719.716 229.904 717.796 231.76 714.884 231.76C711.364 231.76 709.988 229.392 709.828 227.728H706.82C706.852 230.864 709.284 234.448 714.884 234.448C719.812 234.448 722.819 231.504 722.819 227.28C722.819 223.6 720.708 221.712 718.148 221.168C720.036 220.464 721.7 218.736 721.7 215.824C721.7 212.176 719.332 209.296 714.5 209.296C709.732 209.296 707.524 212.624 707.524 215.536ZM727.187 234H730.643V229.936H727.187V234ZM749.029 209.712H746.053L734.661 225.392V227.856H746.149V234H749.029V227.856H752.357V225.2H749.029V209.712ZM737.797 225.2L746.149 213.744V225.2H737.797ZM760.839 209.296C757.383 209.296 755.207 211.888 755.207 214.96C755.207 218.032 757.383 220.624 760.839 220.624C764.295 220.624 766.471 218.032 766.471 214.96C766.471 211.888 764.295 209.296 760.839 209.296ZM760.839 218.448C758.791 218.448 757.511 216.848 757.511 214.96C757.511 213.072 758.791 211.472 760.839 211.472C762.887 211.472 764.167 213.072 764.167 214.96C764.167 216.848 762.887 218.448 760.839 218.448Z" fill="#0094FF"/>
</g>
<defs>
<clipPath id="clip0_1_3">
<rect width="1920" height="1080" fill="white"/>
</clipPath>
</defs>
</svg>
