<svg width="1920" height="1108" viewBox="0 0 1920 1108" fill="none" xmlns="http://www.w3.org/2000/svg">
<rect width="1920" height="1108" fill="#F1F1F1"/>
<path d="M989.58 681H1032.42V574.92H1115.38C1141.22 574.92 1149.04 582.74 1149.04 606.54V640.88C1149.04 668.76 1164.34 681 1189.84 681H1205.82V644.62C1196.98 643.94 1192.9 640.2 1192.9 630V589.54C1192.9 568.12 1182.02 554.52 1162.98 550.44C1181 543.3 1201.74 525.28 1201.74 492.3C1201.74 451.5 1174.88 423.28 1123.2 423.28H989.58V681ZM1111.98 535.82H1032.42V460.68H1111.98C1140.2 460.68 1156.18 472.92 1156.18 498.08C1156.18 522.56 1139.86 535.82 1111.98 535.82ZM1253.88 423.28V681H1296.72V574.58H1352.82L1426.26 681H1475.9L1401.78 571.52C1437.14 563.02 1458.56 537.52 1458.56 498.42C1458.56 449.46 1426.26 423.28 1374.58 423.28H1253.88ZM1367.44 460.68C1396.68 460.68 1413.34 473.26 1413.34 498.42C1413.34 524.26 1396.34 536.5 1367.1 536.5H1296.72V460.68H1367.44Z" fill="black"/>
<path d="M1106.54 1026.42C1131.7 1026.42 1143.94 1022 1171.14 1022H1238.46V982.9H1191.88C1209.22 971.34 1233.7 939.72 1233.7 889.06C1233.7 814.6 1185.08 758.84 1106.2 758.84C1028.68 758.84 978.7 815.28 978.7 892.8C978.7 971 1028.34 1026.42 1106.54 1026.42ZM1106.2 986.3C1055.88 986.3 1022.9 944.82 1022.9 892.8C1022.9 839.76 1055.88 798.28 1106.2 798.28C1156.52 798.28 1189.5 839.76 1189.5 892.8C1189.5 944.82 1156.18 986.3 1106.2 986.3ZM1400.37 758.5C1323.87 758.5 1273.55 814.6 1273.55 893.14C1273.55 971.68 1323.87 1027.78 1400.37 1027.78C1432.33 1027.78 1456.13 1017.92 1472.11 1005.34L1490.13 1022H1548.27L1502.37 975.08C1516.65 955.7 1527.19 928.16 1527.19 893.14C1527.19 814.6 1477.21 758.5 1400.37 758.5ZM1400.37 987.66C1350.05 987.66 1317.41 945.84 1317.41 893.14C1317.41 839.76 1350.05 798.28 1400.37 798.28C1450.69 798.28 1483.33 839.76 1483.33 893.14C1483.33 946.18 1450.69 987.66 1400.37 987.66Z" fill="black"/>
<path d="M976 239.2C976 276.8 1003.2 302 1044.8 302C1077.2 302 1095.6 284 1104.4 270C1108.8 286 1123.2 298 1146.8 298H1161.2V256.8C1151.6 255.6 1146.4 250.4 1146.4 238V155.6C1146.4 116.8 1120 90 1064.8 90C1005.6 90 984.4 126.4 984.4 150.8H1031.6C1032.4 141.6 1042.8 127.2 1065.2 127.2C1088 127.2 1100.8 138.4 1100.8 154.4C1100.8 165.6 1093.6 171.6 1076.8 173.6L1044.8 177.2C994.8 183.2 976 207.2 976 239.2ZM1021.6 238.8C1021.6 225.2 1031.6 215.6 1052.4 212L1078.8 207.2C1092.8 204.8 1099.6 200.8 1101.6 198.4V214C1101.6 242.8 1080 264.4 1051.6 264.4C1032.8 264.4 1021.6 253.2 1021.6 238.8ZM1339.23 265.2V298H1386.03V95.2H1339.23V123.6C1334.43 114.4 1317.23 90.4 1279.63 90.4C1230.83 90.4 1193.63 129.6 1193.63 196.8C1193.63 264 1230.43 302.8 1279.23 302.8C1316.43 302.8 1334.83 275.6 1339.23 265.2ZM1289.63 130.8C1318.83 130.8 1340.03 158 1340.03 196.4C1340.03 234.8 1318.43 262 1289.63 262C1262.43 262 1242.43 236.8 1242.43 196.4C1242.43 156 1262.03 130.8 1289.63 130.8Z" fill="black"/>
<path d="M49.28 156.32H77.12V278H106.64V96.08H82.64C81.68 109.04 80 119.6 74.48 125.12C69.68 129.92 62.72 131.36 49.28 131.6V156.32ZM142.132 271.04V278H261.652V250.64H174.532C176.932 244.64 183.412 237.44 193.732 230C197.812 227.12 218.692 211.76 223.972 208.4C246.292 192.32 259.492 175.04 259.492 148.64C259.492 116.72 240.292 92.72 201.652 92.72C162.052 92.72 144.772 120.56 144.772 147.2H174.532C175.012 133.76 183.652 119.6 201.652 119.6C218.932 119.6 229.012 132.08 229.012 148.16C229.012 163.76 220.852 174.8 206.452 185.6C201.892 188.96 179.572 206.24 174.052 210.32C150.052 228.56 142.132 247.28 142.132 271.04ZM288.176 141.68H317.456C318.176 132.56 325.856 119.12 343.376 119.12C359.936 119.12 369.776 129.68 369.776 144.56C369.776 162.08 356.096 171.68 338.336 171.68V199.52H342.896C364.496 199.52 376.496 208.88 376.496 226.4C376.496 242.96 364.736 254.96 346.256 254.96C323.696 254.96 314.816 239.36 314.096 228.56H284.096C284.096 254.48 303.056 281.36 346.256 281.36C384.176 281.36 407.456 258.56 407.456 226.4C407.456 199.04 392.816 185.12 375.056 180.56C388.736 175.04 399.776 162.56 399.776 142.16C399.776 114.32 381.536 92.72 343.376 92.72C304.736 92.72 288.176 118.88 288.176 141.68ZM541.717 95.84H509.797L430.357 210.8V235.28H512.917V278H541.717V235.28H565.957V208.88H541.717V95.84ZM459.877 208.88L512.917 132.32V208.88H459.877ZM661.119 153.68C640.719 153.68 629.679 163.04 623.919 171.2L628.479 122.72H704.799V96.08H603.759L594.879 196.4H622.959C624.639 192.56 632.319 180.08 650.559 180.08C671.439 180.08 681.759 195.44 681.759 216.56C681.759 238.4 669.279 254.24 649.119 254.24C627.279 254.24 619.119 238.4 618.639 231.44H588.159C588.159 251.36 604.479 281.36 649.119 281.36C688.479 281.36 712.239 255.44 712.239 216.56C712.239 179.36 694.719 153.68 661.119 153.68ZM182.48 434.96C182.48 398.48 162.56 374.48 129.2 374.48C104.96 374.48 90.08 389.12 83.6 405.44C83.6 404.24 83.6 403.04 83.6 401.6C83.6 364.64 95.12 335.6 121.52 335.6C138.56 335.6 146 346.16 147.92 353.12H178.4C176.24 331.28 159.44 308.72 121.76 308.72C76.88 308.72 53.84 346.16 53.84 403.28C53.84 465.92 79.52 497.36 121.28 497.36C159.44 497.36 182.48 470.72 182.48 434.96ZM152.24 435.44C152.24 455.36 141.68 470.96 121.28 470.96C102.08 470.96 89.6 454.4 89.6 435.68C89.6 416 102.08 399.68 121.52 399.68C141.92 399.68 152.24 415.04 152.24 435.44ZM270.196 494C271.156 466.4 276.676 437.36 286.516 409.76C295.636 384.08 308.836 359.84 322.996 338.48V312.08H202.996V338.72H292.996C282.676 353.84 268.276 377.6 258.916 399.68C245.956 430.16 237.796 460.4 237.076 494H270.196ZM408.896 308.24C372.176 308.24 352.256 330.56 352.256 359.36C352.256 381.92 365.456 394.88 377.456 399.68C364.256 404.24 346.736 417.92 346.736 444.32C346.736 476 369.536 497.84 408.896 497.84C448.496 497.84 471.296 476.24 471.296 444.32C471.296 417.92 454.016 404.24 440.576 399.68C452.576 394.64 465.536 381.92 465.536 359.36C465.536 330.56 445.616 308.24 408.896 308.24ZM408.896 388.16C392.336 388.16 381.296 376.64 381.296 360.8C381.296 345.2 392.336 333.68 408.896 333.68C425.456 333.68 436.496 345.2 436.496 360.8C436.496 376.64 425.456 388.16 408.896 388.16ZM408.896 471.92C389.936 471.92 377.216 460.16 377.216 442.64C377.216 425.36 389.936 413.6 408.896 413.6C427.856 413.6 440.816 425.36 440.816 442.64C440.816 460.16 427.856 471.92 408.896 471.92ZM495.564 371.36C495.564 406.88 516.204 431.6 550.044 431.6C573.564 431.6 587.724 417.2 594.204 401.12C594.204 401.6 594.204 402.32 594.204 403.28C594.204 442.4 582.684 470.48 556.764 470.48C539.244 470.48 532.044 459.68 530.364 452.96H499.884C501.324 473.6 519.564 497.36 556.764 497.36C602.604 497.36 623.964 459.92 623.964 402.8C623.964 339.92 598.284 308.72 557.004 308.72C518.604 308.72 495.564 335.6 495.564 371.36ZM525.564 370.88C525.564 351.2 536.844 335.12 557.004 335.12C575.964 335.12 588.204 352.16 588.204 370.4C588.204 389.6 575.724 406.16 556.524 406.16C536.124 406.16 525.564 390.32 525.564 370.88ZM723.869 497.36C768.989 497.36 791.549 459.2 791.549 403.04C791.549 346.88 769.229 308.72 723.869 308.72C678.269 308.72 655.949 346.88 655.949 403.04C655.949 459.2 678.509 497.36 723.869 497.36ZM723.869 336.08C749.069 336.08 761.069 363.44 761.069 403.04C761.069 442.64 749.069 470 723.869 470C698.429 470 686.429 442.64 686.429 403.04C686.429 363.44 698.429 336.08 723.869 336.08Z" fill="black"/>
<path d="M68 806H171.2V778.88H135.44V624.08H111.2C110.48 637.04 108.8 647.36 103.28 653.36C98.24 658.64 91.52 660.32 75.92 660.32V685.28H105.68V778.88H68V806ZM208.796 799.04V806H328.316V778.64H241.196C243.596 772.64 250.076 765.44 260.636 758C264.716 755.12 285.596 739.76 290.636 736.4C312.956 720.32 326.156 703.04 326.156 676.64C326.156 644.72 306.956 620.72 268.556 620.72C228.716 620.72 211.436 648.56 211.436 675.2H241.196C241.676 661.76 250.556 647.6 268.556 647.6C285.836 647.6 295.916 660.08 295.916 676.16C295.916 691.76 287.516 702.8 273.116 713.6C268.556 716.96 246.476 734.24 240.956 738.32C216.956 756.56 208.796 775.28 208.796 799.04ZM362.791 669.68H392.311C393.031 660.56 400.711 647.12 418.231 647.12C434.791 647.12 444.871 657.68 444.871 672.56C444.871 690.08 431.191 699.68 413.191 699.68V727.52H417.991C439.591 727.52 451.591 736.88 451.591 754.4C451.591 770.96 439.831 782.96 421.111 782.96C398.551 782.96 389.671 767.6 388.711 756.56H358.711C358.951 782.48 377.911 809.36 421.111 809.36C459.271 809.36 482.551 786.8 482.551 754.4C482.551 727.04 467.911 713.12 450.151 708.56C463.831 703.04 474.871 690.56 474.871 670.16C474.871 642.08 456.631 620.72 418.231 620.72C379.831 620.72 362.791 646.88 362.791 669.68ZM617.587 623.84H583.987L509.587 738.8V763.28H588.787V806H617.587V763.28H641.827V736.88H617.587V623.84ZM538.387 736.88L588.787 658.88V736.88H538.387ZM739.183 681.68C718.783 681.68 707.743 691.04 701.983 699.2L706.543 650.72H782.863V624.08H681.823L672.943 724.4H701.023C702.703 720.56 710.383 708.08 728.623 708.08C749.503 708.08 759.823 723.44 759.823 744.56C759.823 766.4 747.343 782.24 727.183 782.24C705.103 782.24 697.183 766.4 696.703 759.44H666.223C666.223 779.36 682.543 809.36 727.183 809.36C766.543 809.36 790.303 783.44 790.303 744.56C790.303 707.36 772.783 681.68 739.183 681.68ZM179.36 962.96C179.36 926.72 159.68 902.48 126.8 902.48C102.8 902.48 87.92 917.12 81.44 933.44C81.44 932.24 81.44 931.04 81.44 929.6C81.44 892.64 93.2 863.6 119.12 863.6C135.44 863.6 143.12 874.16 145.04 881.12H175.28C173.36 859.28 156.8 836.72 119.12 836.72C74.72 836.72 51.92 874.16 51.92 931.28C51.92 993.92 77.6 1025.36 118.64 1025.36C156.56 1025.36 179.36 998.72 179.36 962.96ZM149.36 963.44C149.36 983.12 138.8 998.96 118.64 998.96C99.92 998.96 87.44 982.4 87.44 963.68C87.44 944 100.16 927.68 118.88 927.68C138.8 927.68 149.36 943.28 149.36 963.44ZM274.796 1022C275.756 993.44 282.236 965.36 292.796 937.76C302.396 912.08 315.836 888.08 329.996 866.48V840.08H204.956V866.72H300.236C289.676 882.08 275.276 905.12 265.196 927.68C251.276 958.16 242.396 987.92 241.676 1022H274.796ZM421.831 836.24C385.111 836.24 365.191 858.56 365.191 887.36C365.191 909.92 378.391 922.88 390.391 927.68C377.191 932.24 359.431 945.92 359.431 972.32C359.431 1004 382.231 1025.84 421.831 1025.84C461.191 1025.84 484.231 1004.24 484.231 972.32C484.231 945.68 466.951 932.24 453.511 927.68C465.271 922.64 478.471 909.68 478.471 887.36C478.471 858.56 458.551 836.24 421.831 836.24ZM421.831 916.16C405.271 916.16 394.231 904.64 394.231 888.8C394.231 873.2 405.271 861.68 421.831 861.68C438.391 861.68 449.431 873.2 449.431 888.8C449.431 904.64 438.391 916.16 421.831 916.16ZM421.831 999.92C402.871 999.92 390.151 988.16 390.151 970.64C390.151 953.36 402.871 941.6 421.831 941.6C440.791 941.6 453.511 953.36 453.511 970.64C453.511 988.16 440.791 999.92 421.831 999.92ZM510.787 899.36C510.787 934.88 531.427 959.6 565.027 959.6C588.307 959.6 602.467 944.96 608.707 928.88C608.707 929.6 608.707 930.32 608.707 931.28C608.707 970.4 597.187 998.48 571.507 998.48C554.467 998.48 547.267 987.68 545.587 980.96H514.867C516.547 1001.6 534.547 1025.36 571.507 1025.36C616.627 1025.36 638.227 987.92 638.227 930.8C638.227 867.92 612.547 836.72 571.747 836.72C533.827 836.72 510.787 863.6 510.787 899.36ZM540.787 898.88C540.787 879.44 551.827 863.12 571.747 863.12C590.227 863.12 602.707 880.16 602.707 898.4C602.707 917.6 589.987 934.16 571.267 934.16C551.347 934.16 540.787 918.32 540.787 898.88ZM728.863 1025.36C771.343 1025.36 791.743 988.4 791.743 931.04C791.743 873.68 771.583 836.72 728.863 836.72C686.143 836.72 665.983 873.68 665.983 931.04C665.983 988.4 686.383 1025.36 728.863 1025.36ZM728.863 864.08C751.903 864.08 761.263 890.72 761.263 931.04C761.263 971.36 751.903 998 728.863 998C705.823 998 696.463 971.36 696.463 931.04C696.463 890.72 705.823 864.08 728.863 864.08Z" fill="black"/>
<path d="M966.912 48.72L969.792 49.248C971.904 49.632 973.032 50.328 973.032 52.008C973.032 53.832 971.232 55.272 968.592 55.272C964.944 55.272 963.624 53.208 963.432 52.272H960.984C961.128 54.168 963.144 57.384 968.592 57.384C972.936 57.384 975.36 54.888 975.36 51.936C975.36 48.912 973.704 47.64 970.08 46.944L967.224 46.392C965.112 45.984 964.008 45.216 964.008 43.704C964.008 42.048 965.52 40.488 968.232 40.488C971.064 40.488 972.288 42.24 972.504 43.128H974.832C974.664 41.28 972.984 38.424 968.232 38.424C964.056 38.424 961.68 40.848 961.68 43.752C961.68 46.44 963.216 48.048 966.912 48.72ZM977.765 44.568V46.392H979.733V53.256C979.733 55.896 981.221 57 983.885 57H984.365V54.936C982.541 54.912 981.869 54.312 981.869 52.656V46.392H984.293V44.568H981.869V40.44H979.733V44.568H977.765ZM990.681 57.408C990.057 59.16 989.241 59.664 987.825 59.712V61.776H988.089C990.057 61.776 991.449 61.08 992.601 57.816L997.257 44.568H995.025L991.905 53.808L988.785 44.568H986.385L990.825 56.928L990.681 57.408ZM999.936 57H1002.07V38.808H999.936V57ZM1005.84 42.072H1008.26V39.336H1005.84V42.072ZM1005.98 57H1008.12V44.568H1005.98V57ZM1018.92 53.568C1018.92 54.648 1017.89 55.464 1016.23 55.464C1014.29 55.464 1013.45 54.384 1013.28 53.688H1011.02C1011.21 55.512 1012.89 57.36 1016.23 57.36C1019.3 57.36 1021.1 55.68 1021.1 53.448C1021.1 51.288 1019.85 50.28 1017.14 49.824L1015.56 49.56C1014.14 49.32 1013.57 48.816 1013.57 47.952C1013.57 46.968 1014.45 46.056 1016.09 46.056C1017.77 46.056 1018.53 47.136 1018.63 47.688H1020.74C1020.62 45.984 1019.3 44.208 1016.11 44.208C1013.21 44.208 1011.43 45.912 1011.43 48.024C1011.43 50.016 1012.51 51.24 1015.29 51.696L1016.83 51.936C1018.32 52.176 1018.92 52.608 1018.92 53.568ZM1023.07 44.568V46.392H1025.04V53.256C1025.04 55.896 1026.53 57 1029.19 57H1029.67V54.936C1027.85 54.912 1027.17 54.312 1027.17 52.656V46.392H1029.6V44.568H1027.17V40.44H1025.04V44.568H1023.07ZM1032.75 42.072H1035.17V39.336H1032.75V42.072ZM1032.89 57H1035.03V44.568H1032.89V57ZM1038.24 50.76C1038.24 54.768 1040.4 57.312 1043.81 57.312C1046.9 57.312 1048.39 55.248 1048.54 53.544H1046.4C1046.26 54.144 1045.54 55.344 1043.81 55.344C1041.72 55.344 1040.45 53.424 1040.45 50.76C1040.45 48.072 1041.65 46.2 1043.74 46.2C1045.54 46.2 1046.26 47.64 1046.4 48.312H1048.58C1048.46 46.32 1047.05 44.256 1043.74 44.256C1040.38 44.256 1038.24 46.776 1038.24 50.76ZM1062.72 48.72L1065.6 49.248C1067.72 49.632 1068.84 50.328 1068.84 52.008C1068.84 53.832 1067.04 55.272 1064.4 55.272C1060.76 55.272 1059.44 53.208 1059.24 52.272H1056.8C1056.94 54.168 1058.96 57.384 1064.4 57.384C1068.75 57.384 1071.17 54.888 1071.17 51.936C1071.17 48.912 1069.52 47.64 1065.89 46.944L1063.04 46.392C1060.92 45.984 1059.82 45.216 1059.82 43.704C1059.82 42.048 1061.33 40.488 1064.04 40.488C1066.88 40.488 1068.1 42.24 1068.32 43.128H1070.64C1070.48 41.28 1068.8 38.424 1064.04 38.424C1059.87 38.424 1057.49 40.848 1057.49 43.752C1057.49 46.44 1059.03 48.048 1062.72 48.72ZM1079.29 44.28C1076.17 44.28 1073.94 46.656 1073.94 50.688C1073.94 54.864 1076.22 57.288 1079.65 57.288C1082.91 57.288 1084.3 55.104 1084.45 53.712H1082.34C1082.12 54.312 1081.33 55.32 1079.7 55.32C1077.58 55.32 1076.19 53.688 1076.07 51.144H1084.5V50.28C1084.5 46.632 1082.62 44.28 1079.29 44.28ZM1079.29 46.08C1081.18 46.08 1082.19 47.496 1082.38 49.296H1076.17C1076.46 47.352 1077.56 46.08 1079.29 46.08ZM1086.68 44.568V46.392H1088.65V53.256C1088.65 55.896 1090.13 57 1092.8 57H1093.28V54.936C1091.45 54.912 1090.78 54.312 1090.78 52.656V46.392H1093.21V44.568H1090.78V40.44H1088.65V44.568H1086.68ZM1101.75 44.28H1104.51V57H1106.75V38.808H1104.99C1104.92 40.224 1104.71 41.28 1104.2 41.784C1103.75 42.24 1103.05 42.384 1101.75 42.384V44.28Z" fill="black"/>
<path d="M984.912 373.72L987.792 374.248C989.904 374.632 991.032 375.328 991.032 377.008C991.032 378.832 989.232 380.272 986.592 380.272C982.944 380.272 981.624 378.208 981.432 377.272H978.984C979.128 379.168 981.144 382.384 986.592 382.384C990.936 382.384 993.36 379.888 993.36 376.936C993.36 373.912 991.704 372.64 988.08 371.944L985.224 371.392C983.112 370.984 982.008 370.216 982.008 368.704C982.008 367.048 983.52 365.488 986.232 365.488C989.064 365.488 990.288 367.24 990.504 368.128H992.832C992.664 366.28 990.984 363.424 986.232 363.424C982.056 363.424 979.68 365.848 979.68 368.752C979.68 371.44 981.216 373.048 984.912 373.72ZM995.765 369.568V371.392H997.733V378.256C997.733 380.896 999.221 382 1001.88 382H1002.36V379.936C1000.54 379.912 999.869 379.312 999.869 377.656V371.392H1002.29V369.568H999.869V365.44H997.733V369.568H995.765ZM1008.68 382.408C1008.06 384.16 1007.24 384.664 1005.82 384.712V386.776H1006.09C1008.06 386.776 1009.45 386.08 1010.6 382.816L1015.26 369.568H1013.02L1009.9 378.808L1006.78 369.568H1004.38L1008.82 381.928L1008.68 382.408ZM1017.94 382H1020.07V363.808H1017.94V382ZM1023.84 367.072H1026.26V364.336H1023.84V367.072ZM1023.98 382H1026.12V369.568H1023.98V382ZM1036.92 378.568C1036.92 379.648 1035.89 380.464 1034.23 380.464C1032.29 380.464 1031.45 379.384 1031.28 378.688H1029.02C1029.21 380.512 1030.89 382.36 1034.23 382.36C1037.3 382.36 1039.1 380.68 1039.1 378.448C1039.1 376.288 1037.85 375.28 1035.14 374.824L1033.56 374.56C1032.14 374.32 1031.57 373.816 1031.57 372.952C1031.57 371.968 1032.45 371.056 1034.09 371.056C1035.77 371.056 1036.53 372.136 1036.63 372.688H1038.74C1038.62 370.984 1037.3 369.208 1034.11 369.208C1031.21 369.208 1029.43 370.912 1029.43 373.024C1029.43 375.016 1030.51 376.24 1033.29 376.696L1034.83 376.936C1036.32 377.176 1036.92 377.608 1036.92 378.568ZM1041.07 369.568V371.392H1043.04V378.256C1043.04 380.896 1044.53 382 1047.19 382H1047.67V379.936C1045.85 379.912 1045.17 379.312 1045.17 377.656V371.392H1047.6V369.568H1045.17V365.44H1043.04V369.568H1041.07ZM1050.75 367.072H1053.17V364.336H1050.75V367.072ZM1050.89 382H1053.03V369.568H1050.89V382ZM1056.24 375.76C1056.24 379.768 1058.4 382.312 1061.81 382.312C1064.9 382.312 1066.39 380.248 1066.54 378.544H1064.4C1064.26 379.144 1063.54 380.344 1061.81 380.344C1059.72 380.344 1058.45 378.424 1058.45 375.76C1058.45 373.072 1059.65 371.2 1061.74 371.2C1063.54 371.2 1064.26 372.64 1064.4 373.312H1066.58C1066.46 371.32 1065.05 369.256 1061.74 369.256C1058.38 369.256 1056.24 371.776 1056.24 375.76ZM1080.72 373.72L1083.6 374.248C1085.72 374.632 1086.84 375.328 1086.84 377.008C1086.84 378.832 1085.04 380.272 1082.4 380.272C1078.76 380.272 1077.44 378.208 1077.24 377.272H1074.8C1074.94 379.168 1076.96 382.384 1082.4 382.384C1086.75 382.384 1089.17 379.888 1089.17 376.936C1089.17 373.912 1087.52 372.64 1083.89 371.944L1081.04 371.392C1078.92 370.984 1077.82 370.216 1077.82 368.704C1077.82 367.048 1079.33 365.488 1082.04 365.488C1084.88 365.488 1086.1 367.24 1086.32 368.128H1088.64C1088.48 366.28 1086.8 363.424 1082.04 363.424C1077.87 363.424 1075.49 365.848 1075.49 368.752C1075.49 371.44 1077.03 373.048 1080.72 373.72ZM1097.29 369.28C1094.17 369.28 1091.94 371.656 1091.94 375.688C1091.94 379.864 1094.22 382.288 1097.65 382.288C1100.91 382.288 1102.3 380.104 1102.45 378.712H1100.34C1100.12 379.312 1099.33 380.32 1097.7 380.32C1095.58 380.32 1094.19 378.688 1094.07 376.144H1102.5V375.28C1102.5 371.632 1100.62 369.28 1097.29 369.28ZM1097.29 371.08C1099.18 371.08 1100.19 372.496 1100.38 374.296H1094.17C1094.46 372.352 1095.56 371.08 1097.29 371.08ZM1104.68 369.568V371.392H1106.65V378.256C1106.65 380.896 1108.13 382 1110.8 382H1111.28V379.936C1109.45 379.912 1108.78 379.312 1108.78 377.656V371.392H1111.21V369.568H1108.78V365.44H1106.65V369.568H1104.68ZM1120.07 381.52V382H1131.59V379.912H1122.42C1122.63 379.168 1123.31 378.256 1124.65 377.248L1127.84 374.848C1129.93 373.264 1131.3 371.536 1131.3 368.92C1131.3 365.848 1129.43 363.472 1125.75 363.472C1122.03 363.472 1120.31 366.112 1120.31 368.68H1122.56C1122.61 367.144 1123.64 365.512 1125.75 365.512C1127.77 365.512 1129.02 366.928 1129.02 368.872C1129.02 370.672 1128.01 371.968 1126.52 373.12L1123.19 375.736C1120.81 377.584 1120.07 379.288 1120.07 381.52Z" fill="black"/>
<path d="M984.912 724.72L987.792 725.248C989.904 725.632 991.032 726.328 991.032 728.008C991.032 729.832 989.232 731.272 986.592 731.272C982.944 731.272 981.624 729.208 981.432 728.272H978.984C979.128 730.168 981.144 733.384 986.592 733.384C990.936 733.384 993.36 730.888 993.36 727.936C993.36 724.912 991.704 723.64 988.08 722.944L985.224 722.392C983.112 721.984 982.008 721.216 982.008 719.704C982.008 718.048 983.52 716.488 986.232 716.488C989.064 716.488 990.288 718.24 990.504 719.128H992.832C992.664 717.28 990.984 714.424 986.232 714.424C982.056 714.424 979.68 716.848 979.68 719.752C979.68 722.44 981.216 724.048 984.912 724.72ZM995.765 720.568V722.392H997.733V729.256C997.733 731.896 999.221 733 1001.88 733H1002.36V730.936C1000.54 730.912 999.869 730.312 999.869 728.656V722.392H1002.29V720.568H999.869V716.44H997.733V720.568H995.765ZM1008.68 733.408C1008.06 735.16 1007.24 735.664 1005.82 735.712V737.776H1006.09C1008.06 737.776 1009.45 737.08 1010.6 733.816L1015.26 720.568H1013.02L1009.9 729.808L1006.78 720.568H1004.38L1008.82 732.928L1008.68 733.408ZM1017.94 733H1020.07V714.808H1017.94V733ZM1023.84 718.072H1026.26V715.336H1023.84V718.072ZM1023.98 733H1026.12V720.568H1023.98V733ZM1036.92 729.568C1036.92 730.648 1035.89 731.464 1034.23 731.464C1032.29 731.464 1031.45 730.384 1031.28 729.688H1029.02C1029.21 731.512 1030.89 733.36 1034.23 733.36C1037.3 733.36 1039.1 731.68 1039.1 729.448C1039.1 727.288 1037.85 726.28 1035.14 725.824L1033.56 725.56C1032.14 725.32 1031.57 724.816 1031.57 723.952C1031.57 722.968 1032.45 722.056 1034.09 722.056C1035.77 722.056 1036.53 723.136 1036.63 723.688H1038.74C1038.62 721.984 1037.3 720.208 1034.11 720.208C1031.21 720.208 1029.43 721.912 1029.43 724.024C1029.43 726.016 1030.51 727.24 1033.29 727.696L1034.83 727.936C1036.32 728.176 1036.92 728.608 1036.92 729.568ZM1041.07 720.568V722.392H1043.04V729.256C1043.04 731.896 1044.53 733 1047.19 733H1047.67V730.936C1045.85 730.912 1045.17 730.312 1045.17 728.656V722.392H1047.6V720.568H1045.17V716.44H1043.04V720.568H1041.07ZM1050.75 718.072H1053.17V715.336H1050.75V718.072ZM1050.89 733H1053.03V720.568H1050.89V733ZM1056.24 726.76C1056.24 730.768 1058.4 733.312 1061.81 733.312C1064.9 733.312 1066.39 731.248 1066.54 729.544H1064.4C1064.26 730.144 1063.54 731.344 1061.81 731.344C1059.72 731.344 1058.45 729.424 1058.45 726.76C1058.45 724.072 1059.65 722.2 1061.74 722.2C1063.54 722.2 1064.26 723.64 1064.4 724.312H1066.58C1066.46 722.32 1065.05 720.256 1061.74 720.256C1058.38 720.256 1056.24 722.776 1056.24 726.76ZM1080.72 724.72L1083.6 725.248C1085.72 725.632 1086.84 726.328 1086.84 728.008C1086.84 729.832 1085.04 731.272 1082.4 731.272C1078.76 731.272 1077.44 729.208 1077.24 728.272H1074.8C1074.94 730.168 1076.96 733.384 1082.4 733.384C1086.75 733.384 1089.17 730.888 1089.17 727.936C1089.17 724.912 1087.52 723.64 1083.89 722.944L1081.04 722.392C1078.92 721.984 1077.82 721.216 1077.82 719.704C1077.82 718.048 1079.33 716.488 1082.04 716.488C1084.88 716.488 1086.1 718.24 1086.32 719.128H1088.64C1088.48 717.28 1086.8 714.424 1082.04 714.424C1077.87 714.424 1075.49 716.848 1075.49 719.752C1075.49 722.44 1077.03 724.048 1080.72 724.72ZM1097.29 720.28C1094.17 720.28 1091.94 722.656 1091.94 726.688C1091.94 730.864 1094.22 733.288 1097.65 733.288C1100.91 733.288 1102.3 731.104 1102.45 729.712H1100.34C1100.12 730.312 1099.33 731.32 1097.7 731.32C1095.58 731.32 1094.19 729.688 1094.07 727.144H1102.5V726.28C1102.5 722.632 1100.62 720.28 1097.29 720.28ZM1097.29 722.08C1099.18 722.08 1100.19 723.496 1100.38 725.296H1094.17C1094.46 723.352 1095.56 722.08 1097.29 722.08ZM1104.68 720.568V722.392H1106.65V729.256C1106.65 731.896 1108.13 733 1110.8 733H1111.28V730.936C1109.45 730.912 1108.78 730.312 1108.78 728.656V722.392H1111.21V720.568H1108.78V716.44H1106.65V720.568H1104.68ZM1120.31 719.152H1122.51C1122.61 718.024 1123.5 716.488 1125.54 716.488C1127.51 716.488 1128.66 717.736 1128.66 719.536C1128.66 721.576 1127 722.728 1125.15 722.728V724.816H1125.56C1127.99 724.816 1129.45 725.896 1129.45 727.96C1129.45 729.928 1128.01 731.32 1125.83 731.32C1123.19 731.32 1122.15 729.544 1122.03 728.296H1119.78C1119.8 730.648 1121.63 733.336 1125.83 733.336C1129.52 733.336 1131.78 731.128 1131.78 727.96C1131.78 725.2 1130.19 723.784 1128.27 723.376C1129.69 722.848 1130.94 721.552 1130.94 719.368C1130.94 716.632 1129.16 714.472 1125.54 714.472C1121.96 714.472 1120.31 716.968 1120.31 719.152Z" fill="black"/>
<path d="M48.56 49.416C52.28 49.416 54.344 47.4 54.344 44.088C54.344 40.752 52.328 38.808 48.56 38.808H40.304V57H42.584V49.416H48.56ZM48.296 40.848C50.648 40.848 51.944 41.976 51.944 44.088C51.944 46.2 50.624 47.352 48.272 47.352H42.584V40.848H48.296ZM57.0997 57H59.2357V51.096C59.2357 48.408 60.3637 46.944 63.0277 46.944V44.472C60.7237 44.472 59.5957 46.32 59.2357 47.232V44.568H57.0997V57ZM70.8344 44.256C67.3784 44.256 65.1704 46.848 65.1704 50.784C65.1704 54.72 67.3784 57.312 70.8344 57.312C74.2424 57.312 76.4744 54.72 76.4744 50.784C76.4744 46.848 74.2664 44.256 70.8344 44.256ZM67.3784 50.784C67.3784 48.144 68.6264 46.2 70.8344 46.2C73.0184 46.2 74.2664 48.144 74.2664 50.784C74.2664 53.424 73.0184 55.368 70.8344 55.368C68.6264 55.368 67.3784 53.424 67.3784 50.784ZM81.806 54.888C82.094 55.488 83.27 57.288 85.766 57.288C88.55 57.288 90.734 55.056 90.734 50.784C90.734 46.536 88.694 44.28 85.79 44.28C83.222 44.28 82.07 46.176 81.806 46.824V44.568H79.67V61.776H81.806V54.888ZM85.286 55.344C83.27 55.344 81.758 53.424 81.758 50.784C81.758 48.096 83.246 46.224 85.286 46.224C87.206 46.224 88.526 47.904 88.526 50.784C88.526 53.616 87.206 55.344 85.286 55.344ZM98.9829 44.256C95.5269 44.256 93.3189 46.848 93.3189 50.784C93.3189 54.72 95.5269 57.312 98.9829 57.312C102.391 57.312 104.623 54.72 104.623 50.784C104.623 46.848 102.415 44.256 98.9829 44.256ZM95.5269 50.784C95.5269 48.144 96.7749 46.2 98.9829 46.2C101.167 46.2 102.415 48.144 102.415 50.784C102.415 53.424 101.167 55.368 98.9829 55.368C96.7749 55.368 95.5269 53.424 95.5269 50.784ZM107.818 57H109.954V51.096C109.954 48.408 111.082 46.944 113.746 46.944V44.472C111.442 44.472 110.314 46.32 109.954 47.232V44.568H107.818V57ZM115.741 44.568V46.392H117.709V53.256C117.709 55.896 119.197 57 121.861 57H122.341V54.936C120.517 54.912 119.845 54.312 119.845 52.656V46.392H122.269V44.568H119.845V40.44H117.709V44.568H115.741ZM125.417 42.072H127.841V39.336H125.417V42.072ZM125.561 57H127.697V44.568H125.561V57ZM136.577 44.256C133.121 44.256 130.913 46.848 130.913 50.784C130.913 54.72 133.121 57.312 136.577 57.312C139.985 57.312 142.217 54.72 142.217 50.784C142.217 46.848 140.009 44.256 136.577 44.256ZM133.121 50.784C133.121 48.144 134.369 46.2 136.577 46.2C138.761 46.2 140.009 48.144 140.009 50.784C140.009 53.424 138.761 55.368 136.577 55.368C134.369 55.368 133.121 53.424 133.121 50.784ZM145.412 57H147.548V49.608C147.548 47.88 148.7 46.224 150.572 46.224C152.276 46.224 153.212 47.52 153.212 49.464V57H155.348V49.032C155.348 46.224 153.908 44.28 151.268 44.28C148.7 44.28 147.716 46.176 147.548 46.536V44.568H145.412V57ZM158.379 53.472C158.379 55.848 160.107 57.24 162.507 57.24C164.643 57.24 165.795 55.992 166.299 55.056C166.491 56.16 167.379 57 168.891 57H169.227V55.008C168.603 54.912 168.219 54.528 168.219 53.664V48.048C168.219 45.936 166.731 44.28 163.563 44.28C160.179 44.28 158.931 46.416 158.931 47.832H161.163C161.235 47.232 161.907 46.128 163.563 46.128C165.219 46.128 166.131 46.968 166.131 48.096C166.131 48.936 165.675 49.344 164.427 49.512L162.195 49.8C159.531 50.16 158.379 51.528 158.379 53.472ZM160.539 53.52C160.539 52.512 161.187 51.84 162.675 51.6L164.643 51.288C165.555 51.12 166.035 50.808 166.179 50.616V51.84C166.179 53.904 164.619 55.344 162.699 55.344C161.379 55.344 160.539 54.6 160.539 53.52ZM172.132 57H174.268V38.808H172.132V57ZM184.515 57H186.795V48.792H196.155V46.656H186.795V40.872H196.971V38.808H184.515V57ZM200.019 42.072H202.443V39.336H200.019V42.072ZM200.163 57H202.299V44.568H200.163V57ZM214.346 54.552V56.76C214.346 58.8 213.17 60.192 211.034 60.192C209.138 60.192 208.442 59.16 208.322 58.656H205.97C206.042 59.952 207.386 62.16 211.034 62.16C214.682 62.16 216.482 59.976 216.482 56.856V44.568H214.346V46.632C214.082 45.96 213.05 44.28 210.65 44.28C207.746 44.28 205.538 46.632 205.538 50.64C205.538 54.72 207.794 57.048 210.674 57.048C213.05 57.048 214.058 55.272 214.346 54.552ZM211.01 46.224C213.026 46.224 214.394 48.12 214.394 50.616C214.394 53.208 213.002 55.08 210.986 55.08C209.09 55.08 207.77 53.232 207.77 50.64C207.77 48 209.09 46.224 211.01 46.224ZM230.038 44.568H227.902V52.056C227.902 53.832 226.654 55.344 224.926 55.344C223.222 55.344 222.406 54.12 222.406 52.248V44.568H220.246V52.776C220.246 55.368 221.638 57.264 224.254 57.264C226.63 57.264 227.614 55.536 227.902 55.08V57H230.038V44.568ZM233.912 57H236.048V51.096C236.048 48.408 237.176 46.944 239.84 46.944V44.472C237.536 44.472 236.408 46.32 236.048 47.232V44.568H233.912V57ZM247.335 44.28C244.215 44.28 241.983 46.656 241.983 50.688C241.983 54.864 244.263 57.288 247.695 57.288C250.959 57.288 252.351 55.104 252.495 53.712H250.383C250.167 54.312 249.375 55.32 247.743 55.32C245.631 55.32 244.239 53.688 244.119 51.144H252.543V50.28C252.543 46.632 250.671 44.28 247.335 44.28ZM247.335 46.08C249.231 46.08 250.239 47.496 250.431 49.296H244.215C244.503 47.352 245.607 46.08 247.335 46.08ZM262.645 53.568C262.645 54.648 261.613 55.464 259.957 55.464C258.013 55.464 257.173 54.384 257.005 53.688H254.749C254.941 55.512 256.621 57.36 259.957 57.36C263.029 57.36 264.829 55.68 264.829 53.448C264.829 51.288 263.581 50.28 260.869 49.824L259.285 49.56C257.869 49.32 257.293 48.816 257.293 47.952C257.293 46.968 258.181 46.056 259.813 46.056C261.493 46.056 262.261 47.136 262.357 47.688H264.469C264.349 45.984 263.029 44.208 259.837 44.208C256.933 44.208 255.157 45.912 255.157 48.024C255.157 50.016 256.237 51.24 259.021 51.696L260.557 51.936C262.045 52.176 262.645 52.608 262.645 53.568Z" fill="black"/>
<path d="M39.008 571.872H45.632V588H47.936V571.872H54.56V569.808H39.008V571.872ZM54.7385 584.472C54.7385 586.848 56.4665 588.24 58.8665 588.24C61.0025 588.24 62.1545 586.992 62.6585 586.056C62.8505 587.16 63.7385 588 65.2505 588H65.5865V586.008C64.9625 585.912 64.5785 585.528 64.5785 584.664V579.048C64.5785 576.936 63.0905 575.28 59.9225 575.28C56.5385 575.28 55.2905 577.416 55.2905 578.832H57.5225C57.5945 578.232 58.2665 577.128 59.9225 577.128C61.5785 577.128 62.4905 577.968 62.4905 579.096C62.4905 579.936 62.0345 580.344 60.7865 580.512L58.5545 580.8C55.8905 581.16 54.7385 582.528 54.7385 584.472ZM56.8985 584.52C56.8985 583.512 57.5465 582.84 59.0345 582.6L61.0025 582.288C61.9145 582.12 62.3945 581.808 62.5385 581.616V582.84C62.5385 584.904 60.9785 586.344 59.0585 586.344C57.7385 586.344 56.8985 585.6 56.8985 584.52ZM70.6029 585.888C70.8909 586.488 72.0669 588.288 74.5629 588.288C77.3229 588.288 79.5309 586.032 79.5309 581.784C79.5309 577.536 77.4909 575.28 74.5869 575.28C72.0189 575.28 70.8669 577.176 70.6029 577.824V569.808H68.4669V588H70.6029V585.888ZM74.0829 586.344C72.0669 586.344 70.5549 584.424 70.5549 581.784C70.5549 579.096 72.0429 577.224 74.0829 577.224C76.0029 577.224 77.3229 578.904 77.3229 581.784C77.3229 584.616 75.9789 586.344 74.0829 586.344ZM92.4838 575.568H90.3478V583.056C90.3478 584.832 89.0998 586.344 87.3718 586.344C85.6678 586.344 84.8518 585.12 84.8518 583.248V575.568H82.6918V583.776C82.6918 586.368 84.0838 588.264 86.6998 588.264C89.0758 588.264 90.0598 586.536 90.3478 586.08V588H92.4838V575.568ZM96.3815 588H98.5175V569.808H96.3815V588ZM101.637 584.472C101.637 586.848 103.365 588.24 105.765 588.24C107.901 588.24 109.053 586.992 109.557 586.056C109.749 587.16 110.637 588 112.149 588H112.485V586.008C111.861 585.912 111.477 585.528 111.477 584.664V579.048C111.477 576.936 109.989 575.28 106.821 575.28C103.437 575.28 102.189 577.416 102.189 578.832H104.421C104.493 578.232 105.165 577.128 106.821 577.128C108.477 577.128 109.389 577.968 109.389 579.096C109.389 579.936 108.933 580.344 107.685 580.512L105.453 580.8C102.789 581.16 101.637 582.528 101.637 584.472ZM103.797 584.52C103.797 583.512 104.445 582.84 105.933 582.6L107.901 582.288C108.813 582.12 109.293 581.808 109.437 581.616V582.84C109.437 584.904 107.877 586.344 105.957 586.344C104.637 586.344 103.797 585.6 103.797 584.52ZM115.365 588H117.501V582.096C117.501 579.408 118.629 577.944 121.293 577.944V575.472C118.989 575.472 117.861 577.32 117.501 578.232V575.568H115.365V588ZM130.468 588H132.748V579.792H142.108V577.656H132.748V571.872H142.924V569.808H130.468V588ZM145.972 573.072H148.396V570.336H145.972V573.072ZM146.116 588H148.252V575.568H146.116V588ZM160.299 585.552V587.76C160.299 589.8 159.123 591.192 156.987 591.192C155.091 591.192 154.395 590.16 154.275 589.656H151.923C151.995 590.952 153.339 593.16 156.987 593.16C160.635 593.16 162.435 590.976 162.435 587.856V575.568H160.299V577.632C160.035 576.96 159.003 575.28 156.603 575.28C153.699 575.28 151.491 577.632 151.491 581.64C151.491 585.72 153.747 588.048 156.627 588.048C159.003 588.048 160.011 586.272 160.299 585.552ZM156.963 577.224C158.979 577.224 160.347 579.12 160.347 581.616C160.347 584.208 158.955 586.08 156.939 586.08C155.043 586.08 153.723 584.232 153.723 581.64C153.723 579 155.043 577.224 156.963 577.224ZM175.992 575.568H173.856V583.056C173.856 584.832 172.608 586.344 170.88 586.344C169.176 586.344 168.36 585.12 168.36 583.248V575.568H166.2V583.776C166.2 586.368 167.592 588.264 170.208 588.264C172.584 588.264 173.568 586.536 173.856 586.08V588H175.992V575.568ZM179.865 588H182.001V582.096C182.001 579.408 183.129 577.944 185.793 577.944V575.472C183.489 575.472 182.361 577.32 182.001 578.232V575.568H179.865V588ZM193.288 575.28C190.168 575.28 187.936 577.656 187.936 581.688C187.936 585.864 190.216 588.288 193.648 588.288C196.912 588.288 198.304 586.104 198.448 584.712H196.336C196.12 585.312 195.328 586.32 193.696 586.32C191.584 586.32 190.192 584.688 190.072 582.144H198.496V581.28C198.496 577.632 196.624 575.28 193.288 575.28ZM193.288 577.08C195.184 577.08 196.192 578.496 196.384 580.296H190.168C190.456 578.352 191.56 577.08 193.288 577.08ZM208.598 584.568C208.598 585.648 207.566 586.464 205.91 586.464C203.966 586.464 203.126 585.384 202.958 584.688H200.702C200.894 586.512 202.574 588.36 205.91 588.36C208.982 588.36 210.782 586.68 210.782 584.448C210.782 582.288 209.534 581.28 206.822 580.824L205.238 580.56C203.822 580.32 203.246 579.816 203.246 578.952C203.246 577.968 204.134 577.056 205.766 577.056C207.446 577.056 208.214 578.136 208.31 578.688H210.422C210.302 576.984 208.982 575.208 205.79 575.208C202.886 575.208 201.11 576.912 201.11 579.024C201.11 581.016 202.19 582.24 204.974 582.696L206.51 582.936C207.998 583.176 208.598 583.608 208.598 584.568Z" fill="black"/>
</svg>
