<svg width="1920" height="1108" viewBox="0 0 1920 1108" fill="none" xmlns="http://www.w3.org/2000/svg">
<rect width="1920" height="1108" fill="#F1F1F1"/>
<path d="M76.58 346H85.68L96.32 296.58H161.42L150.78 346H159.88L182.7 239.88H173.6L163.24 288.04H98.14L108.5 239.88H99.4L76.58 346ZM189.92 346H240.04C263 346 278.26 332.56 278.26 312.54C278.26 300.36 272.1 293.08 262.86 290.56C273.64 288.46 284.7 278.8 284.7 263.4C284.7 248.7 275.46 239.88 257.26 239.88H212.74L189.92 346ZM248.3 286.92H211.76L220.16 248H255.58C268.04 248 275.04 253.6 275.04 264.1C275.04 277.26 264.54 286.92 248.3 286.92ZM247.18 295.18C260.9 295.18 268.6 300.78 268.6 312.68C268.6 327.8 256.56 337.74 239.34 337.74H200.84L209.94 295.18H247.18ZM381.244 346H390.624L451.244 251.64L430.944 346H439.904L462.724 239.88H449.424L387.824 335.78L367.804 239.88H355.064L332.244 346H340.784L361.224 251.64L381.244 346ZM467.397 328.08C467.397 339.98 476.357 347.4 489.797 347.4C501.557 347.4 509.677 340.68 513.877 333.96C513.317 340.68 517.237 345.72 525.497 346.14H525.917L527.737 337.88C523.257 337.18 521.717 334.66 522.977 328.36L530.397 293.64C533.477 279.36 525.357 268.86 507.997 268.86C489.097 268.86 479.997 281.32 478.877 289.16H487.977C489.097 285.1 494.557 276.56 507.297 276.56C517.797 276.56 522.697 281.88 522.697 288.88C522.697 295.74 519.057 300.92 507.857 302.18L493.297 303.86C475.517 305.96 467.397 316.32 467.397 328.08ZM476.357 327.66C476.357 319.96 482.237 313.24 494.557 311.56L507.997 309.74C515.277 308.76 518.637 305.82 519.897 304.42L517.097 316.46C514.297 330.6 502.817 339.42 491.197 339.42C482.097 339.42 476.357 334.66 476.357 327.66ZM544.099 346H552.779L561.739 304.42C565.239 288.6 574.479 279.92 589.319 279.92L591.419 269.84C576.439 269.84 568.319 281.04 565.799 285.66L569.019 270.4H560.479L544.099 346ZM647.032 329.48L643.812 344.18C640.872 357.9 632.052 366.3 618.192 366.3C605.592 366.3 601.812 359.3 601.252 356.22H591.872C592.152 362.66 598.872 374.28 617.912 374.28C638.072 374.28 648.572 361.82 652.352 344.46L668.312 270.4H659.632L655.852 287.2C655.572 282.3 651.232 268.72 635.132 268.72C613.712 268.72 598.592 291.12 598.592 316.74C598.592 335.36 608.812 345.44 622.952 345.44C637.372 345.44 644.232 334.66 647.032 329.48ZM635.412 276.84C646.192 276.84 653.052 285.8 653.052 299.1C653.052 318.56 640.312 337.46 624.352 337.46C614.132 337.46 607.692 329.2 607.692 315.9C607.692 295.74 619.312 276.84 635.412 276.84ZM696.303 255.14H706.383L709.183 241.7H699.103L696.303 255.14ZM677.403 346H686.083L702.323 270.4H693.783L677.403 346ZM711.58 346H720.26L730.06 300.64C732.58 288.74 742.38 276.84 755.54 276.84C767.02 276.84 772.2 286.5 769.26 299.66L759.32 346H768L777.8 299.24C781.58 282.02 774.3 268.86 758.34 268.86C742.94 268.86 735.1 281.18 733.7 283.84L736.5 270.4H727.96L711.58 346ZM832.771 346H902.911L904.731 337.6H843.691L864.691 239.88H855.591L832.771 346ZM959.92 346H1030.06L1031.88 337.6H970.84L991.84 239.88H982.74L959.92 346ZM1067.22 255.14H1077.3L1080.1 241.7H1070.02L1067.22 255.14ZM1048.32 346H1057L1073.24 270.4H1064.7L1048.32 346ZM1134.16 329.48L1130.94 344.18C1128 357.9 1119.18 366.3 1105.32 366.3C1092.72 366.3 1088.94 359.3 1088.38 356.22H1079C1079.28 362.66 1086 374.28 1105.04 374.28C1125.2 374.28 1135.7 361.82 1139.48 344.46L1155.44 270.4H1146.76L1142.98 287.2C1142.7 282.3 1138.36 268.72 1122.26 268.72C1100.84 268.72 1085.72 291.12 1085.72 316.74C1085.72 335.36 1095.94 345.44 1110.08 345.44C1124.5 345.44 1131.36 334.66 1134.16 329.48ZM1122.54 276.84C1133.32 276.84 1140.18 285.8 1140.18 299.1C1140.18 318.56 1127.44 337.46 1111.48 337.46C1101.26 337.46 1094.82 329.2 1094.82 315.9C1094.82 295.74 1106.44 276.84 1122.54 276.84ZM1164.39 346H1173.07L1182.87 300.64C1185.39 288.74 1195.19 276.84 1208.35 276.84C1219.83 276.84 1225.01 286.5 1222.07 299.66L1212.13 346H1220.81L1230.61 299.24C1234.39 282.02 1227.11 268.86 1211.15 268.86C1195.75 268.86 1187.91 281.18 1186.51 283.84L1195.89 239.88H1187.21L1164.39 346ZM1253.49 270.4L1251.81 278.1H1263.29L1253.07 325.14C1250.27 338.58 1256.99 346 1270.43 346H1271.83L1273.79 337.74C1263.15 337.74 1259.93 333.4 1262.03 323.46L1271.83 278.1H1286.11L1287.79 270.4H1273.37L1278.55 246.74H1270.01L1264.83 270.4H1253.49ZM1331.79 346H1340.89L1363.71 239.88H1354.61L1331.79 346ZM1378.17 270.4L1376.49 278.1H1387.97L1377.75 325.14C1374.95 338.58 1381.67 346 1395.11 346H1396.51L1398.47 337.74C1387.83 337.74 1384.61 333.4 1386.71 323.46L1396.51 278.1H1410.79L1412.47 270.4H1398.05L1403.23 246.74H1394.69L1389.51 270.4H1378.17ZM1416.36 328.08C1416.36 339.98 1425.32 347.4 1438.76 347.4C1450.52 347.4 1458.64 340.68 1462.84 333.96C1462.28 340.68 1466.2 345.72 1474.46 346.14H1474.88L1476.7 337.88C1472.22 337.18 1470.68 334.66 1471.94 328.36L1479.36 293.64C1482.44 279.36 1474.32 268.86 1456.96 268.86C1438.06 268.86 1428.96 281.32 1427.84 289.16H1436.94C1438.06 285.1 1443.52 276.56 1456.26 276.56C1466.76 276.56 1471.66 281.88 1471.66 288.88C1471.66 295.74 1468.02 300.92 1456.82 302.18L1442.26 303.86C1424.48 305.96 1416.36 316.32 1416.36 328.08ZM1425.32 327.66C1425.32 319.96 1431.2 313.24 1443.52 311.56L1456.96 309.74C1464.24 308.76 1467.6 305.82 1468.86 304.42L1466.06 316.46C1463.26 330.6 1451.78 339.42 1440.16 339.42C1431.06 339.42 1425.32 334.66 1425.32 327.66ZM1493.2 346H1501.88L1524.7 239.88H1516.02L1493.2 346ZM1546.42 255.14H1556.5L1559.3 241.7H1549.22L1546.42 255.14ZM1527.52 346H1536.2L1552.44 270.4H1543.9L1527.52 346ZM1564.92 318.14C1564.92 337.32 1575.56 347.68 1590.96 347.68C1608.04 347.68 1617.7 336.06 1620.36 326.82H1611.68C1609.58 331.3 1603.14 339.7 1591.66 339.7C1580.74 339.7 1573.88 331.3 1573.88 317.44C1573.88 297.28 1585.78 276.7 1603.7 276.7C1616.16 276.7 1619.1 286.5 1619.1 291.82H1627.78C1628.62 281.04 1622.46 268.72 1604.12 268.72C1580.46 268.72 1564.92 291.96 1564.92 318.14Z" fill="black"/>
<path d="M78.12 177H83.72L94.64 125.9H164.36L153.44 177H159.04L181.72 70.88H176.12L165.48 120.72H95.76L106.4 70.88H100.94L78.12 177ZM192.143 177H240.023C262.703 177 277.963 163.28 277.963 143.26C277.963 131.08 271.663 123.94 261.723 121.84C272.923 119.88 284.683 109.66 284.683 93.14C284.683 79.14 276.143 70.88 258.503 70.88H214.963L192.143 177ZM249.543 119.46H210.063L219.303 76.06H258.223C271.523 76.06 279.083 81.94 279.083 93.42C279.083 108.12 267.743 119.46 249.543 119.46ZM249.263 124.64C264.103 124.64 272.363 130.38 272.363 143.54C272.363 160.48 259.063 171.82 240.023 171.82H198.863L208.943 124.64H249.263ZM385.395 177H391.275L456.935 77.6L435.515 177H440.975L463.795 70.88H455.255L389.455 170.98L366.775 70.88H358.655L335.835 177H341.155L362.575 77.32L385.395 177ZM470.414 159.92C470.414 171.54 478.954 178.4 491.834 178.4C504.154 178.4 512.554 171.4 516.894 163.98C515.074 170.98 518.154 176.44 526.694 177.28L527.954 172.24C522.634 171.4 521.514 168.46 522.774 161.6L530.614 124.64C533.834 109.66 525.154 100.56 509.194 100.56C492.114 100.56 483.154 112.32 482.034 119.46H487.354C488.894 115.12 494.774 105.6 508.914 105.6C520.674 105.6 525.994 111.48 525.994 119.6C525.994 127.44 521.934 133.6 509.194 135L495.194 136.68C477.414 138.78 470.414 149.56 470.414 159.92ZM476.014 159.78C476.014 151.52 482.174 143.4 496.174 141.58L509.754 139.76C518.854 138.64 522.214 135.14 523.474 133.32L519.974 149.14C517.034 164.26 504.574 173.22 492.394 173.22C482.314 173.22 476.014 167.9 476.014 159.78ZM546.173 177H551.633L561.293 132.62C564.653 116.94 575.293 107.84 589.013 107.84L590.273 101.68C575.013 101.68 566.893 113.02 564.513 117.5L567.733 102.24H562.273L546.173 177ZM647.895 159.36L644.115 176.58C640.895 191.56 631.235 200.66 616.115 200.66C601.975 200.66 597.775 192.68 597.215 189.04H591.475C591.615 194.92 598.055 205.84 615.835 205.84C635.155 205.84 645.795 193.52 649.435 176.86L665.535 102.24H660.075L655.735 121.28C655.735 115.4 651.675 100.56 634.315 100.56C613.455 100.56 598.195 122.12 598.195 148.72C598.195 167.06 608.135 176.44 621.715 176.44C637.535 176.44 644.815 164.96 647.895 159.36ZM634.315 105.74C645.515 105.74 653.495 115.12 653.495 129.82C653.495 151.66 639.075 171.26 622.135 171.26C611.215 171.26 603.935 163.14 603.935 148.44C603.935 126.32 616.815 105.74 634.315 105.74ZM695.649 85.58H702.089L704.609 74.24H698.029L695.649 85.58ZM676.469 177H681.929L698.029 102.24H692.569L676.469 177ZM709.278 177H714.738L724.678 131.64C727.338 118.76 738.398 105.74 752.398 105.74C764.998 105.74 770.318 115.96 767.238 129.68L757.158 177H762.478L772.558 129.54C776.338 112.74 769.198 100.56 753.518 100.56C737.838 100.56 729.438 113.58 727.758 117.08L730.838 102.24H725.378L709.278 177ZM831.167 177H899.487L900.747 171.82H837.887L859.447 70.88H853.987L831.167 177ZM969.649 76.06H1011.65L989.949 177H995.549L1017.11 76.06H1059.11L1060.23 70.88H970.769L969.649 76.06ZM1057.09 177H1062.55L1072.49 131.64C1075.15 118.76 1086.21 105.74 1100.21 105.74C1112.81 105.74 1118.13 115.96 1115.05 129.68L1104.97 177H1110.29L1120.37 129.54C1124.15 112.74 1117.01 100.56 1101.33 100.56C1085.65 100.56 1077.25 113.58 1075.57 117.08L1085.37 70.88H1079.91L1057.09 177ZM1156.25 85.58H1162.69L1165.21 74.24H1158.63L1156.25 85.58ZM1137.07 177H1142.53L1158.63 102.24H1153.17L1137.07 177ZM1169.88 177H1175.34L1185.28 131.64C1187.94 118.76 1199 105.74 1213 105.74C1225.6 105.74 1230.92 115.96 1227.84 129.68L1217.76 177H1223.08L1233.16 129.54C1236.94 112.74 1229.8 100.56 1214.12 100.56C1198.44 100.56 1190.04 113.58 1188.36 117.08L1191.44 102.24H1185.98L1169.88 177ZM1291.77 177H1297.37L1320.05 70.88H1314.59L1291.77 177ZM1336.2 102.24L1335.08 107.28H1346.42L1335.5 158.24C1332.98 170.42 1338.72 177 1350.06 177H1351.74L1352.86 171.96C1342.22 171.96 1339 167.48 1341.1 156.84L1351.88 107.28H1366.44L1367.42 102.24H1352.86L1358.04 78.44H1352.72L1347.54 102.24H1336.2ZM1372.21 159.92C1372.21 171.54 1380.75 178.4 1393.63 178.4C1405.95 178.4 1414.35 171.4 1418.69 163.98C1416.87 170.98 1419.95 176.44 1428.49 177.28L1429.75 172.24C1424.43 171.4 1423.31 168.46 1424.57 161.6L1432.41 124.64C1435.63 109.66 1426.95 100.56 1410.99 100.56C1393.91 100.56 1384.95 112.32 1383.83 119.46H1389.15C1390.69 115.12 1396.57 105.6 1410.71 105.6C1422.47 105.6 1427.79 111.48 1427.79 119.6C1427.79 127.44 1423.73 133.6 1410.99 135L1396.99 136.68C1379.21 138.78 1372.21 149.56 1372.21 159.92ZM1377.81 159.78C1377.81 151.52 1383.97 143.4 1397.97 141.58L1411.55 139.76C1420.65 138.64 1424.01 135.14 1425.27 133.32L1421.77 149.14C1418.83 164.26 1406.37 173.22 1394.19 173.22C1384.11 173.22 1377.81 167.9 1377.81 159.78ZM1448.11 177H1453.57L1476.39 70.88H1470.93L1448.11 177ZM1500.24 85.58H1506.68L1509.2 74.24H1502.62L1500.24 85.58ZM1481.06 177H1486.52L1502.62 102.24H1497.16L1481.06 177ZM1516.53 149.84C1516.53 168.74 1526.89 178.68 1541.59 178.68C1557.27 178.68 1566.79 167.9 1569.45 159.5H1564.13C1561.33 165.1 1554.19 173.5 1542.01 173.5C1530.25 173.5 1522.27 165.24 1522.27 149.42C1522.27 126.74 1535.57 105.74 1554.89 105.74C1568.61 105.74 1571.97 115.54 1572.25 122.12H1577.57C1578.13 112.32 1572.53 100.56 1555.17 100.56C1531.65 100.56 1516.53 123.94 1516.53 149.84Z" fill="black"/>
<path d="M75.46 514H87.22L97.58 465.98H159.04L148.82 514H160.72L183.4 407.88H171.5L161.42 454.78H99.96L110.04 407.88H98.14L75.46 514ZM188.39 514H240.19C263.29 514 278.55 500.84 278.55 480.68C278.55 468.5 272.53 461.08 263.57 458.42C274.21 456.18 284.85 446.94 284.85 432.38C284.85 417.26 275.05 407.88 256.43 407.88H211.07L188.39 514ZM247.33 453.8H213.03L220.73 418.38H253.63C265.39 418.38 271.97 423.56 271.97 433.5C271.97 445.4 262.17 453.8 247.33 453.8ZM245.65 464.44C258.67 464.44 265.67 469.76 265.67 480.82C265.67 494.54 254.61 503.36 238.93 503.36H202.39L210.79 464.44H245.65ZM378.337 514H390.237L447.077 423.7L427.617 514H439.237L462.057 407.88H444.977L386.877 500.28L368.817 407.88H352.437L329.757 514H340.817L360.277 423.84L378.337 514ZM465.339 495.38C465.339 507.56 474.579 515.4 488.439 515.4C500.199 515.4 508.039 508.68 511.959 502.52C511.819 508.82 516.299 513.86 524.699 514H525.539L527.919 503.36C523.999 502.66 522.179 500.56 523.439 494.68L530.439 461.5C533.519 447.92 525.819 436.44 507.339 436.44C487.039 436.44 477.799 449.18 476.819 457.58H488.579C489.559 453.94 494.739 446.1 506.359 446.1C515.739 446.1 520.359 451 520.359 457.02C520.359 463.18 517.139 467.66 506.919 468.92L491.939 470.6C474.299 472.56 465.339 482.5 465.339 495.38ZM476.959 494.68C476.959 487.4 482.559 481.8 493.619 480.26L506.779 478.44C512.799 477.6 516.019 475.22 517.279 473.96L515.179 483.2C512.519 496.5 501.599 505.32 490.539 505.32C482.139 505.32 476.959 500.98 476.959 494.68ZM542.852 514H554.052L562.592 474.52C565.952 458.7 573.932 450.44 589.752 450.44L592.692 437.28C577.852 437.28 569.732 448.2 567.212 452.96L570.432 437.84H559.232L542.852 514ZM646.449 498.32L643.789 510.92C641.129 523.66 633.009 531.64 620.129 531.64C608.649 531.64 605.289 525.2 604.729 522.68H592.549C592.689 529.68 599.689 541.86 619.709 541.86C640.569 541.86 651.069 529.26 654.849 511.48L670.669 437.84H659.609L656.249 452.82C655.549 448.62 651.209 436.16 635.809 436.16C613.969 436.16 598.989 458.98 598.989 483.76C598.989 502.8 609.489 513.44 624.049 513.44C637.489 513.44 644.069 503.22 646.449 498.32ZM636.509 446.52C646.869 446.52 652.749 455.2 652.749 467.24C652.749 484.74 641.409 503.08 626.289 503.08C616.629 503.08 610.749 494.96 610.749 482.64C610.749 464.16 621.529 446.52 636.509 446.52ZM696.964 423.56H709.704L712.924 408.44H700.184L696.964 423.56ZM678.344 514H689.544L705.924 437.84H694.724L678.344 514ZM713.614 514H724.814L734.614 468.64C736.994 457.44 745.674 446.52 757.994 446.52C768.774 446.52 773.814 455.62 771.014 468.5L761.214 514H772.414L782.074 467.8C785.854 450.16 778.574 436.3 762.334 436.3C747.214 436.3 739.794 447.92 738.534 450.02L741.194 437.84H729.994L713.614 514ZM834.249 514H905.649L908.029 503.08H848.389L868.829 407.88H856.929L834.249 514ZM960.714 514H972.474L982.694 466.54H1021.89C1033.09 466.54 1036.31 470.6 1034.21 480.82L1030.71 497.06C1028.47 507.98 1034.07 514 1044.01 514H1044.99L1047.37 503.08C1043.45 502.66 1041.77 500.84 1042.89 495.8L1046.81 477.74C1048.63 468.78 1045.55 462.48 1038.55 460.24C1048.35 457.86 1060.25 449.04 1060.25 432.66C1060.25 418.1 1050.59 407.88 1032.39 407.88H983.394L960.714 514ZM1022.59 455.76H984.934L993.054 418.52H1029.73C1040.93 418.52 1047.51 423.56 1047.51 433.92C1047.51 446.94 1037.15 455.76 1022.59 455.76ZM1107.4 436.16C1083.46 436.16 1068.76 459.68 1068.76 485.86C1068.76 503.78 1079.26 515.68 1096.48 515.68C1115.24 515.68 1124.76 502.8 1127.14 494.26H1115.94C1114.12 498.32 1107.82 505.18 1097.46 505.18C1084.72 505.18 1078.14 494.54 1080.94 477.6H1130.78L1131.62 473.26C1136.1 450.58 1126.86 436.16 1107.4 436.16ZM1106.84 445.82C1118.32 445.82 1123.36 454.92 1121.68 467.66H1083.18C1087.24 454.22 1095.64 445.82 1106.84 445.82ZM1193.46 498.32L1190.8 510.92C1188.14 523.66 1180.02 531.64 1167.14 531.64C1155.66 531.64 1152.3 525.2 1151.74 522.68H1139.56C1139.7 529.68 1146.7 541.86 1166.72 541.86C1187.58 541.86 1198.08 529.26 1201.86 511.48L1217.68 437.84H1206.62L1203.26 452.82C1202.56 448.62 1198.22 436.16 1182.82 436.16C1160.98 436.16 1146 458.98 1146 483.76C1146 502.8 1156.5 513.44 1171.06 513.44C1184.5 513.44 1191.08 503.22 1193.46 498.32ZM1183.52 446.52C1193.88 446.52 1199.76 455.2 1199.76 467.24C1199.76 484.74 1188.42 503.08 1173.3 503.08C1163.64 503.08 1157.76 494.96 1157.76 482.64C1157.76 464.16 1168.54 446.52 1183.52 446.52ZM1299.42 437.84H1288.22L1278.42 483.62C1276.04 494.68 1266.94 505.32 1255.04 505.32C1244.26 505.32 1240.2 496.36 1242.86 484.04L1252.66 437.84H1241.46L1231.66 485.02C1227.88 501.96 1235.44 515.68 1251.26 515.68C1265.12 515.68 1273.24 504.06 1274.5 501.68L1271.84 514H1282.9L1299.42 437.84ZM1306.84 514H1318.04L1340.72 407.88H1329.66L1306.84 514ZM1342.25 495.38C1342.25 507.56 1351.49 515.4 1365.35 515.4C1377.11 515.4 1384.95 508.68 1388.87 502.52C1388.73 508.82 1393.21 513.86 1401.61 514H1402.45L1404.83 503.36C1400.91 502.66 1399.09 500.56 1400.35 494.68L1407.35 461.5C1410.43 447.92 1402.73 436.44 1384.25 436.44C1363.95 436.44 1354.71 449.18 1353.73 457.58H1365.49C1366.47 453.94 1371.65 446.1 1383.27 446.1C1392.65 446.1 1397.27 451 1397.27 457.02C1397.27 463.18 1394.05 467.66 1383.83 468.92L1368.85 470.6C1351.21 472.56 1342.25 482.5 1342.25 495.38ZM1353.87 494.68C1353.87 487.4 1359.47 481.8 1370.53 480.26L1383.69 478.44C1389.71 477.6 1392.93 475.22 1394.19 473.96L1392.09 483.2C1389.43 496.5 1378.51 505.32 1367.45 505.32C1359.05 505.32 1353.87 500.98 1353.87 494.68ZM1419.77 514H1430.97L1439.51 474.52C1442.87 458.7 1450.85 450.44 1466.67 450.44L1469.61 437.28C1454.77 437.28 1446.65 448.2 1444.13 452.96L1447.35 437.84H1436.15L1419.77 514ZM1510.19 514H1521.95L1544.77 407.88H1532.87L1510.19 514ZM1558.09 437.84L1555.99 447.36H1567.47L1558.09 491.46C1555.01 505.74 1562.29 514 1577.41 514H1578.81L1581.19 503.22C1570.69 503.22 1567.47 499.16 1569.43 489.64L1578.53 447.36H1592.67L1594.77 437.84H1580.63L1585.67 414.32H1574.61L1569.57 437.84H1558.09ZM1598.33 495.38C1598.33 507.56 1607.57 515.4 1621.43 515.4C1633.19 515.4 1641.03 508.68 1644.95 502.52C1644.81 508.82 1649.29 513.86 1657.69 514H1658.53L1660.91 503.36C1656.99 502.66 1655.17 500.56 1656.43 494.68L1663.43 461.5C1666.51 447.92 1658.81 436.44 1640.33 436.44C1620.03 436.44 1610.79 449.18 1609.81 457.58H1621.57C1622.55 453.94 1627.73 446.1 1639.35 446.1C1648.73 446.1 1653.35 451 1653.35 457.02C1653.35 463.18 1650.13 467.66 1639.91 468.92L1624.93 470.6C1607.29 472.56 1598.33 482.5 1598.33 495.38ZM1609.95 494.68C1609.95 487.4 1615.55 481.8 1626.61 480.26L1639.77 478.44C1645.79 477.6 1649.01 475.22 1650.27 473.96L1648.17 483.2C1645.51 496.5 1634.59 505.32 1623.53 505.32C1615.13 505.32 1609.95 500.98 1609.95 494.68ZM1675.98 514H1687.18L1709.86 407.88H1698.8L1675.98 514ZM1730.01 423.56H1742.75L1745.97 408.44H1733.23L1730.01 423.56ZM1711.39 514H1722.59L1738.97 437.84H1727.77L1711.39 514ZM1750.02 485.44C1750.02 504.9 1761.08 515.68 1777.04 515.68C1795.24 515.68 1805.04 503.22 1807.56 493.42H1796.36C1794.82 497.06 1788.94 505.32 1778.02 505.32C1767.8 505.32 1761.78 497.06 1761.78 484.6C1761.78 466.4 1772.56 446.38 1789.36 446.38C1800.84 446.38 1803.22 456.18 1803.22 460.38H1814.56C1815.68 448.76 1809.1 436.16 1789.92 436.16C1766.12 436.16 1750.02 459.26 1750.02 485.44Z" fill="black"/>
<path d="M73.5 684H91.14L100.8 638.64H155.12L145.32 684H162.82L185.64 577.88H168.14L158.62 622.12H104.3L113.82 577.88H96.32L73.5 684ZM186.56 684H242.28C265.94 684 281.06 670.56 281.06 650.26C281.06 638.64 275.46 631.36 267.2 628.28C277.56 625.76 287.36 617.08 287.36 603.22C287.36 587.12 277 577.88 257.68 577.88H209.38L186.56 684ZM248.02 621.7H217.5L223.66 593H252.92C262.72 593 268.18 597.2 268.18 605.32C268.18 614.98 260.2 621.7 248.02 621.7ZM245.36 637.24C256.28 637.24 262.02 641.58 262.02 650.54C262.02 661.6 253.34 668.6 240.04 668.6H207.42L214.14 637.24H245.36ZM376.374 684H392.614L442.734 599.86L424.674 684H441.754L464.574 577.88H439.094L389.534 660.76L375.534 577.88H350.754L327.934 684H344.174L362.234 600.56L376.374 684ZM464.623 664.68C464.623 676.86 473.863 685.4 488.143 685.4C499.203 685.4 506.623 679.24 510.823 673.5C511.383 679.38 516.003 684 524.683 684H528.603L531.963 668.74C528.463 668.18 526.783 666.22 527.903 661.46L534.063 631.92C537.283 617.22 529.723 605.04 509.003 605.04C486.883 605.04 477.223 618.62 475.963 628H492.623C493.463 624.78 497.803 618.62 507.463 618.62C515.303 618.62 519.083 622.54 519.083 627.44C519.083 632.62 516.143 636.12 507.603 636.96L494.023 638.22C474.003 640.04 464.623 650.82 464.623 664.68ZM481.143 663.14C481.143 657.12 485.483 652.5 495.423 651.1L506.623 649.42C511.523 648.86 514.323 647.18 515.583 646.06L514.183 652.64C511.663 664.12 502.563 671.96 492.483 671.96C485.483 671.96 481.143 668.32 481.143 663.14ZM544.05 684H560.43L568.55 646.62C571.77 632.2 578.63 624.5 594.31 624.5L598.37 606.02C584.65 606.02 576.67 616.24 574.01 621L577.09 606.58H560.71L544.05 684ZM649.134 668.74L647.174 678.12C644.654 689.32 637.654 696.32 626.594 696.32C617.354 696.32 614.554 691.42 614.274 689.6H596.214C596.214 697.3 603.634 710.6 625.334 710.6C647.734 710.6 659.074 698.42 663.274 679.24L678.814 606.58H662.434L659.774 618.9C658.794 615.4 654.314 604.9 640.454 604.9C618.194 604.9 602.934 627.44 602.934 652.36C602.934 671.26 613.154 681.9 627.714 681.9C640.314 681.9 646.754 672.8 649.134 668.74ZM641.994 619.32C650.814 619.32 655.714 626.6 655.714 636.96C655.714 651.94 646.334 667.48 633.314 667.48C625.194 667.48 620.154 660.62 620.154 650.12C620.154 634.3 629.394 619.32 641.994 619.32ZM701.85 595.24H719.63L723.41 577.32H705.63L701.85 595.24ZM683.37 684H699.75L716.41 606.58H700.03L683.37 684ZM721.101 684H737.481L747.281 638.36C749.521 628.42 756.661 619.46 767.161 619.46C776.261 619.46 780.321 627.02 777.941 638.08L768.141 684H784.521L794.461 637.1C798.381 618.62 790.681 605.04 774.721 605.04C760.441 605.04 753.021 615.82 751.901 617.64L754.141 606.58H737.761L721.101 684ZM841.723 684H915.643L919.003 668.04H862.723L882.043 577.88H864.543L841.723 684ZM1015.67 684H1031.91L1082.03 599.86L1063.97 684H1081.05L1103.87 577.88H1078.39L1028.83 660.76L1014.83 577.88H990.05L967.23 684H983.47L1001.53 600.56L1015.67 684ZM1148.02 604.76C1122.54 604.76 1107.7 628.42 1107.7 654.46C1107.7 673.5 1118.76 685.82 1137.38 685.82C1158.1 685.82 1167.9 672.1 1170.28 662.72H1154.04C1152.36 666.22 1147.04 671.4 1138.78 671.4C1128 671.4 1121.98 662.44 1124.22 648.72H1173.36L1174.34 643.68C1179.1 620.02 1169.02 604.76 1148.02 604.76ZM1147.18 617.92C1156.7 617.92 1161.04 625.48 1159.92 636.12H1127.02C1130.66 624.78 1137.52 617.92 1147.18 617.92ZM1233.9 671.68L1231.24 684H1247.62L1270.58 577.88H1254.06L1245.1 619.18C1243.7 614.98 1238.94 604.9 1224.94 604.9C1202.54 604.9 1186.86 627.86 1186.86 654.32C1186.86 674.34 1196.8 685.68 1211.22 685.68C1224.8 685.68 1232.22 674.76 1233.9 671.68ZM1226.62 619.32C1235.44 619.32 1241.04 626.6 1241.04 637.66C1241.04 654.32 1230.4 671.26 1217.38 671.26C1208.98 671.26 1203.94 664.4 1203.94 652.92C1203.94 636.54 1213.18 619.32 1226.62 619.32ZM1287.28 595.24H1305.06L1308.84 577.32H1291.06L1287.28 595.24ZM1268.8 684H1285.18L1301.84 606.58H1285.46L1268.8 684ZM1385.49 606.58H1368.97L1359.17 652.78C1357.07 662.44 1349.79 671.26 1339.57 671.26C1330.47 671.26 1327.11 663.7 1329.35 653.06L1339.29 606.58H1322.77L1312.83 654.46C1308.77 672.1 1316.61 685.68 1332.15 685.68C1345.59 685.68 1353.43 675.04 1354.83 672.94L1352.31 684H1368.83L1385.49 606.58ZM1416.25 637.38C1418.35 627.72 1425.21 619.32 1434.87 619.32C1443.27 619.32 1446.77 626.32 1444.53 636.54L1434.31 684H1450.83L1460.77 637.52C1462.87 627.72 1469.87 619.32 1479.39 619.32C1487.93 619.32 1491.43 626.32 1489.19 636.54L1478.97 684H1495.49L1505.71 635.56C1509.63 617.78 1502.35 605.04 1485.69 605.04C1473.09 605.04 1465.25 612.6 1461.05 618.48C1458.81 610.22 1452.37 605.04 1442.57 605.04C1429.83 605.04 1422.27 614.84 1420.59 617.5L1422.83 606.58H1406.45L1389.79 684H1406.17L1416.25 637.38ZM1552.8 684H1570.44L1593.12 577.88H1575.62L1552.8 684ZM1604.16 606.58L1601.36 620.02H1612.28L1604.02 658.94C1600.52 674.9 1608.36 684 1625.58 684H1628.38L1631.74 668.74C1622.08 668.74 1619 665.24 1620.96 656.14L1628.66 620.02H1641.96L1644.9 606.58H1631.6L1636.5 583.76H1620.12L1615.22 606.58H1604.16ZM1646.15 664.68C1646.15 676.86 1655.39 685.4 1669.67 685.4C1680.73 685.4 1688.15 679.24 1692.35 673.5C1692.91 679.38 1697.53 684 1706.21 684H1710.13L1713.49 668.74C1709.99 668.18 1708.31 666.22 1709.43 661.46L1715.59 631.92C1718.81 617.22 1711.25 605.04 1690.53 605.04C1668.41 605.04 1658.75 618.62 1657.49 628H1674.15C1674.99 624.78 1679.33 618.62 1688.99 618.62C1696.83 618.62 1700.61 622.54 1700.61 627.44C1700.61 632.62 1697.67 636.12 1689.13 636.96L1675.55 638.22C1655.53 640.04 1646.15 650.82 1646.15 664.68ZM1662.67 663.14C1662.67 657.12 1667.01 652.5 1676.95 651.1L1688.15 649.42C1693.05 648.86 1695.85 647.18 1697.11 646.06L1695.71 652.64C1693.19 664.12 1684.09 671.96 1674.01 671.96C1667.01 671.96 1662.67 668.32 1662.67 663.14ZM1725.71 684H1742.09L1764.91 577.88H1748.53L1725.71 684ZM1782.06 595.24H1799.84L1803.62 577.32H1785.84L1782.06 595.24ZM1763.58 684H1779.96L1796.62 606.58H1780.24L1763.58 684ZM1804.96 654.74C1804.96 674.9 1816.44 685.82 1833.94 685.82C1853.54 685.82 1864.18 672.66 1866.7 661.18H1850.46C1848.92 664.82 1844.02 671.26 1835.2 671.26C1826.66 671.26 1821.9 664.12 1821.9 653.34C1821.9 637.66 1830.86 619.32 1845.14 619.32C1854.52 619.32 1856.9 627.02 1856.76 631.08H1873.14C1874.4 618.2 1867.4 604.76 1846.26 604.76C1821.48 604.76 1804.96 627.44 1804.96 654.74Z" fill="black"/>
<path d="M72.66 852H93.38L102.76 808.18H152.88L143.5 852H164.22L187.04 745.88H166.32L157.08 788.72H106.96L116.06 745.88H95.48L72.66 852ZM185.847 852H243.807C267.747 852 283.007 838.28 283.007 817.84C283.007 806.78 277.547 799.64 269.567 796.42C279.787 793.48 289.167 784.94 289.167 771.36C289.167 754.98 278.667 745.88 259.067 745.88H208.667L185.847 852ZM248.987 788.58H220.147L225.467 763.38H253.327C261.867 763.38 266.487 767.02 266.487 774.02C266.487 782.56 259.627 788.58 248.987 788.58ZM245.767 806.92C255.427 806.92 260.607 810.42 260.607 818.26C260.607 827.92 253.047 833.94 241.007 833.94H210.487L216.227 806.92H245.767ZM376.077 852H394.557L441.177 771.36L423.817 852H443.977L466.657 745.88H436.417L391.757 822.88L380.137 745.88H350.597L327.777 852H346.817L364.037 772.06L376.077 852ZM465.013 832.4C465.013 844.58 474.113 853.26 488.533 853.26C499.173 853.26 506.453 847.66 510.933 841.92C511.633 847.52 516.253 852 525.073 852H531.093L534.873 834.22C531.513 833.94 530.113 831.84 531.093 827.64L536.833 800.34C540.193 784.66 532.493 772.2 510.513 772.2C487.693 772.2 477.753 786.06 476.213 796H495.393C496.233 793.2 500.153 787.88 508.833 787.88C515.693 787.88 519.053 791.38 519.053 795.58C519.053 800.48 516.253 803.42 508.553 804.12L495.953 805.1C474.253 806.64 465.013 818.12 465.013 832.4ZM484.053 830.44C484.053 825.12 487.553 820.64 497.213 819.38L507.013 817.98C511.633 817.42 514.013 816.16 515.273 815.04L514.153 820.78C511.773 831 503.653 838.14 494.133 838.14C487.833 838.14 484.053 835.06 484.053 830.44ZM545.537 852H564.857L572.697 815.32C575.777 802.02 582.217 794.6 597.617 794.6L602.237 773.32C589.077 773.32 581.377 783.12 578.717 787.74L581.657 774.02H562.337L545.537 852ZM651.569 836.74L649.889 844.44C647.649 854.94 641.069 861.38 630.989 861.38C623.009 861.38 620.489 857.32 620.349 855.78H599.209C598.929 864.04 606.769 878.04 629.309 878.04C652.689 878.04 664.449 865.86 668.789 845.98L684.329 774.02H665.009L662.629 784.94C661.649 781.72 657.029 772.34 644.009 772.34C621.609 772.34 606.069 794.32 606.069 819.66C606.069 838.42 616.149 848.78 630.429 848.78C642.609 848.78 649.329 840.38 651.569 836.74ZM645.969 788.86C653.809 788.86 658.429 795.16 658.429 804.68C658.429 818.54 650.029 832.12 638.129 832.12C630.849 832.12 626.229 826.38 626.229 816.72C626.229 802.3 634.629 788.86 645.969 788.86ZM705.795 764.22H726.235L730.295 744.9H709.855L705.795 764.22ZM687.455 852H706.775L723.575 774.02H704.255L687.455 852ZM726.553 852H745.873L755.673 806.08C757.773 796.84 764.213 789 773.593 789C781.573 789 785.213 795.58 783.113 805.38L773.173 852H792.493L802.573 804.26C806.633 785.5 798.653 772.34 783.113 772.34C769.113 772.34 761.693 782.7 760.433 784.52L762.673 774.02H743.353L726.553 852ZM847.582 852H922.622L926.682 833.38H872.222L890.982 745.88H870.402L847.582 852ZM971.98 852H1029.94C1053.88 852 1069.14 838.28 1069.14 817.84C1069.14 806.78 1063.68 799.64 1055.7 796.42C1065.92 793.48 1075.3 784.94 1075.3 771.36C1075.3 754.98 1064.8 745.88 1045.2 745.88H994.8L971.98 852ZM1035.12 788.58H1006.28L1011.6 763.38H1039.46C1048 763.38 1052.62 767.02 1052.62 774.02C1052.62 782.56 1045.76 788.58 1035.12 788.58ZM1031.9 806.92C1041.56 806.92 1046.74 810.42 1046.74 818.26C1046.74 827.92 1039.18 833.94 1027.14 833.94H996.62L1002.36 806.92H1031.9ZM1124.67 771.92C1097.51 771.92 1081.97 796.84 1081.97 821.76C1081.97 842.62 1094.29 853.96 1112.63 853.96C1139.65 853.96 1155.19 829.18 1155.19 804.12C1155.19 783.4 1142.87 771.92 1124.67 771.92ZM1101.43 820.64C1101.43 805.1 1110.11 788.72 1123.13 788.72C1131.25 788.72 1135.73 795.16 1135.73 805.24C1135.73 820.78 1127.05 837.3 1114.03 837.3C1106.05 837.3 1101.43 830.72 1101.43 820.64ZM1161.6 852H1180.92L1203.74 745.88H1184.28L1161.6 852ZM1251.37 840.52L1248.71 852H1268.17L1290.99 745.88H1271.53L1262.99 785.5C1261.45 781.72 1256.55 772.34 1243.11 772.34C1220.57 772.34 1204.75 795.58 1204.75 822.04C1204.75 842.06 1214.69 853.68 1228.97 853.68C1242.41 853.68 1249.69 843.32 1251.37 840.52ZM1245.63 788.86C1253.75 788.86 1258.79 795.3 1258.79 805.66C1258.79 821.48 1248.99 837.16 1237.09 837.16C1229.25 837.16 1224.63 831 1224.63 820.36C1224.63 804.82 1233.17 788.86 1245.63 788.86ZM1323.36 852H1344.08L1366.76 745.88H1346.18L1323.36 852ZM1376.51 774.02L1373.29 789.28H1383.93L1376.23 825.68C1372.59 842.48 1380.57 852 1398.77 852H1402.69L1406.47 834.36C1397.23 834.36 1394.29 831.14 1396.11 822.32L1403.25 789.28H1415.99L1419.35 774.02H1406.47L1411.37 751.48H1392.05L1387.15 774.02H1376.51ZM1419.31 832.4C1419.31 844.58 1428.41 853.26 1442.83 853.26C1453.47 853.26 1460.75 847.66 1465.23 841.92C1465.93 847.52 1470.55 852 1479.37 852H1485.39L1489.17 834.22C1485.81 833.94 1484.41 831.84 1485.39 827.64L1491.13 800.34C1494.49 784.66 1486.79 772.2 1464.81 772.2C1441.99 772.2 1432.05 786.06 1430.51 796H1449.69C1450.53 793.2 1454.45 787.88 1463.13 787.88C1469.99 787.88 1473.35 791.38 1473.35 795.58C1473.35 800.48 1470.55 803.42 1462.85 804.12L1450.25 805.1C1428.55 806.64 1419.31 818.12 1419.31 832.4ZM1438.35 830.44C1438.35 825.12 1441.85 820.64 1451.51 819.38L1461.31 817.98C1465.93 817.42 1468.31 816.16 1469.57 815.04L1468.45 820.78C1466.07 831 1457.95 838.14 1448.43 838.14C1442.13 838.14 1438.35 835.06 1438.35 830.44ZM1499.97 852H1519.29L1542.11 745.88H1522.65L1499.97 852ZM1557.55 764.22H1577.99L1582.05 744.9H1561.61L1557.55 764.22ZM1539.21 852H1558.53L1575.33 774.02H1556.01L1539.21 852ZM1582.23 822.32C1582.23 843.04 1593.85 853.96 1612.05 853.96C1632.49 853.96 1643.69 840.52 1646.21 828.06H1627.17C1625.49 831.84 1621.15 837.02 1613.73 837.02C1606.03 837.02 1601.97 830.58 1601.97 820.78C1601.97 806.08 1609.95 788.86 1622.83 788.86C1630.81 788.86 1633.33 795.02 1633.19 799.5H1652.37C1653.77 785.92 1646.49 771.92 1624.37 771.92C1598.89 771.92 1582.23 794.32 1582.23 822.32Z" fill="black"/>
<path d="M71.68 1021H95.48L104.58 978.58H150.92L141.82 1021H165.48L188.3 914.88H164.64L155.68 956.32H109.34L118.16 914.88H94.5L71.68 1021ZM185.137 1021H245.197C269.417 1021 284.537 1007 284.537 986.56C284.537 975.64 279.357 968.78 271.657 965.42C281.737 962.34 290.697 953.8 290.697 940.5C290.697 923.7 280.057 914.88 260.177 914.88H207.957L185.137 1021ZM249.677 956.6H222.657L227.277 934.76H253.457C260.877 934.76 264.797 937.7 264.797 943.72C264.797 951.14 259.057 956.6 249.677 956.6ZM246.037 977.46C254.577 977.46 259.057 980.26 259.057 986.98C259.057 995.24 252.617 1000.56 241.977 1000.56H213.137L218.177 977.46H246.037ZM375.644 1021H396.364L439.344 944L422.824 1021H445.784L468.604 914.88H433.884L393.984 986L384.324 914.88H350.164L327.344 1021H349.184L365.564 944.98L375.644 1021ZM465.13 1001.12C465.13 1013.16 474.09 1022.26 488.65 1022.26C498.87 1022.26 506.01 1017.22 510.91 1011.48C511.75 1016.8 516.23 1021 525.33 1021H533.17L537.37 1000.98C534.29 1000.7 533.03 998.6 533.87 994.96L539.33 969.62C542.83 953.1 534.85 940.36 511.89 940.36C488.09 940.36 478.01 954.64 476.19 965.14H497.75C498.73 962.48 502.09 958 509.93 958C515.95 958 518.89 961.08 518.89 964.72C518.89 969.2 516.09 971.72 509.09 972.28L497.75 972.84C474.37 974.38 465.13 986.56 465.13 1001.12ZM486.55 998.6C486.55 994.12 489.35 989.92 498.59 988.66L507.13 987.54C511.47 986.98 513.57 986.14 514.97 985.02L513.85 989.78C511.75 999.02 504.47 1005.6 495.51 1005.6C490.05 1005.6 486.55 1002.8 486.55 998.6ZM546.615 1021H568.735L576.435 985.02C579.375 972.7 585.395 965.7 600.375 965.7L605.695 941.62C592.955 941.62 585.675 951 582.735 955.62L585.535 942.32H563.415L546.615 1021ZM653.323 1005.74L651.923 1011.9C649.823 1021.56 643.663 1027.58 634.563 1027.58C627.843 1027.58 625.463 1024.36 625.463 1023.1H601.383C600.963 1031.78 609.083 1046.34 632.323 1046.34C656.543 1046.34 669.003 1034.44 673.483 1013.72L688.883 942.32H666.903L664.803 951.98C663.683 949.04 658.923 940.64 646.743 940.64C624.203 940.64 608.383 962.34 608.383 987.96C608.383 1006.58 618.323 1016.8 632.323 1016.8C644.363 1016.8 651.083 1008.96 653.323 1005.74ZM649.123 959.26C656.123 959.26 660.323 964.72 660.323 973.4C660.323 986.14 652.763 998.04 642.123 998.04C635.683 998.04 631.483 993.14 631.483 984.32C631.483 971.16 639.043 959.26 649.123 959.26ZM708.646 934.2H731.606L736.086 913.48H712.986L708.646 934.2ZM690.306 1021H712.566L729.506 942.32H707.246L690.306 1021ZM730.912 1021H753.032L762.832 974.94C764.792 966.26 770.672 959.4 778.792 959.4C786.072 959.4 789.152 965 787.192 973.82L777.112 1021H799.372L809.592 972.56C813.792 953.52 805.392 940.64 790.132 940.64C776.692 940.64 769.132 950.58 767.872 952.4L769.832 942.32H747.712L730.912 1021ZM851.934 1021H928.234L932.854 999.72H880.214L898.414 914.88H874.754L851.934 1021ZM976.485 1021H1000.28L1009.38 978.58H1055.72L1046.62 1021H1070.28L1093.1 914.88H1069.44L1060.48 956.32H1014.14L1022.96 914.88H999.305L976.485 1021ZM1136.28 940.22C1109.4 940.22 1093.86 963.46 1093.86 989.92C1093.86 1009.94 1105.06 1023.1 1126.06 1023.1C1148.46 1023.1 1158.82 1008.4 1161.2 998.18H1139.5C1137.96 1001.4 1133.76 1004.76 1127.46 1004.76C1118.92 1004.76 1113.46 997.48 1115.14 986.84H1163.72L1164.7 981.52C1169.74 956.46 1158.82 940.22 1136.28 940.22ZM1135.02 956.88C1142.44 956.88 1146.36 962.9 1145.38 971.58H1118.5C1121.72 962.2 1127.18 956.88 1135.02 956.88ZM1170.87 1001.12C1170.87 1013.16 1179.83 1022.26 1194.39 1022.26C1204.61 1022.26 1211.75 1017.22 1216.65 1011.48C1217.49 1016.8 1221.97 1021 1231.07 1021H1238.91L1243.11 1000.98C1240.03 1000.7 1238.77 998.6 1239.61 994.96L1245.07 969.62C1248.57 953.1 1240.59 940.36 1217.63 940.36C1193.83 940.36 1183.75 954.64 1181.93 965.14H1203.49C1204.47 962.48 1207.83 958 1215.67 958C1221.69 958 1224.63 961.08 1224.63 964.72C1224.63 969.2 1221.83 971.72 1214.83 972.28L1203.49 972.84C1180.11 974.38 1170.87 986.56 1170.87 1001.12ZM1192.29 998.6C1192.29 994.12 1195.09 989.92 1204.33 988.66L1212.87 987.54C1217.21 986.98 1219.31 986.14 1220.71 985.02L1219.59 989.78C1217.49 999.02 1210.21 1005.6 1201.25 1005.6C1195.79 1005.6 1192.29 1002.8 1192.29 998.6ZM1258.72 942.32L1266.7 1021H1292.88L1331.52 942.32H1309.4L1284.62 995.66L1280.98 942.32H1258.72ZM1344.1 1016.24C1340.32 1022.26 1336.68 1024.5 1330.24 1024.78L1326.04 1044.38C1326.88 1044.38 1328.98 1044.52 1330.66 1044.52C1345.08 1044.52 1353.48 1039.48 1361.74 1023.94L1405.28 942.32H1383.3L1361.46 985.58L1356.98 942.32H1334.86L1345.22 1014.56L1344.1 1016.24ZM1433.67 1021H1457.47L1480.15 914.88H1456.49L1433.67 1021ZM1488.89 942.32L1485.25 959.54H1495.61L1488.47 993.42C1484.69 1011.06 1492.81 1021 1511.85 1021H1516.75L1521.09 1001.12C1512.41 1001.12 1509.33 998.32 1511.29 989.64L1517.73 959.54H1530.05L1533.69 942.32H1521.37L1526.13 920.2H1504.01L1499.25 942.32H1488.89ZM1532.36 1001.12C1532.36 1013.16 1541.32 1022.26 1555.88 1022.26C1566.1 1022.26 1573.24 1017.22 1578.14 1011.48C1578.98 1016.8 1583.46 1021 1592.56 1021H1600.4L1604.6 1000.98C1601.52 1000.7 1600.26 998.6 1601.1 994.96L1606.56 969.62C1610.06 953.1 1602.08 940.36 1579.12 940.36C1555.32 940.36 1545.24 954.64 1543.42 965.14H1564.98C1565.96 962.48 1569.32 958 1577.16 958C1583.18 958 1586.12 961.08 1586.12 964.72C1586.12 969.2 1583.32 971.72 1576.32 972.28L1564.98 972.84C1541.6 974.38 1532.36 986.56 1532.36 1001.12ZM1553.78 998.6C1553.78 994.12 1556.58 989.92 1565.82 988.66L1574.36 987.54C1578.7 986.98 1580.8 986.14 1582.2 985.02L1581.08 989.78C1578.98 999.02 1571.7 1005.6 1562.74 1005.6C1557.28 1005.6 1553.78 1002.8 1553.78 998.6ZM1613.84 1021H1636.1L1658.92 914.88H1636.66L1613.84 1021ZM1672.79 934.2H1695.75L1700.23 913.48H1677.13L1672.79 934.2ZM1654.45 1021H1676.71L1693.65 942.32H1671.39L1654.45 1021ZM1698.97 991.04C1698.97 1012.04 1710.87 1023.1 1729.91 1023.1C1751.05 1023.1 1762.81 1009.38 1765.19 996.08H1743.49C1741.81 1000 1737.75 1003.92 1731.87 1003.92C1725.01 1003.92 1721.51 998.32 1721.51 989.36C1721.51 975.5 1728.65 959.26 1740.13 959.26C1746.99 959.26 1749.65 964.16 1749.37 968.78H1771.21C1772.61 954.64 1765.19 940.22 1741.95 940.22C1715.91 940.22 1698.97 962.34 1698.97 991.04Z" fill="black"/>
</svg>
