<svg width="1655" height="529" viewBox="0 0 1655 529" fill="none" xmlns="http://www.w3.org/2000/svg">
<rect width="1655" height="529" fill="white"/>
<path d="M255.76 286.08H225.373C223.632 291.661 215.761 303.897 197.61 303.897C175.428 303.897 162.143 285.197 162.143 261.966C162.143 238.735 174.379 220.226 196.37 220.226C215.928 220.226 223.608 233.32 225.016 239.45H255.76C254.544 218.485 237.776 192.821 196.37 192.821C154.964 192.821 131.566 221.967 131.566 261.966C131.566 301.965 155.846 331.493 197.419 331.493C238.992 331.493 254.019 305.304 255.76 286.08Z" fill="black"/>
<path d="M336.521 192.797C296.689 192.797 269.284 220.393 269.284 262.133C269.284 303.873 296.522 331.469 336.521 331.469C376.52 331.469 403.591 303.706 403.591 262.133C403.591 220.56 376.353 192.797 336.521 192.797V192.797ZM336.521 303.897C313.981 303.897 299.67 285.722 299.67 262.157C299.67 238.592 314.005 220.226 336.521 220.226C359.037 220.226 373.204 238.401 373.204 262.157C373.204 285.913 358.87 303.897 336.521 303.897Z" fill="black"/>
<path d="M460.667 274.894C469.564 276.301 471.663 276.635 480.416 278.042C490.195 279.616 495.085 282.407 495.085 290.278C495.085 298.84 485.473 305.304 473.786 305.304C456.66 305.304 449.863 295.692 449.338 290.802H416.161C416.518 306.878 431.521 331.684 473.81 331.684C507.178 331.684 525.519 311.768 525.519 288.537C525.519 265.305 514.858 253.427 483.946 248.371C475.384 246.964 472.76 246.439 464.555 245.055C454.418 243.314 449.887 239.641 449.887 233.344C449.887 225.473 457.757 218.509 472.068 218.509C486.379 218.509 492.318 226.547 493.892 231.794H524.637C523.063 214.144 510.66 192.845 472.235 192.845C438.867 192.845 419.667 211.711 419.667 234.776C419.667 255.216 430.495 270.243 460.715 274.941L460.667 274.894Z" fill="black"/>
<path d="M606.805 328.344H632.827L666.004 233.678V328.344H695.008V195.945H652.385L621.283 283.981L590.014 195.945H546.175V328.344H573.604V234.036L606.781 328.368L606.805 328.344Z" fill="black"/>
<path d="M782.757 192.797C742.925 192.797 715.52 220.393 715.52 262.133C715.52 303.873 742.758 331.469 782.757 331.469C822.756 331.469 849.827 303.706 849.827 262.133C849.827 220.56 822.589 192.797 782.757 192.797V192.797ZM782.757 303.897C760.217 303.897 745.906 285.722 745.906 262.157C745.906 238.592 760.241 220.226 782.757 220.226C805.273 220.226 819.44 238.401 819.44 262.157C819.44 285.913 805.106 303.897 782.757 303.897Z" fill="black"/>
<path d="M906.903 274.894C915.8 276.301 917.899 276.635 926.652 278.042C936.432 279.616 941.321 282.407 941.321 290.278C941.321 298.84 931.709 305.304 920.022 305.304C902.896 305.304 896.099 295.692 895.574 290.802H862.397C862.754 306.878 877.757 331.684 920.046 331.684C953.414 331.684 971.755 311.768 971.755 288.537C971.755 265.305 961.094 253.427 930.182 248.371C921.62 246.964 918.996 246.439 910.791 245.055C900.654 243.314 896.123 239.641 896.123 233.344C896.123 225.473 903.994 218.509 918.304 218.509C932.615 218.509 938.554 226.547 940.128 231.794H970.873C969.299 214.144 956.896 192.845 918.471 192.845C885.103 192.845 865.903 211.711 865.903 234.776C865.903 255.216 876.731 270.243 906.951 274.941L906.903 274.894Z" fill="black"/>
<path d="M292.348 368.749C291.704 368.749 291.084 368.63 290.464 368.343C288.055 367.294 286.934 364.48 287.983 362.071L376.138 158.308C377.187 155.899 380.002 154.778 382.411 155.827C384.82 156.877 385.941 159.691 384.891 162.1L296.713 365.887C295.926 367.676 294.185 368.773 292.324 368.773L292.348 368.749Z" fill="black"/>
<path d="M1072.55 329.204H1102.25V276.444H1160.59V329.204H1190.28V196.804H1160.59V248.514H1102.25V196.804H1072.55V329.204Z" fill="black"/>
<path d="M1273.36 304.565C1253.61 304.565 1245.07 290.946 1245.07 274.87V196.804H1215.37V278.543C1215.37 309.121 1233.88 332.352 1273.36 332.352C1312.83 332.352 1330.65 308.954 1330.65 278.543V196.804H1301.64V274.894C1301.64 290.97 1293.08 304.589 1273.36 304.589V304.565Z" fill="black"/>
<path d="M1355.67 329.204H1426.58C1455.22 329.204 1471.3 315.227 1471.3 289.729C1471.3 273.32 1462.9 263.016 1450.86 258.627C1460.11 253.905 1466.58 244.817 1466.58 232.438C1466.58 209.374 1452.08 196.804 1424.84 196.804H1355.67V329.204ZM1418.73 248.848H1385.2V221.777H1418.73C1429.39 221.777 1434.97 226.309 1434.97 235.229C1434.97 244.149 1429.39 248.848 1418.73 248.848ZM1420.83 275.037C1432.87 275.037 1439.34 279.235 1439.34 289.181C1439.34 299.127 1432.87 303.516 1420.83 303.516H1385.2V275.037H1420.83Z" fill="black"/>
<path d="M1265.41 141.541C1425.24 141.541 1512.13 185.236 1512.13 264.566C1512.13 343.896 1425.24 387.592 1265.41 387.592C1105.59 387.592 1018.69 341.606 1018.69 264.566C1018.69 187.526 1110.21 141.541 1265.41 141.541ZM1265.41 132C1187.8 132 1123.35 143.616 1079.04 165.63C1032.58 188.695 1008.01 222.922 1008.01 264.59C1008.01 306.258 1032.58 340.485 1079.04 363.55C1123.35 385.541 1187.8 397.18 1265.41 397.18C1431.4 397.18 1522.79 350.097 1522.79 264.614C1522.79 179.13 1431.4 132 1265.41 132Z" fill="black"/>
</svg>
